<mxfile host="app.diagrams.net" modified="2022-11-07T15:29:18.500Z" agent="5.0 (X11; Ubuntu)" etag="YKAGAMctwYrHomalVn1g" version="20.5.3" type="github">
  <diagram id="61uoC8Aeie0ySmn9iBYh" name="Page-1">
    <mxGraphModel dx="2436" dy="899" grid="1" gridSize="10" guides="1" tooltips="1" connect="1" arrows="1" fold="1" page="1" pageScale="1" pageWidth="850" pageHeight="1100" math="0" shadow="0">
      <root>
        <mxCell id="0" />
        <mxCell id="1" parent="0" />
        <mxCell id="ksrkDHLtkuaByw2PT24d-30" value="" style="rounded=1;whiteSpace=wrap;html=1;" vertex="1" parent="1">
          <mxGeometry x="-510" y="520" width="482.48" height="310" as="geometry" />
        </mxCell>
        <mxCell id="ksrkDHLtkuaByw2PT24d-1" value="&lt;div&gt;Knowledge&lt;/div&gt;&lt;div&gt;Representation&lt;br&gt;&lt;/div&gt;" style="ellipse;whiteSpace=wrap;html=1;aspect=fixed;" vertex="1" parent="1">
          <mxGeometry x="360" y="240" width="90" height="90" as="geometry" />
        </mxCell>
        <mxCell id="ksrkDHLtkuaByw2PT24d-2" value="&lt;div&gt;Symbolic&lt;/div&gt;&lt;div&gt;Representation&lt;br&gt;&lt;/div&gt;" style="ellipse;whiteSpace=wrap;html=1;aspect=fixed;" vertex="1" parent="1">
          <mxGeometry x="360" y="360" width="90" height="90" as="geometry" />
        </mxCell>
        <mxCell id="ksrkDHLtkuaByw2PT24d-3" value="&lt;div&gt;Logic&lt;/div&gt;&lt;div&gt;Engineering&lt;br&gt;&lt;/div&gt;" style="ellipse;whiteSpace=wrap;html=1;aspect=fixed;" vertex="1" parent="1">
          <mxGeometry x="360" y="480" width="90" height="90" as="geometry" />
        </mxCell>
        <mxCell id="ksrkDHLtkuaByw2PT24d-4" value="Calculus" style="ellipse;whiteSpace=wrap;html=1;aspect=fixed;fillColor=#d5e8d4;strokeColor=#82b366;" vertex="1" parent="1">
          <mxGeometry x="440" y="726" width="90" height="90" as="geometry" />
        </mxCell>
        <mxCell id="ksrkDHLtkuaByw2PT24d-5" value="Semantics" style="ellipse;whiteSpace=wrap;html=1;aspect=fixed;fillColor=#d5e8d4;strokeColor=#82b366;" vertex="1" parent="1">
          <mxGeometry x="230" y="780" width="90" height="90" as="geometry" />
        </mxCell>
        <mxCell id="ksrkDHLtkuaByw2PT24d-6" value="Syntax" style="ellipse;whiteSpace=wrap;html=1;aspect=fixed;fillColor=#d5e8d4;strokeColor=#82b366;" vertex="1" parent="1">
          <mxGeometry x="150" y="630" width="90" height="90" as="geometry" />
        </mxCell>
        <mxCell id="ksrkDHLtkuaByw2PT24d-9" value="" style="rounded=1;whiteSpace=wrap;html=1;" vertex="1" parent="1">
          <mxGeometry x="-110" y="390" width="380" height="90" as="geometry" />
        </mxCell>
        <mxCell id="ksrkDHLtkuaByw2PT24d-7" value="" style="shape=image;verticalLabelPosition=bottom;labelBackgroundColor=default;verticalAlign=top;aspect=fixed;imageAspect=0;image=data:image/png,iVBORw0KGgoAAAANSUhEUgAAA04AAACdCAIAAAAMgL/KAAAACXBIWXMAAA7EAAAOxAGVKw4bAAAgAElEQVR4nO2dd1hUV/e2H4ahCSiiiN3YMXawl4iiid3YNVasiSV284q+ipqoMbFFE0tQo9h5iQVbNNbEGo1KBLuIoiCKgvRhyvfH83M+Qh2awLjuK5cXmdlzzj7r7L3POqttE51OB0EQBEEQBMEYUeR3BwRBEARBEIS8QlQ9QRAEQRAEo0VUPUEQBEEQBKNFVD1BEARBEASjRVQ9QRAEQRAEo0VUPUEQBEEQBKNFVD1BEARBEASjRVQ9QRAEQRAEo0VUPUEQBEEQBKNFVD1BEARBEASjRZnfHcgCarV67ty5APz8/JLv52Zubg7ggw8+aNasGYChQ4eWLl06vzqZvyQmJgLYtm3b06dPhw4dCuCDDz7I5z4ZgFarBXD06FFPT89r164BsLW1XblyJQBexTvg8OHDCxYsADBr1qwePXq8gzM+ffp08+bNDg4OAIYMGVKkSJF3cFJBEAThfUOseoIgCIIgCEZLYbLqabXa+/fvA7h161a/fv1q1KjBz9+8eQMgMDDwv//9L4AVK1asWrUKQJ8+fRSK90uXjY+PB/DLL79cv369devWKCRWvRMnTgAYOHBg8+bNly9fDiAmJqZMmTLvsg8vX778+++/Abx48eLdnPHJkyfff/99tWrVAPTp00eseoIgCEJekEuqnlYLAD/8gGPHAGDqVLRtCwCmprlz/H+jVCr79ev36aefpvj8+vXrAAYMGPDFF18AKFeuXMuWLfOiA/mIVqt9/PgxABMTkwoVKgBIrs5aWVkB+OKLL8LCwqpWrZpfncwScXFxa9asAVCzZs3t27eXKFEiv3v0jqhUqZKnp6e9vT0Aa2vr/O6OIAiCYJy8X0YvQRAEQRCE94pcdeC+eoUjRwDgyBE0aQIAM2eiWzeYm+fmWdKnQYMGABYuXDhkyBAA27dvb9q0KQClsjD5qTMmOjqamQpKpfLAgQMAbGxs9N9aWFgA+Oyzz/Kre9kgJiaGdspSpUrRKvmeUKZMmcmTJ+d3LwRBEAQjJ890oMuXAaBPH9SqhenTAWDAALyTaCQnJyeGPQUFBanVahiXqmd8aLVajUYDwMTE5H2LrRQEQRCEvEaerIIgCIIgCEZL3pu7bt3CyJEAMG8epk4FAHd32Nnl3QkfPHjARNTy5cvTnqfRaLZs2XLv3j0AM2bMCAkJAbBt27Zy5coBmDRpEn+YkJCwe/duAH5+fqGhoXQHDx8+vHHjxsmPr9Vq/fz8ANy9e5e+1CtXrhw7diw0NBRAmzZt+KGtrW2Kjmk0mqNHj/LUQUFBderUATBhwgSeiA0ApNnVMmXKVK5cGcDFixeDgoIAmJqafv311wDMzMyYjNy/f39TU1MA+/fvDwoKGjFiBIDixYvrO3Dnzh0A69atu3TpEgAHB4dBgwYB6NWrl97wGRsbu3XrVgD79u17+vQpj+Di4gJgyJAh/MNAzp075+3t7e/vz3vRs2dPAL179zZ/69D/888/2VuKLjY2dsGCBUWLFgUwdOjQsmXLZnqK8PBw9vb06dNhYWEAKlWqNHr0aAAff/xxrtgIExISAOzevZs3PYOBQW7fvg3Ay8vr4cOHAFxcXLp16wbgwoULzPAtXrz47NmzAWg0ml9++YWX2bt3b9O3OUysMnj+/Pn169cDuHnzppWVVb169QCMGjXK2dkZgEKhuHnzJoC9e/eynGSHDh1yfrGCIAiC8fEOPZshIZgzBwDs7DBsGADktrfu7t27ADw9PalMDBgwgBqMSqU6ffo0FQtTU1OW81CpVOPHj+cPqWp88cUXBw8eBNCqVavKlSsfPnwYwJYtW5YsWcJv+TBWq9W+vr4Adu/eTT0jJCSkVKlSfLT7+PjwRBs2bNBre6xsvGjRosWLFwOoW7fuhx9+eOzYMQCHDh3i0Vq0aEFVL82ufvHFFywCsmfPnufPnwMwMTHx8fEBoFAo2rRpA6B379483e7du8+cOcM6wHpV7+jRo1T+dDpd27ZtAQQHB1PVW7hw4YwZM3j2WbNmrV27FkCHDh2oPTx79oyXqdVqGzRoYJpZVrVKpWL143nz5lWsWLFJkyYAHj58OHjwYAAHDhxgvm3x4sUDAwMB7N27NzIyEkBUVNTu3btLliwJoGvXrpmqeomJiWPHjv39998BtGnThnGZ586d44WvXr161KhR+HeGclYJDQ1lNvfBgwdbtWoFIIOBAeDUqVP9+/cHYGdnR+Vs5cqVc+bMAeDi4lKxYkUAZmZmVB9jYmKWLVtG7blHjx48iEajofQ8PDwYh9CkSROFQrF3714Afn5+Z86cAVCtWjXmmy9YsODLL7+EqHqCIAhCOrwTVY82vFGjMHEiAFSsmMPjqdXqw4cPBwcH83/1dfUOHToEQKfTLV26FICrq2vyX9EY9u23337++ecAPD09WdcjMTGRm3CcPHlyx44deFuQLyoqCsC4ceNmzZoFoEqVKp07d05+wKSkJD7+v/vuOxsbGz56Bw4cSNXtk08+GT58OFtSg1y6dOm4ceMALFmyxNLSkhpb3759qc81aNBAb1pLr6sApkyZ0qlTJwBFixZNnZahUqlSi4tJD1OnTmWlul9//bVSpUoU48KFCwGsW7euR48ePM7Ro0dZxWbbtm1M8gAQFxcHIDY2NlM9D8D+/fvnzZsHYMSIEUuXLmUZEVqwAIwfP57dWLp06ZgxYwB07979448/BmBnZ+fn51esWLFMT0HMzMymTZv2008/AdAX4QsNDe3YsSOAZcuWUVAsSZMNODBOnjwJYMeOHX369AGQwcCIjIxcsGABT3fo0CFu2XLx4sWuXbsCaNOmDYelXoYxMTGpT3rq1Clu2tGyZctt27YBoMobGxsL4MqVK/or5djbunVrrVq1sneBgiAIwvuAxOoJgiAIgiAYLXls1XN0xIQJGDsWABwccuuoGo1m586demsWzSTlypWjFW38+PE1a9ZM77f9+/f/9ttvAeg3J7h9+/a+ffsAfPrpp/T90eVH85KHh8fp06cBbNy4sV27dkjmECxWrBhdouxJilIvfn5+AwcOBKDT6bZv384esriGpaUlAEdHR/aWm3yEhYWVL18+465mD3qKg4KCNm/eDIAmPQBKpZL99/HxuXz5Mj2Apqamt27doljq16/PluxApt2gmcrLy4uGqOnTp+srA5uamg4YMIBi2bNnD4CxY8dmcJsMQaFQ0LKVHAcHh0aNGvGiaBzNtlWPA4M2zh49eiS/70hrYISHhwcGBvIyHd6OdicnJ1rdrl69SuNo6iBOQovsli1buL/z3Llzk7uwKUl66gn3QSkUu6EIgiAI+UjeqHqVK/9fBsawYUjnwZYTlErl2rVrGftlOHxYuru7p1BZ/P39GSvWuHFjvctST/ny5bl11c2bNyMiIpDsKZ4mzZs3py4VHBxMz7JarWYQ4ePHj1OrJomJiUlJSQCeP3+uV/XS62o2UKvV9CwnJCQwAWU6a98AAKhVhIeHBwcHU/V0d3dn0kCDBg2qVKkCoEOHDmPHjgXQsGHDjM/FaMJbt259+OGHeKvL6mHNvCZNmjA3JSAgIIeqXgroV33y5Ak1Tq1Wm6Y723A4MJh7YcjAMDc3t7Ky4k3XaDR8A1GpVPS9li5dOmP3NwfhzZs3OX6cnJxy0nlBEARBIOLAFQRBEARBMFpyyapH31abNqhdGwB69IClZe4cOfegYUYf1a4nJiaGyafmae3qYWpqSmNMfHy8IVYiMzMz2uRUKhUPq9VqaberX78+HaYprDv057KWSsZdzR7M97Szs5s6dSr+XX6FmJiYODs7s1dTp06lMe/nn3++cOECgPXr13t7ewP48ccfhw4dmkFCK+UTHx9vZmaGVJfJH5qbm1MstHXlkGfPni1btgzAr7/++ujRo+Rf5XxXWQ6MNEcF0hoYFSpU6Ny5865duwB07969ffv2ANavX88aN5MmTcrYRsty3wkJCXZ2dkhnNAqCIAhCVslVB66bW24eLbcxMTFBWqU3ypYtS9Xq7t271EKS6yhRUVHPnj0DUKpUqeS5rukRERHB0i01a9aktqHVapmMmZSUxECu1MoW0auS6XU1GygUCiqRWq22ZcuWeJu5mR5KpZKppn369GF/jhw5MmHCBACrVq3q1KlTCrdschiF5uDgwIJ8UVFRpUqV0n9LVebu3btUbVnUMCf8888/vXr14t/Tpk1jGm/58uU9PDwAeHl55fD4HBh0vusdsnpSDwy1Wk1PLgB9xywsLJioyyIsGcDRUqpUKWZMR0VF2dvb5/ASBEEQBEEcuIIgCIIgCEaLbA6Lxo0bV61aFcCBAwdY6Y3pAty04MCBA6yNPG3aNFpZaPkDoFark5dGo9XKy8uLVr3Ro0frfYis9Obp6ckdF7idhh4exDKLLu+kpCSeMWMUCgU9icuXL1+3bh0AZ2fnFJ5ElUqlUqn4YVJSkj4FgT7ELl267N+/H8CxY8cy9rrShte2bVta1I4ePZr8SpnYe+TIESYc1K1bNyuXmwanT59+8uTJzp07AXArDqS6KTmBA4PFC8eMGaNPIklvYISFhd25c4cFqBs1akSbX+3atQ00ztEm2rFjR5Zc3r1798yZM/Fv4+7r16+Z3ZLV0SIIgiC8t4iqh7JlyzLndNSoUdzDysPDo3Llyqx7vGbNGm57oN8UQa/qxcTEcKOCRYsWlSpVatOmTQA2bdpEnSB5WJu7uzuAw4cP0xMaEhLSvXt3aiRHjhyhIrV79+7k4XrpYWVlxViuq1evsodWVlbXrl0DMHXq1DRdzNyPYfz48YsWLQKgVqvZDTs7u8uXLwNYv379qFGjWGylT58+9PB26tSJqtulS5dYm7p+/fr6Ss5pwhLQkyZNYhWScePG3bt3j37VW7ducaeQN2/esOhxxonMhsAqKjxakSJFuBeFn58fS1jnHA4MbrnRrVs3+oUzGBhFihSxtrZmOe7OnTtTGzt+/DjF2Lx5c5bjSS8Pl6PF3d2d0vb09AwPDwfQo0eP6OjoEydOANi3bx8L97Ro0eLIkSMA5s6dy1R0/f5+giAIgpAcceAKgiAIgiAYLWLVAwDWOnZ0dJw4cSLeGuGYRjp48GCao1KnI9jY2LCk7YgRI16+fMkPmzRpQvMencKEaRm//vorI/Q9PT1pRwRQqlSpKVOmwOA0hSJFinCv27Nnz7JWs6mpaffu3QEwzzc1NLbNnTuXdftmz569e/dufsVr7NevX5s2behubtq0KSstr1q1Sn+EZs2aAfj+++8N2bWsRo0arJw3ffr0xYsXf/311/ycxsXt27e3aNHCkCvNFDc3t759+3L3MO6EC6BOnTqs/HzlypWcn2LgwIG87xMnTuSoQPoDQ6vV2tvbnz9/Hm+3Y07dYQCbNm2qmP7egKVLl+Z2t7NmzeJmwStWrABAU27y8uBMAbl+/fpHH32U8ysVBEEQjBUTFtEVkvP06dPw8HA+U1MXyFCpVHTq+fn5cSMKZ2fnu3fvMojKkN0L4uLibt26VbJkSQAVKlTIaqYtY8WCgoK4+0L16tWzFLml0Wju37/PC+E1pqjrweOHhoZyt4lSpUqxVnA2MoKjo6Op9JQvXz6D1N1so9Vq2ckXL15Q8tSq8wKmFac5MOjT/+9//7ty5Uqqtr179+Z4iIuLYw+3bt3KmjXTpk2jJz3TDYV5f2/dumVjY0PnvlRgEQRBELKKOHAFQRAEQRCMFrHqZZnUVj3unSW8tzAx+dNPP42KimK2ROr8ldDQUKZC16hRg2WWU2+2JgiCIAi5jlj1BCGnWFpaWlpaurq6+vv7L126dOnSpWFhYfpvnzx58uTJk0WLFt2/f//+/fvt2rUzMzNjwJ8gCIIg5DWSliEIOYVRd9OnT7ewsFiyZAmApUuXMpFCq9W+efMGgKOjI/dwGzNmTK7sgyIIgiAIhiCPHEEQBEEQBKNFYvWyA91zMTExrOIrQVeCHsbtXb16lWnOCoWC+cuNGjWSLS4EQRCEd4+oeoIgCIIgCEaLOHAFQRAEQRCMFlH1BEEQBEEQjBZR9QRBEARBEIwWUfUEQRAEQRCMFlH1BEEQBEEQjBYpoZwuUVFRAO7cuVO0aFEAlStXlqIqgiAIOSc8PBzA4MGDR48eDaBv37753SNBMGbEqicIgiAIgmC0iFUvDf7888/p06dfunQp+YdKpbJz584A/vOf/zRv3jyfupZ97t+/P2bMGABt27b18PDA2+28jJ6LFy9u3boVwMKFC0uUKJHf3RGMlqdPn27evBmAg4PDkCFDABQpUiQf+/Ps2TPazGrXrr1o0SIASqXy6dOnADZv3uzg4ABgyJAh+dLJuLg4AHfu3GF/BEHIU0TV+xc+Pj4A3N3dixcvvnjxYgANGzaMiYkB8Pvvv1NjcHZ2btq0KYDCtZNpXFzc9evXAXzwwQfvVd3sgICAvXv3Apg6dWpBU/UCAgJWrVoFoH379n369EFhG1T5S0BAAIBVq1YVEOk9efLk+++/B1CtWjX2J39VvcTERH9/fwBmZmYajQaAUql88uQJgO+//56buPTp0yd/O1mI0Gq1//vf/wAcP3588uTJAGrXrp3fnSo0iPTyF3muCIIgCIIgGC1i1fv/hIeHL1myBEDJkiUPHjxYp06d5N/27t2b7yLIb+OBYBwkJCTMmTNn3759AEJDQ3v06AHZT9lgKD0A+/btKyDSq1SpkqenJwB7e3tra+t87EkGVKpUCYCnp6e9vT2AAtvPAsi9e/emTJkCIDQ01MXFBWKXygoivfxFVL3/z4MHDx48eACge/fuNWrUSN2gZs2a77xTgtESFhZ248YN/l2vXj0zM7P87U/hogBKr0yZMvq3wQJLmTJlABT8fhZArl69+uLFCwA2Nja1atXK7+4UMkR6+UvhV/Xi4pBLsSYmJib8IyQkJD4+3tzcPFcOKwhpEhgYGBYWZmlpCaBJkyZiKs4SlB4AS0tLkZ6QpzDS8eLFi0lJSQCqVq1avXr1/O5UYUKj0Yj08hdZHwVBEARBEIyWwmnVu3oVc+fizBkAiI1F0aIA0KkTvv4aAKpVy95Rq1ev7uTkBODs2bOenp5z584FULx4cUN++/Tp059//hnAH3/8QQODq6vrqFGjADg6OuqbRUZGAti8eXOpUqX69+8PQKn8v1sQGhrKDF8nJ6du3boBUCgUERERAJYsWVKrVq1PPvmEv7127RqA8uXLDx48GEDjxo1TdEalUh04cMDPzw+ATqfr2LEjry51ty9cuABgy5YtI0aMYFqut7c3jSUuLi4jRoxI0X8A0dHRALy8vI4cOcJzubm5ARg3bpw+v1Wr1QI4derUpk2bbt68CcDMzIwd6NOnT9euXfnJqVOnAKRow9TFrl27Mu4qMjJyy5YtAKysrAYNGoSCHV0UFRXFJO6LFy9SnnXq1OGNLlu2LO+mt7c3/7h8+XJ8fDyter/99huTJXv16sUQlsTExD179gC4cOFCw4YN+/XrB0Cr1e7fvx/ApUuXmEE5YsQIA4dowYdFy318fAyXHgBLS8tMpQegX79+HJb79+/PI+lFRkb+8ssv7G3v3r0BmJqa0iDk5eUVFBQEYNKkScePHwdw+PBhU1NTzs1+/fqpVCpe3YkTJwDY2dl1794dQNeuXfVFkaKiojgXHBwcOOl8fX1ZE0qhUHCEdOjQIeMiSlyCfvnll7JlywLo3bt38vZ37twBsG7dOh7WwcGBk65Xr176lYoXsnbt2rNnz7JmStmyZTt06ABg0KBBpUuXzg1ZviPu378PYNu2bQ8fPgRga2vr6uoKoFu3bpyY165d8/Pz40g7ePAgf5WUlLRmzRoAZcqUGTp0KIBixYolJiYC2LNnT3pDDkC1atW4qBrHnDVQegDi4+MNlx4ArnjGLb13TGFT9Xx9AcDdHdHR///DN28AYPfu/1P+9uxB69bZOHaJEiW++eYbAJ999tnKlSvXrl0LoHXr1lxzu3fvzojm1Jw5c8bd3f3169cA2rVrxwG6ZMkSqm5bt25lcRYAbLN8+fKaNWt++umnSKbqhYSEMCmkW7dunTp1AmBubv7mzRsAu3btcnR0ZPEXKysrPjz27t27a9cu/tGiRQsehCvv7Nmzf/jhB6pK9evXP3/+PACNRhOdXGgAgHv37gHYvHnzo0ePqEFWqVLl0aNHAHx9ffnU2bNnDyO4ATx58mTYsGEAzp07x8XdxsaGHfvjjz927txJMXJWf/bZZx988EG7du0AxMfH//HHHwACAgJatmwJ4PLly5999hmAFG1YQaNly5Z8ZkRGRi5fvhyAvb09JZYNVY96Q3x8fGxsbKaNTUxMsld+4tKlS0OHDmXEcd++fW1sbAD88MMPfDz7+flxYDx+/JhbBVDgJUuWBBATExMaGgpArVbz/q5cuZIasK2t7ZgxYzgaLSwsOJZq1qzJ0fLo0aMVK1Yg2UDKCQEBARwtdLVkAzMzM97fDz/8MEs/pPQAuLi4GC49ACVLlsxUegDWrl3LGdG0adM8kt7r16+XLVvGS2CaiF7VO3ny5JkzZwDcvHmTHStdurS/vz+nzN9///3PP/+wP3yMHTx4cNu2bQBWr17NN0aFQhEZGbly5UoACQkJfJ80MTHh2H769CkPtWrVKn379DoJYNmyZRyoPXr00Kt6R48e5aNUp9O1bdsWQHBwMFW9hQsXzpgxA0BYWBinYUhISPfu3W1tbXlRCxYsAODk5NSlS5csCY037ueff36XQ443ZfXq1SyOM2rUKI698PDwr776CsCZM2e47ISHhz9+/Pj58+cAWKcGgKOjI7ttbm5O+Ws0Gt6amzdvpjfkACxZsoSr64oVK3JrwgI4f/58TqQHoGXLllmasBqNxnDpAXj+/Lnh0gPAFS+vpfdeIQ5cQRAEQRAE40VXiAgN1dWrp6tXTwdk9F+HDro3b3Rv3mT7PAEBAV27djUzM0ue1mdpablw4cKFCxfGxsbqWwYFBQUFBTk5OTVo0ODOnTt37tzRf+Xv71+tWrVq1ao1bNjw2bNnz5490+l0Dx8+fPjwYfny5d3c3GJiYmJiYvTtL1++bGdnZ2dnN2TIkMTExMTExOTtlUrld999991336nfsnDhQhMTExMTEw8PD36i0+l27dq1a9cuc3Pzli1b3rt37969ezqdjkebP3++qampqampu7t7UlJSUlKSTqfbsmXLli1blEplmTJlLl68SMfZy5cvX7586erqamtra2tre+rUKfYwMTFxzJgx/HDfvn36np88efLkyZOOjo4bNmzYsGFDUlLSiBEjRowYUb58eXaAaDQajUYTGhqakJCQkJDABqnbhIaGhoaG8nJ0Ol1MTMzevXv37t17+PBh/jCrd9PLy0uhUGQpbL9p06ZNmzZ9+fKlgaeIjo6Ojo7u1KlT69atIyMjIyMjdTrd7du3b9++Xa5cOd7Wv/76S9+ew4ZGYg8PDw8PD41Go/+WmeCtW7e+du3atWvX+L5rYWFhYWHh7e396tWrV69effTRR+xq586d4+Pj4+PjsyqWFHBITJ8+PcWwzypmZmZfffXVV199pb+DWZIeBWi49CjATKVHAXp7e1OAuS49wqlavnz5Hj166McqZx+9qwA++eSTiIiIiIgInU53/vz5kiVL0qw7ZMiQIUOG6BcEPz8/a2tra2vr9u3b6xeKR48eVa5cuXLlykWLFt2xY8eOHTs0Gg3n/s8//1ykSJEiRYpUqlRJvxCl2R/9ktKjRw9+zjMGBwfXqlXL2dnZ2dn50aNH/DApKWnu3Llz586tVKlSYGBgYGCgj48PT7Rp06bk185FI/namDG8iRUqVGjbtm3btm3f8ZC7fv369evXHR0duaTrx4+Xl5dSqVQqla6urm/evHnz9iGybdu2bdu2mZmZcfU7ffp0igNyyHHUpTfkOOo6d+7MUWdgVzOAE5ZzNifSowANlx4FaLj0KEDDpadf8fJUeu8bhcoKev067t/PvNnffyMoCADq1cveeT788EM/Pz96Oo4dO8boqL179zJ6j8sfAFNTUxZFe/jw4ebNm1PUZ6lbt+7UqVMBTJ48+fDhwwBGjhyZvf4A+OCDD/i00Htb2rVr99133wEIDQ3V6XQAEhMTd+/eDcDS0nLx4sXV3sYsMpXYzc2N3qU06dixI+NL8DYSwtXVlb48ZsgDCAoKOnToUM+ePQHQxUzoPencuTMdvoMGDaJ1/dWrV+fOnatYsSL7QGWrdOnSarUagFKpfPXqFYAUbVLE+lhbW9NhlBOKFi0KYMmSJaVKlcq0sUKh+OCDD5CViBC6FG/cuJGYmLhx40YA3bt3p9e7b9++lStXBpC8TCPdLuHh4cwexb/dbawh4uDgQLHQU1m3bl0AnTp1olOjXr16DKn8/PPPGRajJyoqavv27XRzDxkyxEAdl7eMrxMGXnVukVx6ADZu3Gi49JAqeTlN6QGoW7cuB62FhUVq6anV6t9//x2Ar68vYwGrVKkycOBAejlzBU7DESNG6MMhatWqxeDgGzdu0HOqD05wcXGhLvv69WtGZSSPW2jQoAEDXvUXPmTIEMYzbd68+c8//wSQZrmoDDh27FhQUBA3dtOr0Uqlkh3z8fG5fPkygGLFitH7ee7cue7du+vDc7O3D42JiQnDY06ePJmNn2ebv//+G8DLly8ZSVarVi06rGvXrs0d7QYPHkxPIgCNRkPZJiUlVa1aFWnFPd+4cYMbzVWsWDG9IQcgLCzs888/B5B8zt6/f59RCr169dIvwobA938A737O/v3334ZLD8ClS5dyV3oMOd2xY8fZs2fZ3sXFhX7kFMHlAhEHriAIgiAIgtFSqKx6z58jMTHzZgkJCA/P+dlo1Onfvz9zAH///fcBAwYA8PLy4h9Vq1a9ePEiAFtb2wYNGqQ+Ak0CRYoUYbOcWPXKli2bwshkZmbGd3q1Ws2I9cjISJaArly5clbf6atXr54i0DV5zI3NdiYAACAASURBVCw/uXv37qtXr7ifLA14yYmMjKQQVCrV8OHDAfj5+Q0fPnzSpEkAXF1dBw4cCKBnz540bwwfPpwvhSna0GqYu0UN+Q7t5uZWLbvZ2RlTrFgxABUrVrx48eK0adMATJs2jebJyZMnM0xe/x6v1WqvXLkCID4+vnz58ik2ZQFACfTs2ZPB4DRTUbbFihXjbVq9enWKX+3cuZNpQGFhYdevX+dJBw0aVPALziWXHoBp06YZLj382+CHdKQHoEGDBjyRUqlMLj0O76VLlzJj9+eff+aw//LLL9esWcOWI0eOzLkYmetDIyVRKpV0vdna2laoUCF5Y4VCwa+0Wq3OgB2rLSwsOnfuDMDb2/v27dtINm0zhVb269evJyQkcCZOnz5d/y3PHh4eHhwcDGDChAnMsty4ceOWLVsaNWoEoGvXrkxEoG2m4FOlShUANjY2NFX26dOHRVVdXFwWLlwIgNdIoqOjr169yr9pXE9twuzZsycH3vPnzzMdcgBiY2PnzZsH4ObNm/7+/vRvNGzYMEtWvXykSpUqhksPAAWYW9KLiIhgtlCZMmW+/fZbAGfPnp08efL69esB7N27lycSklOoVD1ra9B9mfEqplTmVlHl5Li6uvbt2xfA5s2bAwMDAVSpUoXjWKFQpJkQpNdXUqe+ZhW9YpcBarWaLrDixYtnNXrDwsIi0+MzvI9+ZLodU8BC/FZWVs2bNwdw9OjRlStXsrTE/v376QcfNmwYM+2bN29+9OhRACnaMMN3zZo1zMEsFHDx2rBhg4eHB68lMTGRLkJGkgH4z3/+QwknJCTQHwSgVq1aGRSnYAmDoKAgU1PTZs2aIcNE0YEDB1KZPnDgAF9OCgvJpQfg+PHjhksPQHoCTC49AM2aNUtTeqzwcuDAAU7qhw8fUnoeHh79+/dnfm6XLl1YmiQn8HGY5tZtZmZmGVdIMQS6zJRKZUJCQjZ+npCQYGdnx5iT1KELJiYmzs7OAOzt7bdv3w5g7dq1vr6+VLsvXrzo7e0N4Ndff81q5nW+0KpVKwBr165lyYXAwEBqtFeuXKELcv/+/fqyBk+fPmWlAhMTE65sGey/9/Dhw0yHHABra2umr6rV6i+//HLTpk25en15TqtWrQyXHoB79+4ZLj0AXPHSk15gYCCDixwcHDitBg4ceOHCBZYp+Omnn6gaSpZucgr6G78gCIIgCIKQbQqV2lunDkqWBIBnzzJqVqECqlTJ9ZMrFAp9PDXfJExNTRn6febMmeDg4NQ+U76gxMfHp1eQLzmGuGkypkiRInwdj4iIiI2N1fc2tyhfvrylpWW5cuUAjBo1KlMrYL169fRvqwEBAfQK+fj40Pj0ySefMNg2RRuWIB44cCBLRhd8goKCaNKoX7/+/v376Uy/cuUKXzG3bdvGgmqTJ0+mC+/Fixd0sQFo2rSplZUVAK1We+zYMQBly5at9zadiBHK0dHRxYoVSzNCIBdht319fWl8pVMvGyiVSr0L1RCnZwrp4a2L1kDpAbCysspUenjrAU8Nvx0/fjx9THprRNGiRc3MzFg7N9tFy94lDN5ISEigAVK/zWOm8DZVrlxZq9UyxYpGr/SgFXbOnDlz5sxhCsvq1asXLVoEwMvLiykCBhopdTrd9evXAQwePPjdDDmtVnvmzBl9AhlrHEZGRjIpZ9GiRRw2V69e1Y8Ef39/JgHY2NjQYY23jpqDBw+yCLbeDnrt2rVMh1xuodVqfX19Aezfvz8n0sNbF6qB0gNw4sQJw6XHNoZLD0DGK16dOnUmTpwIoFSpUsy0MzEx0R8kJiaGq5mQnEKl6lWrhiFDAODbb9NuQK/l2LEwINEyNQEBAbdu3QLQvXv31LFiz58//+233wCULFmSFfmVSiVThLZs2bJ161aukvrquzExMXyGmZubp9BaWPg0hW735MkTPleyTdGiRfnw++mnn37//Xd3d/fk34aEhCQaEumYPjVq1GjYsCEruw4aNCiFaqvVavWzlCdKbqivXbs2U/lOnz7N+pmJiYkpLPlsc/r0abwtrFrAYWrk5MmTDxw4AMDV1bVdu3b0ozVr1oyq9vHjx5llqb/YBw8eMKnZ0tKyUaNGXF79/f1ZfXTVqlVsplKpGAqj1WqrVKnCl4q8g6MxMjLy2bNnPHv2jmNubk6XaKakKT0Atra2hksPgEKhyFR6ANITIJUS1jrhJ3QZnzp1Kjo6mpOIkQkFh7i4uBQ3KDQ0dMOGDQBsbGyoqBkeXMiW7du3X758+bp16wA4OzunqCKuUql4RnNzc0qM/1LtGzlyJL26jx8/pvQM90dz0Xvx4sU7GHIA7ty5M2jQIC4vtra2rM1rZ2fHTXoiIyMnT54MgLmiADQazY0bN6jrV6tWjZ9rtVrGxfr6+n788cdsyf5fvnw50yGXW+h0Ouqgz549y4n08DaMIVMoPQChoaGGSw9AUlKS4dIDkPGKV7x4cfqO9URERJw6dYoxP/369ZP961NTqFQ9pRJz5gCApSW++w5xcf/6tnhx8PaPHIlsxVBfuHCBudyNGzcePnw4AwvKlSvHwbpw4UK+ssyZM0cf3d++fXsAn3322caNG2NiYgCMGTOGL1g//fQTY9GmTJlCLRBvo8uLFi0aFBTEWKLatWtzG4nZs2fnUBUzNTVlPoSPj8/UqVNfvnwJoEuXLuz2rFmzcnh8Ozu72bNnM1avZ8+eDCuuX78+zQne3t6cpV5eXgzufvny5cCBA/mofvbsGR/D+gXiiy++YA9TtKGqpI+1Dw0NHT16NM/OCIyCsysOrzcuLo6l0b788kt9RYzY2Fg+Na2trZlYoH/4xcfH83FoaWlZsWJFqlazZs1iTRm9QSUqKoovzQAaNGiQ11fN7o0ePZrSfgfkivQAPHv2LFPpISvDhiaKH3/8cfLkyQwzL2hPjqtXr06ZMgXAhAkTWKrm66+/ZgGRESNG6G0nWcLFxWX8+PE0zqnV6gkTJgCws7Ojxrx+/XreCGtra9ZsGjRoEFdIADt27GDSxtixY7MUIKWP36KK8A5ITExUqVS0OfXp00evEHOPr40bNzK7RV95EW/fSQCULl2aZZtOnTrFmkrff/+9PsmA2hJHXVaHXPYwNTXlbH1nc5bSA9CiRYu8kx6ysuKxP99///2DBw/oIMrqfi3vCRKrJwiCIAiCYLQUKqseAGZlenpi7FhcvgwAISGgubhxY2SrjKeebt268e1k/fr1NO/9+8w2fOWdOHGi3sZAN8eaNWucnJy+/vprACyqDKBEiRI//vgjgFGjRumtAgws6N+//4IFC+rXr88PadYeNGjQDz/8kJP+4+3bpLe3t7u7+8yZMwHMnDmTNkh3d3emE+YENze3I0eOABg3blyKNE8XF5f58+cDsLCw4Jv6t99+y11uCStbLl26lDVobt68yTz5FG2WLl0KgOl+ABITE7k9qL29ffZCpvTVdBkVl4vQX7B06VLmLc6ePdvLy4vb7AYHB/P++vr6psj8d3V11W+ROXbsWL71jho1aty4cUiWNaZSqXgoW1vbnj17Gl82WZrSAxAbG2u49ADExcVlKj0YnI53/fp1mqu/+eabYcOGMaKjZs2a2dsWOY+oW7cu50KrVq34h1KpHD9+PIBvvvkmRUltA1EqlXPnzmX9mtmzZ7MYO97ukdqvX782bdoAeP36tZ2dHYCZM2fq67mYm5uzktTo0aMLeHGfunXrfvfdd/qVhwvys2fPaFXq27cvl019+r+pqak+jvPKlSsMxVGr1fRRtE622TrNS7GxsVkdcoUISg9v13YDpQfg6tWrhksPgIErnlar/eWXXwCcOXPm4MGDfNLdvHmTTqECPhTfMSY5zwYwPhISEq5cucJV/sWLFwxKa9GiRcYFF+i3vXv3LhXBatWqpRewotVq9VtoV6lSJS+KUanVakavW1lZce+HnFdzSAH7//jxY06wNO3tUVFRd+7cAWBiYsJndurnUIo22XtQFQRev34dGhrKqLJy5cpleiGvXr16/vw51dDkeyHoYeyjWq3OkieIxVYGDx4MYO3atYXleUPpAbCwsDBcegAqVqyYK9LjG4Wnpycjvl1dXR8/fswQwOXLlxeEcL3g4GBuS1ChQoWDBw8CMDEx4dtppUqVctFdqNFoeFiVSsVwi9QubJVKdf/+fRaEq1GjhiH70CSH+9a3adOGnuh35sAlVFKfP3/OtJISJUrwRTSDFRtASEgIF/lKlSql1zI6OjpLEzZ5sZUdO3b06tUryxeTH2g0GsOlB0Cr1RouPRjg++Yd8fb2Zmz3N998U7ZsWSap/PXXXzS7FJal790gaq8gCIIgCILRImpvGlhaWrZq1SrjigOp4TuEIRVEucsqjW15hFKpTL0NQ+7CN7mMNxwsVqxYmsWWs9qmUFC8ePEsWVbs7e0zLoij30fyfSB/pRcQEMB8o5CQEFZnVavVUVFRXAQK7I2wsbHJi4oepqamNOZlgLm5eaGolpwmtCqVLVvWwMrYdAUaklFbYIdK7mJqamq49AAoFIpclJ4+h3f8+PEMyzl69GhCQgIN+YsXLxZ7XmpEIoJgDJw5c4axpM+fP1epVAypbN++vZubG4BZs2bJ8pcmLFcxceJEfbk+ptITPp8Kb1CBUDDRaDSMnD506NC9e/cYcDl//vyffvoJwIwZMwpLVdF84a+//uL+k3FxcXHJCnEwrjSva9wUUsSBKwiCIAiCYLTIi74gGANt2rRhjqSQJZhPevLkyfzuiPAeYWpqyt2D+K+QJZo2bcqMEMFwRNUTBEEoBJQrV447eimVyjSTjgsRjH4zNzen000QhDxFHLiCIAiCIAhGi9TVEwRBEN4prGx37dq1SpUqAciL2qKCIOgRVU8QBEEQBMFoEQeuIAiCIAiC0SKqniAIgiAIgtEiqp4gCIIgCILRIqqeIAiCIAiC0SKqniAIgiAIgtEiqp4gCIIgCILRIqqeIAiCIAiC0SKqniAIgiAIgtEie+BmzuvXrwHcv38/KSkJQLly5cqVKwdAqRTpCZmg0Wg8PT0BvHjx4ocffgBgbm6ez30SBEEQ3idEWUmXCxcuAJg3b96pU6cAqNVq/VfFihUDMHDgwMWLFwOws7PLpz5mh8OHDy9YsADArFmzevTokd/dMXI0Gs39+/cBvHz5kkNIVD3hHZOYmLht2zYAT58+HTp0KIAPPvggH/ujVqv5/vPXX395eXkBqFChQmJiIoBt27blYycvXry4detWAAsXLixRosQ7Prsg5B3iwBUEQRAEQTBaxKqXBhqNZv369dOmTQNgaWk5ffp0AB9//DG/9ff3P3DgAIA7d+7kYyezzcuXL//++28AL168yO++CAWUgICAVatWAWjfvn2fPn0AKBTyWmgoBU168fHxv/zyC4Dr16+3bt0a+W3V02q19+7dA3Djxg0a8wDEx8cD+OWXX/KxkwEBAXv37gUwderUgmbVCwgIALBq1aoCMqgKF8mlB6BPnz7vm/RE1UsDX1/f6dOnV6xYEYCPj0+9evWSf9u2bduJEycCiIyMLFyu21yBCmJERETlypUBWFhY5HePhNwkISEBwJw5c/bt2wcgNDSUXn650YZQMKVnZWX1xRdfAAgLC6tatWo+9iQDrKysAHzxxRcFuZP5RUJCwpw5cwDs27evgAyqQkQK6QHo0aPH+ya990uxFQRBEARBeK8Qq96/ePr0KYD58+ebmZn9+OOPAFKY9Ahtv/b29u+4e/mOVqtdv349gGXLljFbpUGDBvndKSE3CQsLA3Djxg3+b7169czMzPK1R4WJgik9CwuLzz77LL97kQm0shT8fuYLYWFhBW1QFSJSSA/AeyjAwq/qxcWhSJHcOpifnx+AO3fu9OnTp1WrVrl1WEEoLAQGBgIICwuztLQE0KRJk/ctqCUniPSEvCAwMJBvEZaWljKoskoK6eG9DHN87y5YEARBEATh/aFwWvWuXsXcuThzBgBiY1G0KAB06oSvvwaAatWyd9TExMTff/8dgEKh6NKlC9/Ls8q5c+e8vb0B+Pv7ly9fHkDPnj179+6NfxdUu3DhwpYtWwCMGDFCo9EA2LJlS3h4OICGDRuOGjUKQKlSpU6ePAlgx44dMTExLVq0AODu7p4iF0SfNfbJJ58UKVIEgI+PT2BgYJUqVdi+Zs2ahvQ8OjoagJeX15EjRwCoVCo3NzcA48aNYzLazZs3fX19T58+DSA+Pn7t2rXspI2NDYBhw4aVLl069aFUKhUANze3cePGAdDntWk0GpbUCgoKmjRpEoCTJ08eOXKE71udO3fu1atXCqFRUEePHmWRsKCgoDp16kyYMAH/9iMHBQUBWLt27dmzZwHExcWVLVsWQIcOHQYNGsROBgUFsf9nz56Ni4sDULZs2Q4dOgDQt9Fqtfv377916xaAAQMGUJ6FlKioKB8fHwAXL17U6XQA6tSp079/fwBly5aNiIjgoI2IiLh8+TKA+Ph4jv/ffvvN398fQK9evWrXrs2jXbhwYffu3QDs7e15kKpVq3JgHDt2TKvVAnB3d9e3L+xkKj0A3t7ehksPwO7du9+Z9DQazf79+wEEBQWNGDECQPHixTmbvLy8OF8mTZp0/Pjxw4cPAzA1Ne3YsSOAfv36cf56e3ufOHECgJ2dXffu3QF07drV1NSUx9dqtfSH3L17lyXxrly5cuzYMQChoaFt2rQBMHToUFtb24w7CWD//v3JO6n/luUO1q1bd+nSJQAODg6DBg0C0KtXL30pe0MmdcEhKioKgI+PT6aDCsDly5eZoWxpaZnpoALQv39/pracPn3aWKck3koPgE6nM1x6APz9/Q2XHgCtVlvYpVfYVD1fXwBwd0d09P//8M0bANi9+/+Uvz170Lp1No4dFRXFVc/a2trJySlLv1WpVCtXrgQwb948pu42adLk4cOHAAYPHsziLGvWrNErOvfu3du8eTOA8PBwPh4qVKjw6NEjAHv37uVwbN68OR/AVapUuXv37v/+9z8AFy5c2LRpEwAqWAD++ecflkTeuXNnSEgIgNKlS4eGhlLf8vX19fX1RTpBh3qePHkybNgwAOfOnePiaGNjwwLRf/zxx86dOwE8fvzYx8fnyZMnABITEw8dOgTAysqqZMmSAHr06MHFNMWh2M/Fixf/8ccf7CSFoNFoqMieOnWK0/Xhw4dlypT5559/AOzYsWPhwoUAZs6cySdKYmLiokWLeKi6desC+PDDD48dO8Zu+Pr6UhV++vTpp59+CiAkJITPJFtb25s3bwJYsGCBk5MTlcJPP/2UsurevTufQDdv3qQYnZycunTpAkCtVu/Zs4f3zsXFJYeqnkql2rVrF94maWYVExMTANWrV3d1dUVWdmrho3Ho0KEuLi4A+vbtyzvyww8/8GXDz89Pq9U+fvwYQHh4+LVr1/hD3taYmBjmrOlLiJ8/f37OnDldu3YFMH/+/NWrVwNwdnamctOlSxcO2t9++42rZJkyZbJxvSmIiIg4evQo3i7x2cDExKR69eoAXF1dc116AB4/fmy49AB07dr1nUlPo9FQNT9z5gyTN/Wq3smTJ8+cOQPg5s2bN2/e5BT29/fnlP/77785Hx89ekTF6+DBg3zRWr169ahRo/hiplarucjs3r2bJYhDQkJKlSoF4OHDh9SS//zzzw0bNmSg7bE/u3fvTt5JfnX06FEqfzqdrm3btgCCg4Op6i1cuHDGjBl0zxkyqTOFWld8fHxsbGymjU1MTIpkK3zo0qVL1IldXFwyHVQAko+rTAcVgNWrVzs7OwOwtLQ0simJVNIDYGNjY7j0AISGhhouPQDe3t65K718QFeICA3V1aunq1dPB2T0X4cOujdvdG/eZPXwISEhNWrUqFGjRsmSJW/fvp2l3+7Zs8fS0tLS0nLcuHExMTExMTE6nU6tVqvVai8vLwsLCwsLiylTpiQlJSUlJel0ui1btiiVSqVSWaZMmQsXLly4cEGn00VERERERHAtA1C9evVbt27dunWLfWvYsGHDhg3t7e1v3Lhx48YN/al37txpZmZmZmbWoEEDfftXr14NGTJkyJAhAPr379+/f//4+Hi237JlC9v//PPP/CQxMXHMmDG2tra2trb79u3TH/nkyZMnT550dHTcsGHDhg0beEUzZsyYMWOGnZ3dtWvXrl27llwIiYmJGRzK0dGRh9I37tevX79+/QB07NixY8eOr1690ul0f/75559//mlvb9+4cePGjRu/fPmS7f/3v/9RwpMmTYqPj+flhIWFtW7dunXr1r17946NjY2NjfXx8SlSpEiRIkU2bdqU4h69fPmSDdhm06ZNKdq8fPmSbfi/Go3m3Llzu3bt2rVrV2hoaJbGQ3KZDBgwYMCAAQ0aNChevHjx4sWptGUVExMTExOT5s2bh4WFhYWFGXj26OjoTp06derUqXXr1pGRkZGRkTqd7vbt27dv3y5XrpydnZ2dnd1ff/2lbx8UFFSpUqVKlSoB8PDw8PDw0Gg0+m8TEhISEhJGjhy5YsUKf39/f39/fWbSsGHDoqOjo6Ojv6ZlHXBwcAgMDAwMDMye3FJw6NAhe3t7e3v77EmPAmzevDkFmO/SowDfmfT0c83R0fHevXv37t3TvZ2tnIAAPvnkk4iICLY/f/58yZIlqa1yGeGCptPp/Pz8rK2tra2t27dvr/8wMTGRzUxMTD7//PPPP/88OjqaX127ds3JycnJycnMzGzz5s2G9Cf5h8HBwcHBwbVq1XJ2dnZ2dn706BGPkJSUNHfu3Llz51aqVCkwMNDwSZ0xXl5eCoUiS4FcTZs2bdq0qX6ZyhTeaA4qjitdZoOK44qnM2RQcVwNGzaM48rIpmRq6VGAhktPL0ADpUcB5q703j0SqycIgiAIgmC0FCoH7vXruH8/82Z//42gIADI0GWZGqVSSTeKRqPJkpctJibGy8uLAWHTp0+3trbm5/Q8DhgwgIEse/bsGTt2LIDkwXMdO3akrRhv99Jt164d65j07duX9m0Ajo6OzZs3B3Dv3r2XL1+m2Y1+/frVqFGDfxcvXpwO0MuXL//5558AQkJCqqUTxRgUFHTo0KGePXsC6NSpk/7zli1bAujcuTPDdIYNG6aPzknvOADSO1Tnzp0BnDhxgu5dPebm5u7u7njrr2E8hJOTE23vcXFxlOf27dvLlSsHYPLkyfowSkdHx/HjxwP473//SyeOUqmkJ+jcuXN04Oqd5vyDngJa7AB07949RQM9CoWCTuFcoWTJkjxj9jw+2SM8PJxVBhITEzdu3Aige/fufG3t27cvi2DXqVNH3z4gIIBiTzNVjQMvKCho/PjxTDWNjo6m72n48OH8o2rVqgxz6devH49P9O5CjsYpU6Zkqfx4586dGXbzLsk76QEIDAw0RHpqtZoBxL6+vhEREYwiGDhwIB3KuQLDYUeMGKG3MtaqVYsRLDdu3KDnVL+mubi40Eby+vVr/dzUU6xYMbbXh5c0aNCAC9GQIUP8/PwGDhyIt9EIhkCXWVBQEMNd9OYZpVLJE/n4+Fy+fJmbkhsyqTOlaNGiAJYsWUIHdMYoFApu6ZE8rDBjOEL024Rs3Lgx00HFX6WZ053moAJgY2MzfPhw/pHelAQQFRW1fft2ANbW1kOGDMmSOTO/piRSSQ+Avb193kkPQNWqVdObkgCqVKnCgZ2LszLXKVSq3vPneLuLTkYkJCA8PBuHt7GxoRv+zp07Dx8+rF+/voE/fPHixa1btz788EMAjo6OKb61srLiun/06FGOvOSqXvXq1fVhChyFFhYW1KiqVaumV61MTEy4Iut0Oj41M4WKUZs2bTiZg4OD01P17t69++rVK+Z2UKtLTmRkJOPb4uLiMg6svnv3LoD0DhUZGQmgQYMGjJjWazxFihRJvgDxkvUam1arff36NQ/OeLIURXA455OSkp4/fw7go48+YjTbxo0bGbrRqFEjBpaNGTPGwcHho48+AuDq6sqH95YtWxo1agSga9euY8aMAeDg4JDBNRYuihUrxsjRixcvcqO/adOmMR5r8uTJzP7hIsjolitXrjB+uXz58slXTMIRdeLECY1Gw+ifpKQk3jv9Owm91cl/dfv2bQ8PD9798+fP82k9ZsyYgr/TjOHSA6DVag2XHgBvb++Mpcdm33777Z49ewAw3OLLL78EsGbNGgb5jRw5MudlIzgTk89BpVLJwmO2trYVKlRI3lihUPArrVar0+kMOT7fUStVqhQcHPzmzRsA1MwyRa1WX79+HUBCQgIzt7hHJeHZw8PDg4ODmZuVK5OaN9TNzS291TKH8NorVqzIAOVp06ZlOqgAxMfHM8kvxbhKc1ABqFy5cgZTcufOnQypDAsLo4RHjRo1aNCggl+CJE3pAShdunTeSU//b5pTEsCXX365Zs0aAKtXrx45ciQKZDGXAtchQRAEQRAEIbcoVFY9a2vQypWxWUupzF5RZSsrK1qMfvvtt1OnTnXr1g2GpTqqVKr4+Hi+7KZ2cSoUChrkNBpN6qwuCwuL1G8A/CR5nZFsQC9JsWLFaLBJTN8gykwRBmjTAJkCGju5SWUG8JUo00OlOI6JiUnG2xGy/0lJSbSzjhgxIrWQLS0taZawt7enFXPt2rXMCrxy5QpfAb29vX/99VcaX7dv3866DL6+vnzzu3jxIi1V+jZGQIkSJTZs2ADAw8Pj+PHjABITE+npZoQygP/85z8KhYIRC0w4BVCrVq0MilNER0czbRxvX5QZwp8mTk5Ov/76K3MG3dzcDLRJFwQMlx6AhIQEw6UHgALMQHpMbDxw4AB95Q8fPuzfv7+HhweA/v37r1ixAkCXLl0YN5ITuFCkOQfNzMwyjtkwBC6M1tbWKpUqq3efw9LOzm7q1KlIy09qYmLi7OxMB2ihmNR0KG/YsIG38vjx44YPKgDpjavkgwpAnTp1MpiSAwcOpMPxwIEDLFBSWEhTg/PpuAAADABJREFUegDCwsLegfTSnJIAPDw8+MeKFSuYsZvzWZnrFCpVr04d8AY8e5ZRswoVkK26GAqFgkFm69at27t3Ly3/qR0xqbG1tXVwcOCmalFRUSmCPNRqNT2blpaWtBi/GzgH7t69y0U8g9CT8uXL6/umL6CQJhmv1DSSG3go1usyBMb9lC5dmqrkgAEDMo6M4XIwZ84cptBHRETQ27Vo0SIvL6/vvvuObfjtnDlzGG+xevVqFnPRt8n5Qy45MTExEydOBGBIEYfU8Hlcu3ZterIy9qTjbdykt7c39eP9+/frXbR8HG7bto1VNiZPnlykSJEXL14AuH37Nn/etGlTauRarZbxUmXLltXX63n27Nm9e/f4d7NmzZD3Gw0FBgauWrUKOavswDDQSZMmZSo9AEFBQYZLD8CLFy8Mlx4ACjAD6dFXNX78+KtXrwJg2CgjyczMzOgp5owo4HB+hYaG1qxZM0VsX8YoFAq+v2m1WsYNZ7yD0buf1FmFgwpA/fr1WemQTkYDBxUAKyurTAcVgGbNmhnrlEQq6QFYu3at4dIDcOzYsWxIL80pCaBo0aJsHx8fX2CnpDhwBUEQBEEQjJZCZdWrVg1DhgDAt9+m3YCa+NixMCB5Kk2YdzZhwoQ5c+Z89dVXALy9vfWJaSlITEzkO2KpUqXatm3LvR+OHj3K6o56bt26xf0nnJycWPs3j3jz5k3yQGm+4pw4cYInzaACcI0aNRo2bMjKqIMGDdKn8RKtVkv7Nt9paKjT6XSpk5T5w/QOxdep6OhoA4Oy9fCFr2PHjp6engD8/PxSSBhATEyMPr2AN0X/+l6iRAmGym7fvv3x48c0h1hZWSVvAGDkyJH0/D5+/JjGy9w1AGi1WjoxWXIsqz+n2B0cHAxxgcXFxU2ePBnAgQMHmKTSrl07irFZs2Ycz8ePH+dop9H3wYMHAF68eEExNmrUiGf09/fnROAbPPnnn3+YK2NjY8Oks7wOQ46Li6P0Xr9+nQ3pAVAoFIzNz1SATBuaPHmy4dID8ODBA8OlxwvJWHocfvrqmOw5c/Ojo6OZtF7Qqrmq1WqWqE3+CRfG0NDQ0aNH06qnr16bMQqFon379gCWL1++bt06AM7OzikS2FUqlUqlYqyLqanpO57UhpN8UAFwdXVt164dAFtb20wHFQBLS0smmigUikwHFQAXFxdjnZJIJT0A9vb2hksPwFdffZUN6aU5JQGcOnWKj0h3d/eCNiX1FCpVT6nEnDkAYGmJ775DXNy/vi1eHN98AwAjRyK7o5z3cuLEiQ8fPvz5558BdOzYkcUC3NzcGLcXGhrKbQ82b97MBahFixaTJk3i1kbjxo2jHfjjjz/mnlqLFy9m3tlPP/2Up9mdP/74I4/v5uZ29uxZdlutVtNvmJ7CCsDOzm727NkMsOvZs+e8efMA1K9fn49/b29vamlbt261sLCgI/jNmzesvx8XF8dNL7p160YjeYpD0QX24MED2t61Wi2TvwwvuMBZ5+7uzl2bJkyYoK+JHxMTQzV6//797M/Vq1eXLVsGYNCgQUz9A7Bjxw4AwcHBY8eO3bdvH4AVK1aw2n7yNsHBwQDGjh3LG61Wq+fPn8+rW758Oa8u2xQtWpT7nbyDYitarZaLY8mSJZmzqXecxcbGctBaW1szYY1jnhqwRqOhslKxYkU6NWbNmsXdR/S+M41Gc/Xq1dSpanlKo0aNuMq/Azja4+LiDJcegPj4eMOlh7fJy1mS3u+///7jjz8CmDx5Mmd3DsN5c52YmBhKbNGiRVwoWNMYQM2aNYcOHZpV/YOq8Pjx4+mHVavVTLa1s7NjZNX69etHjRrFG7Rs2bJMJ3V+kXxQAfjyyy8NH1QALC0tmQz+7NmzTAcVkuV05x35NSWRSnoA1q1bZ7j0AHz66ae5Ij1WXfnxxx/5ar1w4cKCNiX1iANXEARBEATBaClUVj0ArMzp6YmxY8F8mZAQVK0KAI0bI4vVMtPD2tr6hx9+YELGggULuPM3d6YCoNVqGYPZp08fJiIAqFGjBjcEnD59OreO1W9H4+LiQidCLtbjTZPOnTvTfMVSQ3RheHl5GZJj5ebmRvPYuHHjUrR3cXHhzoC8arpUypcvzz1/V65cyTKB/DyDQ/EFff78+TyOgU4cPaVLl/71118BzJo1i57c2bNn4226yZQpU5gLEhkZyYJtM2fO1PsF+KY1cuTI0aNHM1DXzs5u5syZSOY7MDc3p5939OjR+p0979+/z7pTLAtXWLCxsVm6dCmAqVOnUkpeXl58/Q0ODqad1dfXN3k4AT2VY8aMYYT42LFjaRccNWrUuHHjkCwVXafT0UoNoEuXLgXWYZFt6MRZunSp4dID4OrqmqfSu379+rx587755hsAw4YNo8egZs2a77Iid6bY2Ni0adMGwIgRI/SV3pmJv2nTJlajzRKU29y5c7nSzp49m8Z7vF2O+vXr16ZNG4YTGDKpM8bBwYHmn0yrDWSV5IOKF0K/dmxsbKaDCsDatWtZfj8uLi7TQYWC59nPIRlLD0D9+vUNlx6AcePG5Vx6nJIAvvnmG+4LcOvWLT4NC9SsJCbZ87K/P8TGxtIzGxAQQDNypUqV6MtLL/qNbvu7d+9yeUpdVDl32bVrF2PX5s+fzxiOsLCwiIgIjrls2JNZi/jx48csIppmumtERARzPCtXrpxBPfrnz5+z7nG1atUMLyifKXyO3rp1q2TJkizxmnodV6lU9+/fB/Dq1SuGDKbIQWYK8P3791+9egWgRo0ahtTHzyoqlYqrwMuXL5k19o5XAT4FQ0NDGcJSrlw5fYnRNKE0nj9/zmdemimTarWaGY4ODg4GuuRSFFs5efLku8xGzzZ5JD0AERERBkqPgUSenp4TJ06kRv748WPO9OXLlxeEh7pKpeIT1M/Pj8mhzs7OLDtgZWXF/SRyBY1Gw0mtUqnSXN/ezaTOOa9fv+aMsLCwyHRQAXj16hWX5YoVK2Y6qGBw7Ky+2MrgwYPXrl2bvz5uw0khPSQrm5wmuS695FMSgKurKx9zX3311fLly1EgVe3CcWvzEWtra2r6/NcQGMGdj3uklC1bNid1faibZqyhlihRwpAdhxwdHfNC06W2lLGEzc3NM66kxYdEAam2lXdQwzZcz2ZMZwaRnQCUSmVev8AUEPJIejD4DTAgIICRryEhIefPn+czKSoqipFGhpSoyBdMTU1ZySzXD5t8q6HUFJZJXbx48Sy9+trb2+fioCrs5K/0UkxJAGq1mhVnWrVqVWCnpMTqCYIgCIIgGC1i1RMEIQ8JDw+fMWMGs7kfP37MiJF+/frR875ixYoC6OwoCDA8dOLEifoysMnrmNBBnKnjTxBSc+bMGWY0P3/+nC7vI0eOtG/f3s3NDcCsWbMKiyf3HZPxlARQsWLFAjsl5Y4KgpCHlCpVasuWLfndi8IHs4tY60cQcpE2bdowe0bIEoV6SooDVxAEQRAEwWiRDNxCT0xMDOu1Ojg45GKWq5ArqNVqJieGh4ezWEyBtfALQrYJCwsDEBMTQ7+8fscCQRAKAqLqCULe8vDhQwCJiYl5kZMoCIIgCBkjDlxBEARBEASjRax6giAIgiAIRotY9QRBEARBEIwWUfUEQRAEQRCMFlH1BEEQBEEQjBZR9QRBEARBEIwWUfUEQRAEQRCMFlH1BEEQBEEQjBZR9QRBEARBEIwWUfUEQRAEQRCMFlH1BEEQBEEQjBZR9QRBEARBEIwWUfUEQRAEQRCMFlH1BEEQBEEQjBZR9QRBEARBEIwWUfUEQRAEQRCMFlH1BEEQBEEQjBZR9QRBEARBEIwWUfUEQRAEQRCMFlH1BEEQBEEQjBZR9QRBEARBEIwWUfUEQRAEQRCMFlH1BEEQBEEQjBZR9QRBEARBEIwWUfUEQRAEQRCMFlH1BEEQBEEQjBZR9QRBEARBEIwWUfUEQRAEQRCMFlH1BEEQBEEQjBZR9QRBEARBEIwWUfUEQRAEQRCMFlH1BEEQBEEQjBZR9QRBEARBEIwWUfUEQRAEQRCMFlH1BEEQBEEQjBZR9QRBEARBEIwWUfUEQRAEQRCMFlH1BEEQBEEQjBZR9QRBEARBEIyW/wfpKWpDoOyXLQAAAABJRU5ErkJggg==;" vertex="1" parent="1">
          <mxGeometry x="-100.50999999999999" y="410" width="361.03" height="67" as="geometry" />
        </mxCell>
        <mxCell id="ksrkDHLtkuaByw2PT24d-10" value="" style="endArrow=classic;html=1;rounded=0;exitX=0.5;exitY=1;exitDx=0;exitDy=0;entryX=0.5;entryY=0;entryDx=0;entryDy=0;" edge="1" parent="1" source="ksrkDHLtkuaByw2PT24d-1" target="ksrkDHLtkuaByw2PT24d-2">
          <mxGeometry width="50" height="50" relative="1" as="geometry">
            <mxPoint x="400" y="580" as="sourcePoint" />
            <mxPoint x="450" y="530" as="targetPoint" />
          </mxGeometry>
        </mxCell>
        <mxCell id="ksrkDHLtkuaByw2PT24d-12" value="" style="endArrow=classic;html=1;rounded=0;exitX=0.5;exitY=1;exitDx=0;exitDy=0;entryX=0.5;entryY=0;entryDx=0;entryDy=0;" edge="1" parent="1" source="ksrkDHLtkuaByw2PT24d-2" target="ksrkDHLtkuaByw2PT24d-3">
          <mxGeometry width="50" height="50" relative="1" as="geometry">
            <mxPoint x="415" y="340" as="sourcePoint" />
            <mxPoint x="415" y="370" as="targetPoint" />
          </mxGeometry>
        </mxCell>
        <mxCell id="ksrkDHLtkuaByw2PT24d-13" value="" style="endArrow=classic;html=1;rounded=0;exitX=0;exitY=0.5;exitDx=0;exitDy=0;entryX=0.644;entryY=0.022;entryDx=0;entryDy=0;entryPerimeter=0;" edge="1" parent="1" source="ksrkDHLtkuaByw2PT24d-17" target="ksrkDHLtkuaByw2PT24d-6">
          <mxGeometry width="50" height="50" relative="1" as="geometry">
            <mxPoint x="415" y="460" as="sourcePoint" />
            <mxPoint x="415" y="490" as="targetPoint" />
          </mxGeometry>
        </mxCell>
        <mxCell id="ksrkDHLtkuaByw2PT24d-14" value="" style="endArrow=classic;html=1;rounded=0;exitX=0.5;exitY=1;exitDx=0;exitDy=0;entryX=0.5;entryY=0;entryDx=0;entryDy=0;" edge="1" parent="1" source="ksrkDHLtkuaByw2PT24d-17" target="ksrkDHLtkuaByw2PT24d-5">
          <mxGeometry width="50" height="50" relative="1" as="geometry">
            <mxPoint x="373.96000000000004" y="552.01" as="sourcePoint" />
            <mxPoint x="297.96000000000004" y="651.98" as="targetPoint" />
          </mxGeometry>
        </mxCell>
        <mxCell id="ksrkDHLtkuaByw2PT24d-15" value="" style="endArrow=classic;html=1;rounded=0;exitX=0.989;exitY=0.644;exitDx=0;exitDy=0;entryX=0;entryY=0;entryDx=0;entryDy=0;exitPerimeter=0;" edge="1" parent="1" source="ksrkDHLtkuaByw2PT24d-17" target="ksrkDHLtkuaByw2PT24d-4">
          <mxGeometry width="50" height="50" relative="1" as="geometry">
            <mxPoint x="415" y="580" as="sourcePoint" />
            <mxPoint x="415" y="650" as="targetPoint" />
          </mxGeometry>
        </mxCell>
        <mxCell id="ksrkDHLtkuaByw2PT24d-16" value="" style="endArrow=classic;html=1;rounded=0;exitX=0.018;exitY=0.416;exitDx=0;exitDy=0;entryX=1;entryY=0.75;entryDx=0;entryDy=0;exitPerimeter=0;" edge="1" parent="1" source="ksrkDHLtkuaByw2PT24d-3" target="ksrkDHLtkuaByw2PT24d-7">
          <mxGeometry width="50" height="50" relative="1" as="geometry">
            <mxPoint x="446.8198051533948" y="566.8198051533948" as="sourcePoint" />
            <mxPoint x="503.1801948466052" y="663.1801948466052" as="targetPoint" />
          </mxGeometry>
        </mxCell>
        <mxCell id="ksrkDHLtkuaByw2PT24d-17" value="&lt;div&gt;Propositional&lt;/div&gt;&lt;div&gt;Logic&lt;br&gt;&lt;/div&gt;" style="ellipse;whiteSpace=wrap;html=1;aspect=fixed;" vertex="1" parent="1">
          <mxGeometry x="350" y="600" width="90" height="90" as="geometry" />
        </mxCell>
        <mxCell id="ksrkDHLtkuaByw2PT24d-18" value="" style="endArrow=classic;html=1;rounded=0;exitX=0.5;exitY=1;exitDx=0;exitDy=0;entryX=0.5;entryY=0;entryDx=0;entryDy=0;" edge="1" parent="1" source="ksrkDHLtkuaByw2PT24d-3" target="ksrkDHLtkuaByw2PT24d-17">
          <mxGeometry width="50" height="50" relative="1" as="geometry">
            <mxPoint x="373.96000000000004" y="552.01" as="sourcePoint" />
            <mxPoint x="297.96000000000004" y="651.98" as="targetPoint" />
          </mxGeometry>
        </mxCell>
        <mxCell id="ksrkDHLtkuaByw2PT24d-19" value="&lt;div&gt;BNF &lt;br&gt;&lt;/div&gt;&lt;div&gt;(Bachus-Naur form)&lt;br&gt;&lt;/div&gt;&lt;div&gt;&lt;br&gt;&lt;/div&gt;" style="ellipse;whiteSpace=wrap;html=1;aspect=fixed;fillColor=#f8cecc;strokeColor=#b85450;" vertex="1" parent="1">
          <mxGeometry x="35" y="660" width="90" height="90" as="geometry" />
        </mxCell>
        <mxCell id="ksrkDHLtkuaByw2PT24d-20" value="" style="shape=image;verticalLabelPosition=bottom;labelBackgroundColor=default;verticalAlign=top;aspect=fixed;imageAspect=0;image=data:image/png,iVBORw0KGgoAAAANSUhEUgAABKAAAAIYCAIAAADVcgPJAAAACXBIWXMAAA7EAAAOxAGVKw4bAAAgAElEQVR4nOydK3jieNv/b/7Xe13Jq5JHJY8ir4JV8CiyiqyCVWQVrCKryqqyqozDNavKo2BVGVVGlVFkVFNVqkoVVDVVUAUoguIvcoaEM22HuT9mOm2S3/nw/R3uOzSbzQBBEARBEARBEAT5/vl/7x0BBEEQBEEQBEEQZD+gwEMQBEEQBEEQBDkSUOAhCIIgCIIgCIIcCSjwEARBEARBEARBjgQUeAiCIAiCIAiCIEcCCjwEQRAEQRAEQZAjAQUegiAIgiAIgiDIkYACD0EQBEEQBEEQ5EhAgYcgCIIgCIIgCHIkoMBDEARBEARBEAQ5ElDgIQiCIAiCIAiCHAko8BAEQRAEQRAEQY4EFHgIgiAIgiAIgiBHAgo8BEEQBEEQBEGQIwEFHvJhGPUapZwQZWkyFCJplounpVp79N6xQhAEQQDaxSgdCoVImpc77x0X5G0YtetFkbdH5SifLjR6+nvH6v0YqPWKLFdqqvbeMTkYZhLr2ydx1JQ4MhQKkWy6vvVHkN35n/eOAIIAAMCgKQm5z09T6//j15fHb5//1IWcKtHvGTEEQRAEdE3TxgAwHfd6g/eODPIGaHWR/+Prq/3/8evT/bcnqZwWGyL5jvF6N0aNgvjH1zEAlWFzAneUMxO9XSv+9WUMQClkT8mxW3xiNOi9TAFg+trrDAC4PccQWZcfaQdv0GlWirl0PMrSpLlHFOWFXEGuq9oPvCL1IRg1CpKj7ggmHA4zBAAA6Fg0CHIIBkohzpKhEMnyJfWH3SnXGrkoTYZCJCdUOm/b2XQqAhvywxib0lIJh6Y3oVdLc6SZ9ZxQVFap10EjZ2xQcLnmETccrSYVHHXnGpV/2Dqp1eWvYwAAJlcU59WdrhbjdGB7jgtiQW60B0vzbqTYnyDpeK62skPqyHFjazXuu6ce2MN4oT3VmEwXc2EAgPE3ud5bmSfIFvTqotXjhEg2Kh5sn3P2IzDpXp0mTcHgDxHJnN/03zuePyzP1YRVEuHs1fPE+O3k+eb6DgsFQQ7B8Cpld4lUvvXe0Xknni/srgfCpw/vFXQwTPKs9UE6wclVhjjG+jJfEESy+rzihZj5aOxi+ZPfMw9nEStDYqd2HRx2W62H4btG7N24Ow0bGRI58+kpHqy/LoMIpy7uArOvlac8T4dPbiZLY9TKWi0y69Mi1+thACB23vW82D03KzizKgL+OBO68OndFu8fOf3LlLecqfzNYUL6AXbwtIYUj//+39vX6ZKHpk9fP/0SFxsf6+BJryLQxkJhQflQi2Z7jpjeVszlJyJZruQ48/AHyQkiv80BAQRBVqLD1PXz4p+VgnmPQqgtW8cdNETWeO6j9Z/roQf8/JZBExTjQBHutcjX279FofDj7rC+Cd5yn96WSse8M7ceg7b6ZPxEiWU5bQ3EdDSdjh/l0cRV6Eql8QIAADFJivv83flxrj27Hpq+fPtLSMtBW3Nzv375p1jZaQ9tvQ6Nika986xoTjIU2mujovzwLWHPjJRS6dv4bcI6doE3aOSE311n/8LJ/PlV6+6h+9zvP3cfbq6rZ9mEtbf3qtQ/1jg66vXGUwCYvvQGxxwxTdPMEuL4OCo6BHkDaCGXYQAAgAjnJH7h7+57FMsa+UjTXo3nNO1D9VJrwQlSwlhNpWK5nM+07S2gcs2Bw0jXJ/2H6/NM2ByYpk//SOX2h1riO3LGX0o/vBmZXkczf4oL/A954c7LqFlrGudVE1IuuvTRSFH1tOfZ5Pnu6izJmH+e3pelpWtmLh7l0j6WzYjs9ZKduFFj/rwpJ5oKb6zUcK1jr3Tk4udXAAAqkYysenhXjlvg9Sqi9OXF/A+VOLvRNLVeyqX5eJRjWS5qHYvW7qrZCAGwbI8PORwjWyXSHOo7BHkTOKk5mEyGw4mu1dI/5Jo8AEC82B5NhsPhZNSRP8w8lmTjYqnZrmesOeFLvaaiwjs4sWTSPDv1VCnVv8f96P2hj8xRmaDpH7Z3cBgpdcWYIMbENLfhyyTH52S1XbVq1/SxUlu6gMAkrcn/+GtJ3sfiDrlZ38alc4bCm6r15o/dEPaKVitWngAAiES5spUBm404ZoE3qBfL96ZmIxLnqioLAfnJ8oVGp3d9fl4UsCd7B3TbkspHmWAhyA8BSdI0NjqS/pC5wObKkrXGO26raO/g4NC5UsHM8em3cvmH1tQu82YbioNjZKTUVWMyGUmLy/fvAuGkcs5esWkvd0IQLZYzphp8qZXewdcAlxaNe3jTdn2l1SFkPUbNUvl2CgAQKdQK3OGb1fEKPL0tl62DrkRCbpTiy3OT5MRSKY37RwiCIMhHIC7w1m38gYazrIOjQ7RYtgwgvNRLNe1do4N8FHS10Tb0HSOkt9R3AGRcsA+Br2jPOi2W7bWG23L57Y0wRAXeUKPTdvNjXV36XtHb5eKXVwAAJlsprxAk++HjCbxRT23Ua5VavaH2dqhVulqrW4czw5Jc4HaJkz5o12XJ8vYZshx+rrJirRYNIwWOBdtBu+5y5c3F05LcXHAaqqsF07Ttz/9YNopv//i326xttNj2DXHUacoFJ54kzUZ5sVBpLuZkr8Kbz7DpgOPgekcWWDIUCoXodE3bLWK+31cl83O/OJ/70/U5VnJWUHsyTxtWXYzf6b1GSYybGRn1t2y9fm74xU5Ta6WcEOdokgzZjtdL9RV2jld+VakVc0KUo8lQIGzO3ZvP16JRp15IR02zFtH03PGNkabW5UJOiEc5I9kkyXJxQSwuS/aomWPJUChEC9aEZtRrViQhztFkiCRpjhcLNXUuh3VNrRXScc6pyxUluDUstAXrdXbJ64N2vSjy5iNsVMj5tJb5pPSUeqkgutJPs1w8nSvWljRVrZ6mQ6EQyZrWonVNkXO8UUY0x0sNzRtEs2JXK9KsVXKjvfb8W6sJRukv8RfdkQ1z2SQnBV5y7xhtIhSiJVeF2aClqH5+q+3Y/fuPW/NXr//87DGqnW4MADpy1Hjup0+P5nOPn37y1GPJd1ayRcuaLyCAUU+pONWHjfJisb5+Cbhx+eRdnM7PZybAqNOQzZZhVspSY+kVxd0gnc2TwPnAVnXe/XqzUswJcY41W3uUT0srDbqbDNqN1SOajVOrC4GbY5ZtnxDNB9iX2LkBLkEHNifbE+t7eWtjK/qg06yVpDQf51i7ohuThuCc1c1uMhRg9R4A3EaN0guHSDcbLPwYNUTTTv9vX83jT9Ovv7mH+NJizLabIG3UU73N8BGErjZVY7eA4NOL15XXhiTJZcbcXQGCTsZL9ibea6O0m7GVbYinBSOyU7W58yFRXVNrRbvR0lw8Xais7J426dnaRc6oen79uButbrSfEMlXfB48zMQPAKBXK9ZeAACIpFx5qzsRhzHOuR3Duwv7XjkAABDhzBKTssuYuOzN+pq0XZvnlnM51o9gK9a2UWkq25rNJt2rfIzy+QARzlx23Rdg+9XkqlIjMlfzV2YnD8Y9Qn+oxOn1s+f57nnMeppKXfqkoHuRMB+wrEZvF7FAVn8uWbXjdWOVZ+pyOOu3TuaSysyZmd00N+ZitqzMiXDmYisz0cO7i9SymuSQcNne9tai56vsnClmp3Y/t85S4WXDB5M8929NtlHj8OmdEU+/71Cxsxvz9eFDNeP3CBE58W8Mc23h4dK3dIhI/tp8fdK9yvs+Es5ePfuFsNoXChHOVLu+tdO2Bx67eJ4N784T3nbqqtT9m7OEXyMGAKASF12/ry/G9DprfSOob3IslAOVbfk3KecZz1fWbyn+Vu/vTlZW0sjZw2xynVk5VUlU5yvDli3LU0Cz/s25f0OiEnYNXZ+lFr09mTl5vj71L30mdfGwuTVxx9h+oJVsp4ggcr5Yu3ao88b7z1cnvoOS9a43Vd4KM+kGvLwwotk4o3LqMqighpfWsDDfqc9me2qA8zgFYfS8w+vM8tnDcjcJw4dqPrGsERGRvH8nNrE9l/havTewTdgvxm39wSKQ7vkKww9ExmuuY/sJ0hY91eGGj+U4fe0Svxi2E4XgfO47/qCSC53jbDZrWSOD2SM7ZQ1U5sqnyaxyk2C9TgTXp2AcLwubOjvwdqrDoNmYq8Tm2Lxnc2Xt0mruJIrKXM/l6GEmfua3r6xOJXZuRq9vd3UHc5PwcQTe5OE84VsHYmd3m4+dLpckOzjimHSrczMJgnL54LZhMn69hqtXulqYNHqJnLrT+HCRikUikUgkbL9DMOGIQyxT9Y5kw7uzmCtOVCSRTGVSqUTEHdNw1tOYJnendlfOZOer+vOldR+YSNgzi80jtpSH82Rk2eeS5047dQaD6o1PRWFObnbLDVfKrzKuMieYWDKVyaSSsbCrAInE+aYTuu5F0pXKSDKTzWYzyYi7VlCRRCKRSCYzVVf/5K5FN6eL3aTVmfWrSc/aCBOOxBKJWCTsMdJMZa58Uu0SeNcL4yzMv95vncSCH/H3IeVJxbK2QCR8NZbnkdiZT+a7JBEAAMVEYmb63b8O51s+XbSjH85b8x5qwDWlcdY8jDJMZbKZjFMziNSaqxtDZ9ruP1/w+C/y1G2/Z7w93PotxV/g9a/zCaNVOs2FcjfySOL0ZjibPV9mrM7Aeo7wPuduv7PZLi3LVUA3V/ll3qao1KVfhi5hTYFXvZsfC+bydaELXR3ySoE3dJYC/IaxXer8bDZ7vlwc3bw23edCdVWYzPl5cv0RzWJXgbevBjifEQt6bcXy51KBd+NZISGocCQWS8RintEHiIjftGaPAm/pYLGEyc2p0fxd8SUY9xDvamC7TZC26KkONnwsp3+Z9Okp51kt8JzvLHieM3AEnln+w1bWzmC/NnVQgeeqyokVniHnA3Y61fz5aeAaEnimly626dlcM6DIWeA0NFjfHWjiZzC5OTErh8u14Y8k8J4vfOUdAAAR23hhbnhp+/DdZE/Ji1sBAZU4ubx5tr806T9cucU+4bN46BoOzVGTCKfOrh76k9lsNnm+ca9qEL4NyFlMT/rtsdmpvbY7ASKSrXp2aYbdq7xrrPJM7yc3zlwpfOLuPIbXdl2P+HWHa0ZsXZx+xHdZazZzDQZM2HyWSZxUr2/u7lpXF6f5M0etbZsbBq6RnUmetZ5daZ94dg78ZzBBOJ0PEclfub466TrLrJSfNrJrEWGnPJw6u2zd3d21ri5O8ufmnoWx8kowyfzF9Z072rPJc+vMmYz5jT12d0xYNZWK5as3z8PZbDbsts5dFT2cTJm1lohkL4xHJs83Fxln1s3kF7ecfNpCJHvR6vq8TiVS5vBMhFPn193hZDab9O8uXSuyRGpxMdOoQ0Q4dVK9NpqYxbB75ShSIuGjqOzhhLKmJlQsf3F9c3d3c109y59cdmcz97q+2++vUbx3V6epcNgn4f44/RPhV+PdLsgDisw1V5jzRbt+S1nht9oZfpiTZWtkzoTTf9LiPLZ1y7ILiKCsCVAsf9HqDiez2Wz4cO3uipn8Zq551xN4lBUwkzi5vDOqff/u8sQ1k9z4pMgqgTe8ObE9TftV253qvLs8gEqcXN5ZH5gMH1oX5mkT7+jp2k+0Pr3ZiLabwNtjA/Tio9cmN3m7SnnHxoAXbMytbSqSOb00OjgnAXeuHPLrxPYm8FYMFmthb9ETmWvfB3adIG3VUx1o+FiOS+gscWy/SuD1nZmJ/0Krj8CbzZ6r9szYZ7A4rMBzdsWWCVsfnE7VzvRI5tzspIbdlqfEfLYmt+rZ1lF4Ln3ndRxxoInf/Nc9Bf8DCbzFCuFmyba4P64FgPDplgc0PYt4/udc+i7NTy2s4M4Nh9TiATln19a/51hLR02cfiVgFdkVzbmexy2GnNmZS/iFT3xnS+8o8MyU+i4JznbLjdms70y8/ZdqJg/25qD/kQl/PGPy4uFae5z0GRjmJ1WRfMCBl+fW5dVdUGG4Dh35zMLnWt/CCSvPSG7k7cKZNHdzWZxnzaWCSS553fzIwnG7vrO55jNET7rXl9eBJyienb7fp4rNrxcuxG42m7kn+1vOI91psXPcLyktb2X3K7KhW5x5YrNuS3lbgbdby/IWEBFZOGc1uXOdad1M4a0n8IyA53XFbDZsOYtkmyq8QIE3GfYfrs8z9pSUCdiW3KHOD52hJ6BA+jfnqXAkYAfPbCebjmi7Cbx9NkAPvnrNtduyIFaX7uANH67mlZ2LhzNnzr3gmmxvAs96IGiwWIdVAm/nCdI2PZXx5P6Hj6U4l0mWupMLFHiT4fPdlev+RODpIUfguQTZ5O7E7mIWVq8OK/Cc+CxVtj4Be2cUzPxhb89m/N5Gc1eT9TvQ7omXV98dauJnf91cc/Auc/xAAs9pG34EHFIKxrX8tlnFtJk4ooPwvaJm4B4n58csd68UtLXrpNvvqs06Osq50OO7I2XgHKyfX9pwd3vGBpJrrhR47Oh9BR4RvIiyW264hs7AZQHXMnJmme9Qzzt2Q/afAjvz18V5j2ds81sHXQ/nypTPGOXujv3PuHk6bCrhJ4Bc206LqVzdFoaedMZOfW4LTlp2s9743LUzRvuoFY9+CDrR5uTgbpd6DVyT+4WGb3UK9nbVYrNwNCA1XwvXbCmzNxV4O7YsdwEFzI5chzY2Ww9cV+ARkRPf/Q+nJJeoFv+QnTeDYRKnrU2S42JJnfcsdq9dm3ce0XYSePttgG789Zpr4Q2YrKdTWH4HbznO6OPXTe5R4G0/WBgsF3h7mCBt01O9y/Dh1Oml2wXLJ7HWF1LnN8FTJj+BN5v1r5xJ2lyhrivwAIhAqGRgRek6c8GN5uDeGYXvvZ1Ja+nx86UE9Wz9yyVzkNls1rd3Q72d06EmfsaLdr0Lz9XxNxB4H8WKJs0uMyqzsaNNfWcfLp1G07TsSOWKwf4IabEgmsU+bStBlsGIZK3p76aBTwvm62NN28Zel642FdO8kyAFenmICoJZx7SO1+QbK1XKZqWf3paKjUHPcsQIVEquiB/PLyARKzaCPBLvlhua0jTtAUZEKb74HgAA0Lxo/mnaUZf6KnUY9Ex7YEQ0yvn8nbN/OxotqQREstIobmmimWQtF/LTwSjYHBSVrTcknyhyvGD19FSq1iz6VGaat81H2+n1Iagt0HzazvKE3KzwizWP5G0j0wNtHfuALliONbv2pVkM4ZN6gIEr0u6jnpqNnY2Kcem0maFjtem1PNtTVcPWllAqmMPkgp3qjmPULScEdXDLWsrbsr+WFT5t1EW/hk0Ldv0ZdLStYxpIrNys+XpJ5QTBmtdpvf0H/HpfLxZLW5n/C67zI6VpGn2HWKEQVCBLOOCIFsh+G+Aa4cXLsm3F8EspwNb0xrAsZ/40GhzQ+Pwug8U67HeCtHZP9R7Dh+54NGC5XSdEL2qlWJSX2Jv2gc3JJVOBTO/L5e0Mu04DGXfaWsBLtDVrgNFgOyuSVLbeKPjVQ5IXebN72ttozoo50/AnPDaaCw120Gx0TF8XouQaNg828QMAvSMXP9uuEd58NP4oAi+aFoJXP8JpcYsxyELfpl5q7Y7ZfRF8elmpkLxgVdNxpx0wBpAcG9QDOn/Rl048AyOqtk1nf1E+Htz50M70ft79SrRQK1pzza9FPl0ynMMTSbkmfUS3gEIx2KXhTrmh2+2WiPPBQyNLs3a/tHGf5/+8rltFTy5ZjqDEkp/22oLgWNNswEoLG7XqQmBlZlm719WDq3Lg6xzLWSvGthhdjJ01WRht3KydnF3yZqxQ9J3FAwDwOdHso57+TguFxi5eXACiubT5tVel6R4vBm3F6EZ4MSfZvmabnrlRp2loQCD4XGB8l7aUN2WPLYvl2IAkuQb9JdVva4LqJABrL8/oS5ZOlkMxbus0kbDb1sn46evfv8XjUnNzNwBBdb7TNic6EBZ4bov4HnBEC2a/DXANaFEuWwezHuViYz+OCJ0yOaBI3d9g4c9+J0jr91TvMXyMBqOp9Yk1txq81qbC7vY8fX388unXOF/axLdcvCBbl2nGX0pyZ681h4gG9gE0TZsRnw5GW1X/wBkF0LZa3t9oTotSsMIbNG1fhmm3vjvkxE+rm/slRLIsv8N2yUcReBAvVRxzQR6YjFza1PMISdvFt90ymdaxKgcXjy4tFjpqL+oMBlsMwXb13252oGma+dOcEyovjq+q0UIwZLxcs055v768GPIuVq7s5Dtw0JTi0QD4UqATpHVYMhLslBtaT7Mc/3z57X+D3/7ti9Xdr9stsVFz8Jl2VJ8hTm9bv2Wi0aB5EwCQy5JuM+ooNcN3DEu7vO39/N+X1e8uCXu1Ax9yLQm11vvrBBEQhj5oNyslSRRs/1MGv34e7xgHUihXLIM44/t/fv+Ji6YLFWXbaWZcTJsd3ouqOLVCbzeNyXeEF7iotTs0VhXXNp+mqk/mR3LC0grzMThcy3JBOmWnb1cBt8QZbLYOlxIbPTfaYKRPht1WNW8ZcZk+fc6JQa6wNq3zo4G9t8b5HinYhV1HtCVf3qgB9mpi4AiUrqy5BB8tVCQrxG+l8kb7hrqmNirFnMsTXigUCoX+9fu3DT6yNesNFluz5wnSHuK6n+HDD+c8GLFGIAAAkULT05y1wUif9B+uz20bO+PHv8XcghvDYOi0bJ20gqdKsa6tH30j5kvu4OntwK1ed47tuTUfZjSn01I6QOENFFvfiZJ7TeJww9OoWSrfGqN5sXLQBZcgPozAA1asq4vOtZhUVWkEHwAI/JizhrPFNguA7hxjW354FABozjWgveXEAmDVeTM//NagSEGuZCnXL8JSpbjDpikA9BTl8SmA+2bgkYDd2C039E2XAsh1Tw7TgnUa4aVRnl8H1juVctPorpi0uIMTVQBNKaU59j+//vn3P19vH59ex+Pp6peOB73XKPDcv3/+7a+/P3+9fXx5HU/3m35WbKguV2jjp2///PXrTywnFGpbeFnmxbT5pcemqlm/bSvGJjQjpKMAcdE8Teze5huo1s+xXJrbIh1vzeFalvetLd7ZD6vWPraBpKPpQr3dsX0ZTO/LpcZ8Rm5V5/WRtSVBbJfT78UGDVBfNgJ9a67bXkmhXLauK77U151Yjzo1Kc7+3y+///XfL9/uD9ATvTffzQRpH+x+4QcAgGTjYqnRadsuHMbfSuUNVro5qVIw1xqmt2XnzcP2es46wf6PRSyP+ZajOZ3O2cOqR+ENlLqt73KePedDDU96u1z8YpzOzFfe6TDN/7xHoAGQ0UKzl1YbtYbSG+gkGxXEgpTmtskXLsoR8DgFABj3Ohqkg1YoAtluD+Lt5xg6WLWeSZ1IS44lAgBN03RU9FtI0LV2x70k8qIqHV3Y5cAwF+UIePVvkVQ08LjTjuyUG06RE7FsccXMmaZZVsil18whTipL8i//vAC8fpV4cVAr54Q4CyOto1RKxf8+mrumxdK6H/RBq6f5P76Z52aAiiQFPh6N2ifaes3yP7frbGJ9p+gdWRA+3ZspJJiYIPBRjrPT36mXPj/uPsvixEpbKzTrsiw37o36PX25/efPn+u1k4ZS870eFgApiGnq85cxAHSa6qgg0QDQUdRXAABKSPMAQPKiYDzzoio9iEcBYKRaF6gi6e9C3x2yZR09nFQv17k/b6cAMFbqzVFOsru1beu8e8J6yLgfgnUbIMlFOfj65P8Rhlv/LhWbqxTl//z9BMYFKEWqr6ibI7XIp//7ZEloJiYIfDzOsaY20Nu1T18C4vUd8b1MkPaNvlubIeOleqH+099PAACvjbpaEdbt6ki+JGfqv38dA8Bro1Qrt4vcDjFZF1tIvuVK0A6jOZ2WBOrr1zEYCq9UMub+zv5d2HP/Dg42PA0apdoLAACVkmX/e/2H5yMJPAAAkhMkWZB2/kxciMJX4xxeT1EHpWUn3/zed2rzyiOeI/u4C02/+Z01kiYJMFQNKxTl0na3qnuVQsU75DxVChWps+XnAAC4Ylsvbv32luyWG7RzuycqyXJ6r1GjOZqAlykATF++/vXr17/mH2BStcYO+a3VpIKp7qjEWaNRnl8ZaWuVYxZ4nXLOGg+Y1EWzXuTn2qLSKe9D4AEA0FGxWBeLlZ5Sr8iV+q1RrI//5NJ0uy2vv1JHCqJAfPk6Ne/YSSJpH74k4ubFFlJI88SXb1OAR7Mf09uKao5U6dwBrSjskYO2rKOHTYtxuL0HAJh22j2QrF3+reu8c6h0OhqNAD7iVetlrNUA43JvJu8jNDJekrO1374YE+tyrZxeNrDpakky1R0Rztaatfl1xlFDWUPgffCdru9mgrQPPEcJdxR4ABDNiZG/DYU37my0+8Dm5JL89dMjAEzv5bJSqB+6K3VtXq55OnUv7DSa02kpTX39Yig8RStFOQAYKQ3V1ndzx6QOMzzpbcVUlONvf/w79MfSh8effwl9BgAAKlntqDvdjvLwcY5o7hdOsIzUwfS21tA2ft++yqv1llv4GfV61q5JNM5tGs6uOMYRYcF6yrpotULZMKxCJc/PTYO808dyoabtIYZvyW654Zg3W7REsxt6p5z79DgFgHAsRi38mQinzlptRdphtt5rVIyz3kBlaoq83b73d4xaq5tzJiZfby6MBweBjqaLNbXXu7Z86E4fK6WNLJw5R3fHalPVAUZtxTh8GU1bd+towbIwZZrStA1oMuncbseo34zDtawfAsd8jMsc0y513rE2cRDDn8G4rknu4bDe7g1w3YDEsm1q+l4uK6PgSb6uVBrmZedIsdlYcYpkgTkp8XH5XiZI+8C5xzFdtGCwBa4LRJt+L1qQLZv7r41yracfeEvUOczttmtxaHYczUnXKc16UwMAGDUdfZebvwZzoOFpuwa8xKTpNhyrwIO4JNpObB7ljbt9jo9b1oPabvMGC+iqYt2NifAHnFcGVZYoHzUj+treyjr4oFEo3ZpHBEu1Uqnm9ZqwdcTehZ1yg45GLUuuHXWfdqp0Ra49AQAwJ/V2Z/B8d109Pzs5OTk5PTuvXt90B5oi73bWTnd6BRfAfpwAACAASURBVF58r9MA78igZ9l0o4RgtwEHgeTEerNsGbHexIAyALC2RhurSsdZ9AsLAmc9wwkeU5q2AU1mJ9vCG7Jeawh66mAt68fA34rfDnWedMzmvbQPdB/aF9oWMFqgJ5XBhjdidmqA6xItyJaxlddGecnKZ6/dM49JbGP7m7Rn0cFTTX2wX+8T2/HhJkgHhGZpaz1ktA8B4DIVsPIC40Jc0vad0Om9LCsHVnhOYyTYN7utu/NoTqYl1z08bfn+3aGGJzIuxBmKCnY/SBCE6+626ZKQMu7e742jFXgQLZZsp4evXwrSyl28UbtWqlvFSwtpy7jva6MWLA+1eqVpd+h7X1B3FjwDzYc43jngsVbbeHAbNYvFb0YCwoVaMQrAebwmlBTfcNeI2LuwW27YFi1grCwp843pWc4b4nycBJLjxUJJrtVqtYpcKojCciNka6Hrum01wf8kxWjTedN3hWshNCD9G7va2YRo1FpX2HTdnU2b6g1elGanoxibc5Tj0w0APKY0e5YBTUoQD6xkHcOpo6ULza7OIGjqeaiW9UMwUGxHiUTUMeO9S53neNsr0f2SflIfrNid2RTW3sJ5aTt2hVyM1IJYfvT5w3K2b4DrQgrlcsqaWFfKSlAoTvhBR9qWbhI4Rk07atuvnQyakvTPTvaQ98PHmCC9Ea6DQVsYSp/H8boGVHzDu0MAwElyYa21hn3gCFqWDfJPs/9Adx7NSUESzQHnvtHUHH0Xyfn5uTvM8BQttgejkb4EreY4Old0Xdf10WjQ3Nym5BKOV+ABK1VsJzbw+vV3Qaz4dpkAMOrUCzz3859/VxTNejtXsBYBxl8KBd+tLL1XkczdLyCSpR3tTvrguJns+Xf3AMCJBUvIPlWk0lJDzgv+btWiaebH5YWRjJcq9jGAz0Vf09DrROxd2CU3gBQKOcsm9teitHT7Ut/gcIX9YLte38Zh8WpcHn7a6mKiR205LX053gt4rkNs47ayOF8dKAWheLvjBbxBu6kGDCuOW7GNrc47Ds+flErN9HA+51nKZUqzJpsGNImD6zug7bsJ0/ayfRGatXwlvQYdLzlUy/oB0BqF0jezdlFpydme36nO81LOOuDyVCn4+dXSew0pzsULC3Y7d4GNxm1hWZHnHYENlKKQ/ucpKM6HaYBrw0qytfL5evstSIQ6WkBTfRqD1silPy0RsFw8anXkX+WFYtEakpD78gHkHXyQCdIbwVlujmCs7biFp/dqUvne/A8zb+5jLUi+JGesizTfbl9XPL4LI83xpxJ/s/veexjNSSGXthVerVZXTH0n+q4xHPHwdMQCDyBaalRS9pWnl69//cxF0wW5rrQ7PU3Tep222qyVJIFj//PHP/dz8186J5csffj65fe4UGy0HYcLo55Sk3j+L9Nsxc5u4/xxdfffysWmMbrpWrvZcFl5ZnNyMWbdQfhbiOcq88OgPugotaIYZ//F5urOoKq3y4XPpr/kpOzywkin5YrZg8BTreDjM2itiL0LW+cGAADwJTljaduvv8eFYqPjTY8+6qkNWRI4+l/x0rKTKW7iounTenz7108sF+cFL2kxJxXlurqD414+LZgF8lovFJquJA/atRzvGKQ6TmhejDu6vqg6haZrqpyO/xo8bVyXQbP02y9RTijUvI63Rr2GlLNMFEXSG5+vsCsHPH7+bEz94mnes6lL8qJZui9fPpvHqYU3OIkbtcf0l3pJNhdyRj2loXiWKWjnas29XKwZuaMPOs2Ga5PmMC3rmNEHHaVW4OO/f7U8SsdK5ZxT6LvV+XixbHXx0/tPAi/VlJ4xvOmjnlovCtH475+fptM9O43nnZsTL/+I6WLDqi3telGI//rfxykA4XLy7uJQDXB94iU5u3iD2gsnCGYCp/clyb2krGvNkhD/fbk+c209wOPfaVFWrLFVrUnx+O+fn6YAlH8GvTEfYYL0RtCOe9rt76zqg06zkuP5Py1TZ1SyXN5ukY7NyaXYltHYCK1jeYhjons4aLQm+xjNSUGyFV6lbK6QRSS//TuAYx6eAr0fHgmTh4uUvwP1RZhUtet5+fly/l2CYhiGmetgw9mrZ7+grzLmc1Q+0Mvk80XC/Erk7GHxEzd5xhu8ETSRuZ64n+tW5yJKMJFYLJGIxSJhT2ST1b71zsOZ1T0TsfPufMjPF5ZbTSCS1YXkrRux9bg5YRbjN/dI3hpaU1fDFZ/bJjdshjenEU/xElQ4EkskErFImHH/gTm5WTuBw7vz5KqpAQBQsfxldy7/1qpFs9nEKU4AACqSSGUyqUTEijIRTiZNIZG8nE/1c9WqhOHTu4AUXFk7o8HpvrZiSmSu56O3RipaVhEHV6LgijK8ObH2BgCAYGLJVCaVTIStXCdiyYTxLpGdj9zs4cyadSYungNi168mne9T4VgimUwmYhF3fQrnW6uq5vJEGfh0BMPLlLdOBraTTVrKykJxdQIARiMn/GLo5J/9nE8h7dCy1imgdeqPbyKXVf51MnOdpuEf8oUzSwu+nGFlSubyeT7gXer8bNa/zq4cGcMnN66s3MOINhsuhOpJLZOq3lgtjcm7s/NwDdBVELHg6jWbzWazrrdF+L3Qv8q4unoiHEtmMqlkzPbwSyWSZk/NnPh1ts/V+aHCc1UnnL1qncUCMnjNwWI9lnTndlx3miDtsaea7Th8rGBoh7/szbtTpzmuas9EJH/t86GWtYKwzDH5bDabDVveCRhQfi84FXvV9/wDsXs2YvWsyxvw6hnFbPZg59deR3OTyfy4Cj7TXE+YB5j4Lad/6RzR3Nc35zjqHTwAADJeVDp3F9nI8vk1k8hX7zpKwbv8x0nN9vVJwvXqdPz6+vrq+I8mwqnzm3Yjx+010jakINeyrqo+NV1Xzx9Njhaa7evThFOhp69Pj4/394+PTy9OZKlYvpA2l6J6lULFtDMblirFhWVP11W86W1p4QTGuhF7FzbPDRe0UGmrFxmnrU/HL0+P9/f3j08vjl8/gkkWF2/rBkLH02J8tcIbP37+Q8itYdlmETIuN+t5O9bjp/tvX79+u396nQIQTOpcadf3erb7o0ELFaWasWZR09fH229fv93ev4wBgAhnLlS1Iuy0BMmKRVf2vjze397e3j8+WfWJiuWv1PpWu2qOw3MAAGA8F/AM6DmDDXHRp+buH65QK7t6v+nY9DVLzpkGiJdq7sHR6gzm7oMepGV93zjZM53D/RQRTp3fdJoLDkx3rPOsWG9f5X2s+ppQiZMrpbLvg8C0WG96V7vs1FKJ0+u2UgjwM3K4BrgB0UKl4JkGLsaVzdWV86Q1+ExfHm+/fv12+/gyNSJ52VbKSz2pcIVm8zTmzSDzByZ1rrQbufV9+B2ad58gvRE0L1gzpE470AyHu1SXtWcqkq2q7fomPlMXY5SWXafT5kPfEz3VOvkcFTY0B7sb+xjNSSEnehReLCcu290/0uHpMLrxAzJ5vrk8P8kkY2FzGZogqHAskcmfVVsPK9aPuq3qaTYVC1srUwQVjiQyJ+dXd0vXgawlASp27rOUaTC8zjIEABBMamFjxXrk7vI0kzD3nggqHEudXs3v8zhpPMunEhE7ogTFRGLJ7Ml59fqh73qne2GOsVTkJGjVc3JzGjMDZbLXPg+tH7EVWLEhwvlWwPsP5wnzEc+a8jLWzw0/hg/XF6fZpLvQmXAskcqfXlzddDdbKH6+tPpiInZ6M1/Mk363Vc07+2+MN4Xr1CJXkqun2aSRYoJiwonMyUXLKBOzpvnlsVUJgUotbtaaX745MfpbKnERtA52d2bElIicLW6FrE7Fw7kxrSEigYt+3YvE0ooy6bYuTjIJO/2RRPa0evM8mc3sQvCL3PNlymyEvvXcwaoUEYYiCKMLiSQzJ+dXK3qQ5UzuzmLmGiHBJM7u/FL2fJW11i+JcMZ3Qdxkg5ayTtWaPLfO82aNAoJiIsnsxY1Paifdq7OstWNMUOFY6qT64Bv+Fi1rrQJao/74RmdZ5V8nM9dpGkExTgTKK4JiIolU/qzaWtHZbFnnbYYPV+dOL0lQ4UgilT+7NL/gZU8jmjF0ZO04hyPJvNOGJq18mAjIzsM0wOF1NkyAsT22emfn+eokYVbz8OK2qhPR83wqFmYIO4Vnl+Z0wayoVDK4ukz6N9WTTCJs5mQ4ljq5uLYqQv/KOE7GZBYyeJPBYhV3ZxEqqDufi+12E6T99lR7GD6W4OzO+e5Lz2Yzc8IU1JyNLAlqWE4iEhQAEGuV3/DuImVuXFCxU79O2a7YVGKL+tA9t/b/lmzDBURt9YxiNnuupqzi8O3Vd+3ZZt1qKmxVyMg6TXs22+/EbwVWTwdbFc9ahGazWdAQgyDI7gzq6egf38YAwGSuOkFGkkZNkfvt6xgAIHL20JO/1wvpCIIgCHJE6KrE/fL5FQAgUe23C8d8GsZkVE+zf3ybAgCTv9Hqb+t9CNkPR39EE0Hel0GzbnqmjhXl4GOSjkPrD+Z6AkEQBEF+XEg+Z5kx6zT9fUcdGSO1afoWoIQcj+ru+wQFHoIclF6nZxqKXm7C23FU5zihQBAEQRDkXXHsm07VH0Hh6W3Ld9x2zhyQDwEKPAQ5KLaliWmv3Qt8Sm/X6qZ/JEYQDmfqG0EQBEGQTXArvMbRKzxdrSvGuSPUd98zKPAQ5KDEBd7yKVjJ5Wo+jgJHvUZRSP/XcOVEJErF78lKE4IgCIIcN6RQkAzD4mOlfuQKb6RY+i4iFVDffb+gkRUEOTAdmec/3Tv+GcKxeDzK0SSArg+0TqfzZJvhZTKX7UV76AiCIAiCvCNaTYj+eTsFIJJVTT1eSyuDepr749sUgEhUe+3v10M9ggIPQQ7OqF2RcqWvL9MlzxDhVLFWl9/EwRmCIAiCIBugKxL36+dXAIiddzulI71KoVX4//vrHgCYbKvXOLRvSeSA4BFNBDk4NF9saoOH6+pZPpWI2B5WTO84qezpxfXDQFNQ3SEIgiDIR4RMl8qGz15N9blscRyM2moPAAgmVS6juvu+wR08BEEQBEEQBEGQIwF38BAEQRAEQRAEQY4EFHgIgiAIgiAIgiBHAgo8BEEQBEEQBEGQIwEFHoIgCIIgCIIgyJGAAg9BEARBEARBEORIQIGHIAiCIAiCIAhyJKDAQxAEQRAEQRAEORJQ4CEIgiAIgiAIghwJKPAQBEEQBEEQBEGOBBR4CIIgCIIgCIIgRwIKPOSHolcRaDIUCpFcQdHfOzIIgiAIgiAIsmdQ4CE/FKNebzwFgOlLbzB678ggCIIgCIIgyJ5BgYcgCIIgCIIgCHIkoMBDEARBEARBEAQ5ElDgIQiCIAiCIAiCHAk/gsAb9ZqVYk6IcyxNhkiS5qJ8WpLr7cESIxu6ptZKUpqPsjQZCoWM1wSxIDfag+C31CJHhkIhMi53rM8otUI6ztFkKETSXDwtVRTNG6w+aNeLIs+xZChE0mxUkORmLzBmHTlOh0IhMl7q2KlTKlYQZhjLPnCANA7a9VLO/MpGERh1mnJBdMKn2SgvFirNXvDluC1D19UCGwqFQqHQz/+8mr+7/ePfIRdRO0ddGaTUinb8SJqN8mmpVFeXVRwEQRAEQRAEeVdmR83k+eokRgUknQhnqg+TxXe6VyeJoHeM1y7uhr6hXWUIAACgsq3ZbPJwmY0QPu9HTlp9K6iAR8LZq2ffBN3kjZgR2dZsNuu3zpKMbySZlF/S9p/G7mXeN3+DU2B+5qHqm3IDKnHa8n1729D71WRwYs13MtfuDBveXaT8sxaAiJzdLUkbgiAIgiAIgrwbRy3wni/n5ugExTCUR1aET71T9cnD+ZzwIZhwODz3FhCRk5tF/eOSH1c389/xvJ6sPs+Gd2fLHomdP/gkyRF4Vw9VT+oIYk4vMZmrvm+27C2Nd8vSCBA5vfPXmMO7s5grLCqSSKYyqVQiwrh+G85eL0Z/69AfLlKxSCQSiYTtdwgmHHGIZS6fPTXH+TYVSaQymUwmlbBfTlT9sxZBEARBEARB3pcjFnjdc0dFUImTy7u+OeGf9B+uL7LG1o9332Z4nXU0E5M8vXro23+dPN9duncDffSTLT+AMsUSEcletLrD2Ww2eb65yIRdH0+Z8oQIZ85b3eFkNpv079zbWlTmelFfWQIPKMr8gUmcVG+ejWgOH65OXaqHyvp8Yf9pDKfOzI9Mnm/cKSCSfjrIFQEikq16NgqHD5d5+33qEKHfnViBJy+DRNrkxn4onL9+9mzsPVyfZyJM5sp3exNBEARBEARB3pmjFXjDq4wlVIjEud9xxf7NWTIcO3P2ySZ3J7YC890/ms0m3YukrX/C8ztUjvww1dPFXLhuzWnIlMT53EnI52rSemTu0OBsNnMJPOP12GlrQQO5t8cSF8/zf91vGqnkfAJmfdfu1+JO1+Tu1IpAON/yk0n9q4wlryLn3bm3dwx9PYH3cBYxSyCFQg5BEARBEAT5rjhWgdd3dFLkzO+s4yIuSchkfaXHbDabzZ4vEtaXmXzLo37c8sNfVQ7dAoWInfmcYZy0slRwzF0Cj4idBVyTazl7dHMK7y3SOJs5Go7Kt+bidm2ljgreBeuemwILYnMKb8fQZ+sJPHsDj8nfBDyCIAiCIAiCIB+SI7WiOVKa7anxY6xQiK/ziq421bHxY0Qqpemg5zipIJgi41VVFiwvGhDJWrMUJxd+T/OCHZlEpSnzi4+QcfsRTdOC45uQmzLvG0tSkNKWjOuoHZfJxzdJI0A8zZvhjzXNY5BTV5uKEQFCkMSg8KOCYCqsnif6u4a+LizHGj+8qnUl2KIngiAIgiAIgnw4jlTgddodU9+FBZ5b7xW1bWofik8vk4Q0L0TNH186HX8FQXIs6/sHlmNN5USwrH/EnEdgpAcb5KfZQH1GOjJy2utpzh/eJo1A2gppPgWaHYEoH/VTZ2bw1vvTQZDG3Sb0dYmm0+YW4stnkZfqHRR5CIIgCIIgyHfCcQq80UCz5uRclFvrFd3Z7YnGl7/CRTlLgQ023SIiyWBZ43rI+HcK2wkUoDnOOog4csXwjdIIQNJ2KucEnq3XHj/9FArkp0+P1uujzXMgMPS1iZfrp6a1lunT5z/+w3KCJDcDhC6CIAiCIAiCfByOU+Dpo5G5gUeQdOBGl4fRaGC+smxvDAAASNr+5mgL/fEW0LbGcSukN0tjkIodjTbdC1sVz01C3+QTfEVVHB+D05fbz59++w/H8ouO6hEEQRAEQRDkA/E/7x2Bg+DauFl3sr/dXs8etMRhIH1++gBp1MFSmEzqRIovFW80TdNxUeL2F/pGsIKsagW1Lpfl+u3LFABg+nr/+a9fG7VsXannuI9a9AiCIAiCIMiPzHEKPOeQ3nQ0GgEE3NZy4+x5wWgwAliiPXRnI2qbDaa3YDSwY+jawXz3NJI0SYCh8VihKJeiq154Z0hOKNTUQkVT6xVZrn17mQLA9OnL7wLN9moCSjwEQRAEQRDko3GcRzRplrXMSGpuIyNLX+HWfUXradYB0HVv+L0xg17PtGUCrCuG755Gl/2TLW72vRskJxQqiqa1Ti0Pgy/1Ul171zghCIIgCIIgiB/HKfDIqG0686Xd1tZ6J8pb+0mv7XZvyYMDVbH+HE/7Gup/E5ZcjRs5rg2YeNS1ffnuaYzyUcv9Qruj7e2z27HpgVU2XVEqpnvFaUcJcuCAIAiCIAiCIO/HcQo84HjB8nZ9X6sFOHID0LWebTKDE0TLvfZjrdIOnL13KrVbc3MrkUtzu8d1S+5LouyvMQaNmmLGkBLSvOsv755Gmhct7wyPS8rlgDhmTDe3+ALARqP2eVXUdwiCIAiCIMjH40gFHvBSzpIyT5WCnxLSe3UpHo0XGtY0P5orJOwTeFJR9Zv+j9olqWKa8KcypXezAAIAML7/JKTl9nw0B41C2VJnjFhIe7bf3j2NnFhImREIKBdXRLZQYCuxXexBT13IOzPcTlPp+f9J63RejZ9YDq2sIAiCIAiCIB+PYxV4EC+WM+aFs+n9J4GXakrPONSoj3pqvShE4398fppOdce0JFeQJXPfb/r0Tzouyk2Xi+tRpymLvPD3oyGeqFSlIr63hZXx7Schni41OgMjZZpSEXnpq6lBiES5PG8I5N3TyObkonmTbXr/iY/nauqc3wFd6zRrRTFO/4vNNfYu8bh41KoW38rFpmZmXLvZsOSerpZzv/7ExaVK0yPzdE0p5sr3xn+YtL0ViSAIgiAIgiAfiNnx0r/OMquSHz69c78yeThPUN4nCIphGIrw/i52ejNcDHBylTGfo/KtgEi1suYjROY66JG8FYXU5XwoN/bfYplMxBUrgiC8caRS1Wffzx8+jbPni5gVy/Pu4p+71ZS3YAgmEkskErFYJOyJRbLa33vok5u8J3CCMoIkMtcT44HrjBMHgokkEslkMhFhXBFjMlf9hQ8jCIIgCIIgyPtztDt4AMCK9fZVPkYF/Z1JnFyrsvuOGpDxktq+zLqV03T8+vo6ntr/pyLZalutCO+9e8fm6m3l3PHFPZ06cSTCmaraLHC+L75/GqOFZvv6NOHorOnr0+P9/f3j49OLEwsqli+Kazi42BBSkGvZsPP/6dgIkqTN23mkUCzYlWb6+nR/f3t7e//0alkVjWQv1UZu/xFDEARBEARBkN05ZoEHQHK5ekd7uDrPpxIRhiIACIIJRxKp/NnlzbPWromLF6nIqNToDR6uL04yyViYMfbFCIIJx5LZ04vrrtZrFAI8dJMsxxIAABQXDRIALGccESSWPBI1HwmvuOdFCyW193B1lk0YG18ExUQSmdPqTa/XLCyzfXngNALJRhkCAAiG43w/Q3Jipa0931ye2SUDAARBMZFEKntyXm099Aed+oK+20vorNjo3F2eZsxcA4IKJzKntZJg/p0WKh2t26q64mbGLH92eaf1GlIUr98hCIIgCIIgH5PQbDZ77zgg66NK9C+fxwAAqauhknvvbUQEQRAEQRAEQT4Sx72DhyAIgiAIgiAI8gOBAg9BEARBEARBEORIQIGHIAiCIAiCIAhyJKDAQxAEQRAEQRAEORJQ4CEIgiAIgiAIghwJKPAQBEEQBEEQBEGOBBR43xdsPE4RAEBFoiw6Y0MQBEEQBEEQxAP6wUMQBEEQBEEQBDkScAcPQRAEQRAEQRDkSECBhyAIgiAIgiAIciSgwEMQBEEQBEEQBDkSUOAhCIIgCIIgCIIcCSjwEARBEARBEARBjgQUeAiCIAiCIAiCIEcCCjwEQRAEQRAEQZAjAQUegiAIgiAIgiDIkYACD0EQBEEQBEEQ5EhAgYcgCIIgCIIgCHIkoMBDEARBEARBEAQ5ElDgIQiCIAiCIAiCHAko8BAEQRAEQRAEQY4EFHgIgiAIgiAIgiBHAgo85E0ZtWuSEGVJMkTSbFystPX3jtH3ht7M0aEQyRXV947JZgzqaToUIuNy7/v4+KiRY8kQLTZGe/vkm9Or8GQoRAs17b1jgnx8NKsRdQAAQFcKHBkiOan5HbUAXS1GyVCIzZnNtlcT6FCI5rfpGPRORWBJrtg2/z9oShx5uA7hLTr2766IdUViQyE6jT0YgmwOCrx3xxySQiE6WlSPW+7oHVkQ/vx8+/Q6ncJ0/Pr4tdbU3jtSe2DQzHFkiGTfZBjSR6MxwHQw+KhjcgD6aDAGmI4OEu/9f7wnl7+8Tik+l6YBAGDUEOnQErGkKxJHhkIkmwuaLHXkOOmaXL0FI20wBRgPtEPNSa2+y4Gk2aggFmvq4Hj7ss3be0fm6VCIjBY+cg+vqe0xwLTX7ukAAINe52UK05dObwAAMGqIc0UdAPmeayKjXvtpCvDa6WhmmjpjgHHHTNMm9CpS6fY1WijwAAAwaBYKn19osSAaHYKpjgJwZOHavEXHvryIPyCkkEszMP4myx+55SDIxwQF3nujK7X60xQAYPxUrynv2IuNOo2KLNcU7VBx0FVZfpwCMJnL7nA2mwy7NzWJC3y616zIcqXZ+fgdu6a0X6YwfVXVt5u7I4dEV+X6EwAjFq3pHM1xNACM2w3FdzLUbigvU4Dpq9Lwn4poauNxCgAcxx0o0m/PoNM2+i6H6fj16fbrf//8heML/jn1/RPQ3gdqXZblmrqY6lFHuR8DTJ/abe2tIrk1LMuRxk86AADBcqzxv3U74rUfPABm0AQbZd2/ZjkrTevSq0jlxymVKReiAACjZrHw9RVixVLa+pChjoLi8Z6ZsJKgIj4EmlKT5Uq9vaVsJdOFXBjgpVH5sLuMCPJRQYH3zoyadWUMQBAEAIyVuvJ+vVinVvzr06c/y81DTct6amcMAOFcSYrSACQdFYRo4LirNUt/ffr0V7H+8UVTNJdLRiKRhJTj3zsqyD4YKZXmKwAjSvZ0DuKiwADAtK34HSvuKO1X46exqvgt3g/UZg8ACD4t0AeJ8ztCpC77k8lkMhkO+9276/NMhACYPv4j5o7zZFVAe29XCp8+ffpTVhf6cJqXsrFIJJaS0tybxXJTeu3OGAAiOWPLatRWNQCg0gVjD5uWmoPhsO/QvUgAAEDyouv67XA4aErvVsNHHbVnRpoFAOgYQ04sJ8U3+o5WK5TupxCRyiINACOlWPjyClSmZMg9D6nqc3+O4VCrCbunZu+sKOJDMFDkPz99+qtY23hH04KXchGAsVJrHOl6EYIcChR478tIqStjACYnFyIAMFZq76jwDs1oNAIAOORy4ftAC7La6/XaNfHYUvZjMlJqyhiAEXOC80uSFwUKAKbt5qLC09rqk/Xzq6osrknobaUzBYC4mD7COkKSNEmSJEnTbJQXS812I8sAwPS2fJQnqzZv71Gp0en1OkoxvuFG0puhK3LlESB8UivFAQB6NfnrGKikXLH2sIGkaZp1oEnS/DXr/i1Nv18StbrcHAORlCs5FgBGTbn2BBA+qZQ30ne6KpdvpwAxqRA3Plv+/ApAOcczXRDe9JuZ8BGLm/7urAAAIABJREFUeY0i/pDEc2IEYHpbb2jvHRUE+a5AgfeuDJp1dQrAiFKhIEUAYKrWD7aB9v6Yx1Y+4uCHIBYjtaFOAShB9GzQkILIEwDwauzFed5oKx0AiCRiFAA8qao2/822oo4BICII3IFi/ZGgxXIxBgDwqiqHsKmD7ButXm68QjhfkwUaLC1AJeV6gXvvqK2Nrpbl+ymRkGtGpA25Fz6pV4TNhhytbWzH0zQNAKC3jaO4JPkhddu6fL9FHE8LDADcN4/1zDeCHAYUeGuiKXKO51ia5eJiqbmna2qmvguLkkBGRSkGGyu8gVorpOMcTZrWDXKlRmdhC3DUa8iS+VSIpLl4uuC5KKJVeDIUCv3yzysAwP1f/2fdFF/LKOGo13S+bnxekpueO+09OR4KhUK/fB4DANz/aQZAput+25Xmbf6fPj0BALz892crOmxBdT+na0rFSDxph7twgdAwTUaLjRGMOnWJ5+hQiKSjltmwQT1NWh8eqBVJiLJkKETSUUGq2Fk0atcK6bjxB46XKu2FAmoXOTIUoj32NXpynAyR0VIHQNcU2f40x/tXIH3QrstSmo+yTjn5JGgjrIBpM4cEq2RMgx+cr9GHUSPHhkIhVjJvhKoFLhQihZoGMOo0imKco00jqMWGVc56rynneKMisvF0sbnUqIHea5RE62lPXi8moFIQeY61K5d/FV8STs402mpU/Mqi9lp4qd1UpwBEPM1753O0qfBe5gWc3lHaU4CwUC4KBAB0mvPp6SjqKwCE06JnK2GNtgMAnro0UEqiURdZoeLaKdQ1pWIWtVnHgktgq2zZDC7KEQAALpMRrrY2aldyZiLibstS6xb3oJ4mQ6Z9w0G7ZlbJEElH+Vxgk9mgLo069aJVP2k2yovFmqfRz7X3TikaCoVCv32dAgB8+/1flrkRoTawIxxk5XXNOuDtqWqFdJylyVCIZuPpom8iAtu+X9aosnw/ZfK1inFWT6uXG6/E9nN/p8fQe42iEKXJUIjmxLrmzoxoaWGj27CZ6PQ83uSs6O0H9XLjlUjI9WLUSFNZvp+GT+ryhvIOQB+Z3zX2KHXzZh9JbqXvduzY1yvHUbteyllPkWyUF4vea2/7LmLQB2qtKPJWxBYmH7oi0aFQ6N9/3gIAjD//ag3jdK7pjv6o15DNmJMky8XThcpC3vBpngCAdnPx9DOCIMHMkNX0r7OMJ9eo1OXz7p99Ni4xhE/vzP/GAACIRHXNb3erKcqID8GEwwxFAABA5OzB9czkoZqy4k4wjPUQAJU4uxua8agm7V+7IIjEeXd5DCYPFylm8U0AgHDm0n65e5EgFgMgqMzV0Oejw+ss4/c4YWXUbDabPV9lw4T1HYZhKOupyEmr7/7YZQoAIHl+dRpzfTNmpszIcyJzcX1i/JmgnCwK51v9/s1Zgpr/Q+TkxhvxVpYCAEheun59dxoGACZ/eZmNLHyaSlY9WTtsnUSc6BGu5FPJi+7E86iRIiJ7vbxsZpOH84T5HYoJh60sSlT7s9nk5oQBAKCy1wtF0L9MEgBAJKt9d+oip1dWYVMM41Sji+6we2kWBuEUxHwKrerN5KvVTHihdKlk1ZvM2Wxif3YBJnnxMPH5uLuGzIY3Vp4SFBMOm1EmMldz4czzcBYBmG9HnmCI5GV/8Q0q25r0q0kjkGtPIP1qwkj7jfPrNdvObDZz1aWq+xUiY1WB4d1ZYiGniEj21MhpT1K2zRY/zB7M5+XJVYYAAGBO7pyHjbZWvcq7y9/Ky82Lm8peXp/ardNVJ+ebzGYf719lzfgRVDgcNtssk79xHplr7w/nMZ8OCwgqZdUTv/o526gOOD3VacxOshUoETu7m3g/HNz2fRjeXZ5fXD3YXUH3+uLi8sb/WSefjLoOqcuFLsTqMS7PE5STJKsumLWGObmZf294ZfRt8/Vprd7++frivOpEenh3eX5xPV8R1qN/c3nuypBJ9/rifCFDgiu/O0W7dexrlePwzs5mI3esQNxVe6siDqTfOokRfkGGM1fP5jM3J2HfYZzJtqxITbqXPmMBABE793a+Zvuh3I0QQZAVoMBbA2N65YXKt7YaOlwsDPrmiAGJi+c1Xh9eZSgAIBJndjfdf7g6y+Zd2nPYMuZSTOr85tmM7+S5ZWoWJttyD83mnH+90Gez2ax/lWHMgeT06u55OJnNJv1u6zwTtqSmd9Zxk6eM0WmtALrnEW/2OEzuziIEAFCJ0+uuNQj3b8zJkjOtmjmjJkEAEJH85d3zsN+9u7ZywywDIxWpCyMnHVFszKGY5FnreTKbzSbP1txvbvYfLPCM8SqcMT8969+cGiO2V90+nEWAiKROL1vdvhGzYffalKREyqOD1xV4z9UEAQBU6sKep/TvLk+zp4akM6O3KLItfefkopk6Y+Q9uTKmJfYQb4g6IpK9NMIZ3pnVi8p4xKM7q4lw5vz64Xk47Hdb52ZeEzHPcoJVdYFKnFzedIcTw+xqNW/Ol8J5d+X1mUCbOi2cuezaNf+mepI5u1necIeXKWIx170fpTwCzmi3ROpyOJt1z00Z6w5leJUiAIDKOm9t1nbMwiIIAGCS561uf/j80GqZBTtsmetPVOL06u55OOw/tC6yrnmlu7Zumy2+BM5xrQUEtxS21DFBGDF96A/73Zvru76Rhi2K28zAs2uzNTurMdvXpclNngEAiJxYX50Nu62LfPbC1eL92vtsdm1oWr+K4yvwNqoDc0k2OqTZ8O4iaaTY022vaPv7YaXAM+RMOHNx89zvP9+1WmZfvaHA26C3f1PWEni7dezrlGPfnAeEs9W7vl1jr8zeOXJ6t+s8ZZHuRYIwBwNbMQ4fzCUUInHhbntmLaHyrYXPTKwhkkqcXj08DyeTYf+hdZGPUc6yj4XZ4mJrT04QBEGBtwbWQOYltmp3axXmVDB86kwcno2F/vW+fXfCLA4SvkFEzh7mOnlLHHoGxw0Fnj2H83bos9ls9nxpbC3ORW5fAs+UIN45nxElY3Lmyj9z1ASAcPZ6cSZgT5uYrL3yOJvNZv1q0lo4TXm2lobmzoS3iJYJvPk9RWuK7Z0YDLvdxXLsmnIi615MWFPgTa6zRMDA6o3GXAUyU064hJ8l8Ahn03c2cyoAADG3pWnJoKxXBplZTXk/M5uYj3tmfGbSfSYoQ2s73V1RFyfQw8vkfPNaD7PcXFtPnr+ehOejaso3c+7xYLzurraTVp7y5vSmbcdeLCAS5/Nt2V4XCnsLYfJgzv09Am/rbPElaI7brZqyw93B2BWAiJzO7YBvWdwATMbTbJ2Gu3VdMvvM5b3gPgTehnUgMMnPZopduzor2/5eWCnwIOCoy2YCb5Pe/k2x2l3qsj+cx4n+Lh37GuU4MTokYrG+PhsqzBvGPhheZykAoDJX8+OptXjkHrKDBZ7VVMMn82tL/bvrm2fvr6wcO2yVRpDjAu/grYZmaZ+TBjS7m+WpXr3+CAARtwFnTpSSBAA81uurL7+RNA0A054aeCOpYwSRKBTmbbfRxl2gaXt7x226Wm++gmEAdN50NJcr5RgAmKqNAxgFHTTrt1OAsFicN+5M8qJAAIBPnoRP6vVgm3dMvl7Pca5fsEI6CgBAZGqNgtuVA80LhgUy05HuSsKFes1rODEuCmEAmPY01yfoaHSxPkUFngKA8WALp9EkTdIAMO6oAY4E45Lfpc9Bs9GeAlCitGA5OyE3ZN71S9K8GQGRYqPmsf0fTxvx7mmLV+uoTE3xfAbIeLGYBPBY5OjUm08AQGTKZX6+7loGPO4biuabMuOrJE0AwKCzoecxfWBEmuV823fcMKXpspSpt80LeDwHABA1vCm8qKrdhDuGgRVetDJp27ZDJCuN0nxbHijNewCARLEkzGVrsz53tHz7bFmODrrJoKfWi4Lw5+0YgIiV5dxCmyNixYY85ypiy+Jm8vWGp9kCsLmCQMAOdck0gNhTF2/a7pUt68Bikjmzq9I6doVb2fbfCCZTqwc7Ol2PrXr7N+XbH//+1zxR28/5Lh37GuXYrjdfAAihuJDPXFqMAsC4ra6eS2zCSK03x4ZJ0fm2HRfTYQB4Wcvb40BptKdg9FtzzZLlxXlbVLRhent8UDfwCHJkoMBbDZku5ObnSbajnW0xZx0RMee2usCKEk8AwFNztfe3uCTFCICXf9K8KDd9xrhRxxAhvVqOnyctdwAA9MFo2/5S63ReAYDgxflZEzhz/2lnXR20PnrHUKWjZmEhWUJJnQLAdDQ/DBB8etlVe3LBrrVpQI00/3X9wZT79kX8FfgsBNCGdtBXj1XWtf5tvObykhgGgMe/BV6qKL3FsKI5KQFzCm/QrLenAFR6Ud+ZKwqeXxhpW0yiZX7OJ4Wmw3APLB8PAwBoPdN6wKDdfgIA8HcaF+V5BgCg114ydSHTksgATG//5PlCXV3bVo0+0qcAPqk1PysYs0rHUmZPUccAFJ82GjLJizwFAI+KZWilp6ovABBLC1aPsW3biaZ9bHCauRDm+YW/0Sw7//1ts2Up02+//+t/Df790y9//Pf2FYCKnTSVBTUKAKwgLmjULYt7sdkC0NE4B7B9XWLTUpIAGH+V+HSp0d5iaWU9tqwDPklmjebn7pBWtv23Ibq7T5Ctevv3Z5U9ljU79pXlqHXarwAw7ZTTC9kjGU4oR4P9rlT01M4UAHSlJCwEWTBc1Q20NQqk1+5Nwb/f8oGmSQLAdrWEIMgaoMBbAzJdU6oZ544+kzxX6otL05vQrjd89B0Am5aM+WOjvtIxaLTUbJzEKJg+ff30239YNj5nE24wGEwBAMZP94s8jQGA4OL++xRrMOiZGx0Lc0gAANKcdRxg7NUHgzEAwPjFL1mvAECE/VZNNyRogLZ+v8PEL2Dw1zW1VpLSfNSwFBdyDJtuF4pQUS6zEQLGj5//+vUnluOlitf8GpcrJAmAabve1IzfaM36/RSAEQtrWZ4LfmZDc3Pm+uzUmqSau2hEgMtE89f6aJnIpsVa8yIVJuD1/p8/fvk/mksXamsIGn2FLw9L4XUUw6KbprZfAAjeNrlpeVNomw8M2koPACLptL1Rs8+2Y63RsFFujae3zpZ1IahwLJk9u7zrdWprz+73Udw25nLD1nWJKzSUswQD05dvf//+87/ZqFisH2A3b591wGPrEWCdtv+98Ea9/Q743sHrya5xffuOfWU5mrUIXv3G+JcxAFDmgsfeGBiCcfr6uBji4+sUAJh4fHXL1829uHW94tqK+HusxQjyPqDAWwsyXmhqg+5N67p189DX1BK/25Ci1hsvAABPf/8n5OXff3ybAgC8NFcrPODEWkfrXp/nk2Fi+vr45e/f/8Pxcts7J1hyCVzvyXzAp9dgnZ52O8PSawUbZBFuNtO1+uL+08dG79XFaPSXP//+/O1+oLNxPplMJpPJGLN4OHh9yKjU6GkPV2fZBENMX+4///XbT1y65kwQWLEgEADTe1Phac36PQAwouSzq/ARWR5Lmi8qPe3m8jQTo2D68u2fP3+JRnMrvOVaNTawdtvHmxVVtz3gxV3bQ7SQjgPAVFXauu3hnBE8DhLeqe0Y8dsmW5bi6mL0kdZRG7LEH8Kd+0ErpfNxVpDb2nPr4iQVoWD89PW/f/zMxQt798F10Dqwsu1/J3zvvf2uHft65bjEuuSoXZw/AbwX/IwMmwya0jqtf7OqaK27HapXRJAjBAXe+tBRIS2mhbjvkusmWNcvlvLSrPv5KPOJlViqq9qoe32WZADG959y5bYOYJ+Tmw72fEbDDNf4+sD/GoGubbY+t1nAxmENnwte3yu9Sq7w9WUK4Uz1YTga9NqqQUXceerCxnNyoz0YPFydJCiA129//n/2zhZacWSL95u13lqVp8JT4apwVbgKRsFVMApGwSgYBVdBKxjFaXccjIJRMApGwShoBa2gFbSCVnAUHAVHASqg8kQqIZ8QznfT+6e6T0KlateuSv2rKrVTVXWrmzuWS7AA8LXZngMsu+2vAMCnMhdHjnoidJWFVTZ7KqswNq5L560tdiCaYDyRTLU73a5GtbRA4HD/TybTPOU4jFvZgmu3duKJJPwAsBv2x+oHeCHt3klvJCIAwG7YnSoRzlldALznbDvKnr3LmsPFZnlRnq+6AWA9XwI82ZcYb6xQ78/Xi0ElzhM4fPsrVeg6WU1zymv0nyfb/tvj6PX2fff2z9Ox29cj3fqwf8VP046O+6RkGLfc4NbOKnZ7euc8giAWoMB7ffbDZv8BrAMASJIkreRz2h8cKjwZxpco99tZDgDu+/J6jCfg4wAApsPxJb2/w2d6Qz4Cdue00HEvcKHQE6YPrYdzjE9Oc/nSxyC8Hst+99sBgETLzVzgZV5g7kCq3q/H9V+HAbjlT7LgW7M7ncv6TkhlnrCse5atxVhkOR7eAwD4FG/x+HwsAMC0P7Zwx2l/LH++FHHuXJ5QrjmsyjtSu1aJKiib404MPHyxCA/yQSvy+SlsJKbLSUA5aKU7lSOck4guaPqzth3lm7Op+TPc/dkPRR2b5UV5bHVvl+aPfebD8QPAc/kS440Uut2CrNf7FrVlhSMzvkL/qWDT9t8MZUpia9K25h2p33dv/7wdu0U9emXnPrzicTo+2XF3lx3QZt5ZSfstZyeyqFOAnieebYcgPxIo8F6dfV9ev+MTNgNpTyIVcaLwTNfUE0FoHxhIJTgAOPTLZSfdvzI1J8+An707IufyvnnbNPxgP6/ftB8AgH+KVqCbMdZL4zDAF4sJAHD4Wr4dXscX1/TDAsZjOEBhOX/C+QjmV6rbmD4AMBFZ4d3Vb2+aXwFAyGiOdX0Bdv9kEnp33A7L1W8AAP5EzKvkKhVjAWDXLVeNu8rWzZv6HVgf9KnFovyOZn+9AR+AtXhQCCRiHADcDevNof4DPPWGCCvfUB/eAZDjAZpyRp6z7XgjcnMYNg27LNftTOZv004BZ2bZjpvVcrmuHCTzwjy2unefcrEb3ezVtv9kXzIbyOZAVXMx5Oa1nDuRIi/afzpr+9tpt1ou11/94zy3z8cBwGHc1b3ftuOb1M1X483P2tuvh/VyufoSn1Ra89SO/Ww9MpGUfKpv2+RFl+PMHzyRlHwQXPO27cCO9HSUg2nCjPZb8LVaNlTsft6+qer/ppxt7H3mDwoR5Lqx20eNvBCbTpwFOB2JSgm2ZggVrWOU5zl/utKZ0OCm4mpQCtOU1ZXBBY1HBVw431LulMTVbNAqpcP+uC6aKI3nBWy0MlpttJGUrRFHeTm+FOGjpc5kJYqiuFmMWvkwDd9rDDx3WRw8Gj0MSLA4WGw2q9mgN6LprZTwVaw/3RipEdw3i1Gnko/6w6Wjac9EjbMMQCxJkrRq2ITvEVtKHGzNl40n4uBZRGkyPVTspZWgvQs1A0okXwAIaz9AcRgHr5dkuXC21lNDAy86NMS6MUeaiOzWQaWso35JSihGi5hhkyIPYPhOQxfoXIiXOpPFarUYtfJB6qJ6Z5+V5NyqUaBFcbOYdEpR+bAjNqzzIpNJN40oy0fzjYEarXrSkuNaE2MMXSM0PpndArskSZKoif1uGTNNaUuEWN9wYdux9yVJOkZCY4PFntzGxYUaP15fDw7NQoPBnbSBJDmM9Xy82aatyU98RHWbfCmr+FLysb60qARZIV5qqTGjV6NanAcAYDVpWrcINSBhsjFZbTaLUW+ghNC0KvtlPmBvPXOH4Kzt0y4O2OTjYoudj4Nn7jFofpQImnyyJVtoM2mk/epnaXp/uqC3PwPtrxyHej2NA+d/YsfuqB4nJWo4PlrqzDbqO37SaxTTYX/acWx7x/4gDrJKiNdkZbBQQ50vJr1aPh705wfau5Uop0K2M9tsVrOBGuNuRcM9AuvP1gazxWq1mg1axShPTBHNaYf0/EH9EOSaQYH3yija7cQ3ytJRBWrDTRtQxmAAQFiWVV6OxpjTq17erxmLEkKOX3eTsP7L9Q19HamcG9+Js0acB0u4aM0UkfkygXccAKn5Pb55NqNS2K5YOtt+FwJPkhYN+tInnD8cjQYFjgAAF40HCTxO4Glkm9Y/WItI2corGGyGPs8p8NhkrZMVTCcMEL8p9rW06KTNN8qFCJdG+rstNLMqwQhhWdU9uGjtXFhkpYmGbc91ON5jKqWCMvq1cYEL285pgSdJs4Y6ZiQsx8m1TYRsq5HmdDl0aBZ1UHayl3pOgfeo6ubixaz/eX2J7o+XLXlsNsDr1JZNi1BHrGrNKy3DuuyX+MAlAs9Z21/UZD3K2Z/QcZLHCzxJWnWSvCmHXLTSKvrB7E+Oe/sz0BfQiRNbLsGR8z+pY3fYhy9aWufWW4ecmCM2ZtW5P4izWlwzVNA/0hjAflYJ6pve0WFWPetmyQYruhKKDrpkBEGMoMB7ZeS5SzZYOT3MFHtpnlh0llpWo0YxGRZ4lgA9njxd6swsXjarQS0fDwrKuI/lhGA0XTxODGoeO2vlo/I7iHBCtGQaKJnZzDqldNTPK4nz/qhNNqRRUSAArL1oNbHoFeN+jiUAhBPCef2K4GbSKibDxydzQjCazFc6umVHsZNkAQhvY0d5SEbMI+eN/DvBNJ6ik7JcWjuXOMrzRD/HL0mzkp8AsFHzepH1QxeDSjosKIUNJoutyUYc5Xmjxc6U6HifrtoJy/uj2Yq6cqNDWeg1Kv4TpZMkSZk8tiii/E4nOi9fteIsEKE4kSRx1inG/RwBIIQTwslSxzJbkiQuepVsNMhzahWHk8WWxbqyhUnFRa+SjQd52aKEE4LxfGPkZICwklfESLxjP3LbdJJ0+cdftBQsi0aUtqOwbVt33HbsfemYadl9iGymaLYyWEiSNCkKBIhWgTsyy0ieoufSg9PCbdWKs6bGYHuzXVvT581JdWvUjrjolZJ+pdx2XeAFiW8mcqVwhNjeZtsiNpNaOiyw8i/9cVWk2ZfdqQ/YpyD2kpyhQ3DU9pVVkQv6Y33OO0kWALikuZnY2kdboEFFNRUfTBZbM1GSVo0wsfYnR739aeSe8yJJeAqnzv+Ejt1xH05btcAR1Y3C8WypYd3fW3OhPxgcl3C8P5zMata+j6wGlWSQV6o63Vpocy4nw7HH1mbupemKr/9ZVl4R5IfBJUmSxQwKgiA/DMt6yPfh64FEG8u+oxOurxxqDzbdWzdjP96x3Nt+yvfLPw8kXJsPc963zo0Vy2rg379/Az4/WlZf8kSgK2Y/Lvj+++c9CMWJLmjb9bJuxrz/+3xg461592lRbK+R9+wP04L3pz/vwV+aTW9eJOYDglwneMgKgvzgzNv1rwcAEskkcNwDAOBN5EIEYNdvX3CO7dWwbN52H4AEy/X3qe6QZ2DdvW3eAwj55u07G82/FNNq+fMB2Gi1jurOzHv2h2m7fw8A/kwK1R2CXAIKPAT5sRnX698AgI3l3nHA4NfFkygk2EsjlVwH+2G5+vVAgrfNlwmQjLwHptXbzzsQ8s1y6MdYod52b+t3wEarTdyiYMF79odxs30HQKKFlPets4Ig3xco8BDkR2bfr7fvAfWdHneskOEBdt2qk6PAr4htv9q+Z8PlJu6Ful72w3rzjvUX3+Nw/mVYt6v9PRev11HeWfCe/YG+n7hUARdeEeRC8Bs8BPmRGRe8//3znvUX++N3+Hp/Q9bthO+3T/toa91PofJ9X6ybMd//Pu/9pSl+lIMg18u+n/H88jdEa9M+bhhHkAtBgYcgCIIgCIIgCHIl4BZNBEEQBEEQBEGQKwEFHoIgCIIgCIIgyJWAAg9BEARBEARBEORKQIGHIAiCIAiCIAhyJaDAQxAEQRAEQRAEuRJQ4CEIgiAIgiAIglwJKPAQBEEQBEEQBEGuBBR4CIIgCIIgCIIgVwIKPARBEARBEARBkCsBBR6CIAiCIAiCIMiVgAIPQRAEQRAEQRDkSkCBhyAIgiAIgiAIciWgwEMQBEEQBEEQBLkSUOAhr8p2XM9EfB6GcTFuTyBRHe/fOkfIS7BuxtwuFxMoz986J5cxLwcYl8sda66/i8S37ZSHcbkT7e1zpYggr8h+3r1JhLxuxuViPN5Qrr186xw9A/tuyu1yMd7C8K1zAvt+xuNyuWP15VvnBEGQ1wYF3puzHxZ8jMvlcrl9heF1y539tByJfPj7y93D4QCH3cO3T/Xu8q0z9cOwrMc8jIvxptovIV4M7LfrHcBhu/7OlMd2vT0A7NYvku9nT3xevv3n4cCGUjH3M6WIIK/HupuJ/PrHp6/3uwPA4eH+a7M9vYJX4H673QEcXqYTuQwmkopxsPtcLl/52AJBEBMo8N6afb/evDsAAOzumvX+G/bC22m7Wi7X+8uXysN+WC5/OwBw8cZsI0niZjaoZ7wv9LBX4sWN9nxMh8OHAxzux8PlW2cFeQ72w3LzDoBLFBLfo77bz7vVcrnavYYhPfIYlu3bfx4AiD8/WImSJC5G3dsQ89a5ui6YWC7FA9y3q923l5sIgrwmKPDemG232d8BEEIAYNdv9t+uF57WC79//PjhtvtSCzzz4XQHAHzqJuNzAzBuXyTi+87f5y9utOcjlMoEBUEIp1K+t84K8gxs+9XuAwCXyMS+y0a07N78/vHj74Xm9K1zgrwJ+/FwDgAkUriNeBgAxhuKBTxvnaurI5RJCQC7fv01dm4gCPJ+QIH3tmz7zf4OgEuVcwIA7Pr1N1R4L812uwUA8HjxJf4WeBL18Xw+H5Yj3+N6D2Jg26/3dwBcIhW55Gf79fJ6e5jXZ79ev/QC5Hb54o+Qn7PevvBzDL633W4PAMB4PNghXcSFNRVIJQSAw5fmVXzgiCCIU1DgvSnrbnN4AOASmVwuIwDAYdj8DtaCHstefi19l+sNCPKe2A7bwwMAG0mEHP5iv+xXMwGPN/a9HXzzjtl3M16PL1Huzl9CG22n7ULM6/HlXmPn/vQ24vFGcvXxS7x/LH1vD7RY+EK4iItrKhCLcADwtdu/3rEFgiB5hm8yAAAgAElEQVRmJMQRi14pGeQ5luP98WJnIT5LoqtamAAAnx1JkjQr+QEASLi2uiCFQS0b9fMsASAsJ4STxdZkY7xpM2uV0vQuICzvj2ZrA81DFpUgsXQOf2l2PgubWeeYupx8utSZaS1Ei2aERBumvCqInSQLwMZbG0naTBr5OC0kJ4SztZHNzzaTVjEZFji5oIQTgvFsbWCurEGWByDh2kKSxFmrmAxSA/LBZGXg0PpOjXbO+KqFCBChOJGkVa8Y93MEgHDhysSU4c2kRY1BWM4fz7cUS4uzTkkpCeeP5vVVoJqU8NnBU0yxmfUq+WTYz3OK0wXj+YapRhYVPwAAnx+dN6U4k6uNECCyhSqDhZo5IP7SxOJXi1qYBWozSZKkVSNKALjsQJKk1aCSDgscASCsEE4fS7IZ1bJR2bosH0xXRsYijvK8WombUSMfVf0uesLvzjcBU+Lan08a+XiQ19izZsqXyWa9NAsAJGzfhDQ3Lwa1dJCjDhqsLLSXeqU0bTKE5f1hy4yLq0EtHw8K3MmOxmmb3bTi1k2H07mmJC56Fbl3I6pVe6bWrK/3Wjbq51gCwHL+aN6iM5R/M2rkk3JxZItbtUlpM2qo3Yncm5gcXewkaVFYf9Iic49lM2kVo4KSdLpncdlxR8dGGyvaPYSVIvuj+YbBNmonTfhwvnHWAZ1i5XtiL8la1b+ut9D5HHU6q3wdezBx1sqHBZYAsHy8sZAvP1u3QBTX1jOrBAkACWsb1aYRBQAgyY7eFKtRo5SOHotk49HnWuXlNSV24gQASNScfwRBrhYUeE5YdZKc7k3ERpX3x1NYVILa1xodE5NgzWHas1qUvicJx8sDbgBQR7ySJEmSOKlFlbwTjlNuAmCDRWWwsqiFWYsRFyHBcwJPnFSinPmXAAB8vKH+eFYJEvMDiNX7UoG+I8OlVjHMKrlXc8lne8ZfbgbFoOWoAYiQ7uhfgvL4Qsi3lNwT9pg2F285Gdw4MZoT48vIQ38u3ahp7UniHZsMsxx3TKsy28waSZ4oVlIuhGt6qWk17LjMFLNK+Ghjoq1TPq2vEccCbzPI0oEsYTmep8Ui8ZYoSZtWnAUwDfzlrMijHDbZUby44gcAEq90sn5iLAmf7q1WiodoLwjZgUVFgD/fKIXN7sTHWwtDPhw2AV3i2ma1aiV5ak+W56lGBC5tLrGOSVEAMDZ2M+JqUMsGFV8hfDirHRCKk5IyS8FyPK94TlA/xbTqUYMCEFbrxUZrOG2zm06Ss+oPiNZbFi3q0cpTlbuEbE+XvWO95/1K9aqNg/iLI8P4eTMqha0qjA1r+93NqKR0J/pCc+HKRJuiTooB609WnibzNrNOMS6wx/SMgvvyji5Y7NTivNIm1KIQPq2zpLgYVI5SjPBmDXgZ9r4n9tIWDkCOkzXSqqP6nLGagkV9i1V6sEZJaxYuS13peboFeToFLCZfaZvWNUSrnnbTywrHEmn7TjZc0dXw+VZ5eU3R7pg9160gCHJFoMBzAO3D9e+ZdO+ps7WmMTAVfPopdlvo6JcEi+pE5GrSKibTGu256aV5AAAuWlLnd8VFj77RuKRuUD7Ics6fLkmStGrF5ZcMF863RouNKEniatYr0cEECIbB1UB+SzoSsPQdSd/pyjqVOGvEeTC9UCVpVpOHlISPlzqTlZyVSadIh3IkWNEOtTUTyERI05ejuOik5Vcwd0HdnjDaJcanLkYIAHDhUm+22iwmvZ7y2tZm2J+lxlAH3rKoI0KSlmQzos9g4x3NM04IPIemEFtxAlwwXeqMFnLC4mpUoU6grxGnAo8KFT7eUFciF4NaNl4ciNJxqp9LDww1ouo7NX/0ibJDRuns/FFiy6N+LlyUx9/iQhFW+nxr2zrxJyu92WqzWUxaeTp6lJdDVC5rAmaBJw7SHACAkFV3BWxmvUo6WTkt3DaN6Lkp+dWolg0fh9dR81z/ohYkAMBGK4qfiatRI5/Ma71GXqEA4s8el8M2EzqfoG9Xl7bZkmDnIuKoKBA5lc5MzduASml9HejqXaleaTOicxFE3zQ3ylwdFy11JitRFDeLUaeUFMhxOkWSVrRv5ZO10UqtlxZtb0LeKBqlzaxTivuVpsQF0xWL9bQziLNOSSftrKTiEzq6pLIuvJk1qO9zyY7Rf8TVoJYN8xq/sVsGPcF535MkSVrUggAWqkOcFGnHJiQrvdlKlCRxsxg1skob1M07yWWUFRMfrwwWq9Vi1OspbvM83cLTBd6kKAARovmGXCBJkjazTp6WU9uMHbVK+c8X1BT1BL/jlzuCIN89KPDOs6qFwYyj7YunoENUPn98M9A3nrO0R1nO+G6weYRQnBgGCoo41I2ULhR4Ir3fMKaQJElaNOSlRUPmHiXwjPObyqqO9o266ch/M4y+JUkSZ3Q2VKdUlHEP8esX0pQinV0/0ZTJ1mgXGV/VFSRYMt6vzbB+5U/JLwAxTDlT3cQmO8fETgo8Z6YQFzPzmFOxvm7w4FDgbRphYyPQoQggo+amxtUKP3UkxyV1C0t0HzQAsNGa1pWUnYK61qZWBKe/WdoMZLmul2eXNQGzwKPlcD6pok9JXafQsRo18seBnxC12rYtqdsLzRsANWw6SRaMQ2pJko7KXFPBF7XZUwJv1ZC3rqeN6/SKO2ir7FjvhgXFBa147YKksg/eb2xl4mLQURqAOJK3Bptrhe7L1kwr6BOZ9SpJv7KywgXTtcHKicwTF71SUicPbVYBn6ujk0R597P9BwGrUSMfPfpQvNiaOZJ5Dn1PkiRbgafUm0X1j/ICGPsLVcRab6t5nm7h6QJP2swsLDhT+mm10py0Sh3Oakp5kONkEQT57kGBdx66gV0PCRtfsRcys9pjpbx1hOJ5haeMsAybScx3WK4uyQNrXX9/mcATe8rQ27i4ImlGvrpNmI8QeBb6lWadxFXtsmlFidmWSlbomEirVOiYwFxS5ZMa599B2hrtMuMrK3hha9vYZVhxTXPJqa21ouuUwHuSKZStxlq14VDgifJoyq7ckmoZ/ZiaNh4uq/E9+kTz8qsyqDdtCKb5JklNI6CP4y28mj70aJGLm4BZ4K3oGNfZtuBj4h2LQagkSdJmUFIHe6wQPzW8liRFLZmmII7Jyc+x3K5AC6PxnEvarHRC4NEZNSvVT71S+wjbeldnAY4bfBVXOP0t0sB+6kyZlTu1M5Z+dUb3GnPhbGdx4mGzRlqRdoQLWn5Jp/J8HZ0kTWiPo6sS0wMnreN+UVaIV+y+QpWkC31PkuwEnrqPxapLOL4gVQsoi/w2Teh5uoVnEHjWKAkfP6U93yqtOFdTyiz1ic/eEQS5MvAUzfMwsVzK+NEGG8vFnnTY/7TZvQMAIZEKaP7qSWRCBADuuueDQwUyGT8BuP8rFkqUu1Pz2efb6XQJADCvp0JGYuUpAMB+vX3smenL6fQBAEgoYRGalgnFQgQADjQLj8fNGI/Qdrs9BAAOe/Wo6PlwegAALhILgAkmJP/1YW7KCuM2ps14PB4AgO3+qcfWPc74vljEeyJRU4YZt3zCuNt00LhbvnW/dla/TzIFwzAAmkPxLoCJZRIcwOHLh1Ao1xxahIuXozjpA4jQxsOnMhGT7zFut+Fv1BSM21hGt8dNAAD25kPH3T6PKWVfJMQCAKiO9AxNwBPLhAnA7lMmFLtpj52eh7/f7g8A5mrbD6u3n+8PQIR0Y7acd8upwIkT6EOZBA8A3/6IhDLV/tzCU2jL2vdvIiYvzslhtSyiLjhps6cKNx1OAQC23ZzpoZGb4QEADluTX5vrHejx+8eH7ufjOQCALxY6YZbldPwAAIfpbcz0/Ex9CQCwXZ84jpDxRnLN8XI5KAZZODx8+eu2u7S9ed6t/v1tB8CGS4PlclzPRbz2Z0o+X0cH4AsFCAAclnP7zIE7kCp350t5S+fu7tNtdWx772W+Z5/MdDwFABAiVl2hJxLyAgAsp8ZjS32Jky/k5+kWnh/ad8Kxlz3fKq04V1NuN0MA1FBFCIL8AKDAcwATq/eVr9QBALhwqd9MPUnfjZttC30H4IllIgQA7tpN+1cpxXfTbWf9LBzuPn389SePJ5C6aWt13nq9PgAA7O6+mrnbAQDxBryPDUG0nq8BADxe80gYjrGNzAOxp8MA1ROU/Xp9Kr6ex+MhF2dFfd9uuwm3ywATOH/Q/MsaX8V+MPhsR48bBd522i7nEpGA1+NmGJfL5XL968OXR6fuTtS7lShP4OHrX//7+d9ubyxX1+u8QCbjB4Bdv6kovGlbnhxJZZxFCLAzhfJ3p+M4RfIqY6TnaALeXLtfDHJwuP/8x2///ZfHlyg0zx9/vrcJOMJ4Qz4CAIe7vwupXLVvIZi1d0eq/UZSILD79vfvv/zH4w1lqvrz/teykDk8fDM78beHAwBwAUehqY1t9mTh1usdAMDu3qrpPAAA4X0+R03HMPGwpY3ydOA1Wq3wYNV073cAwPoC3tMlGNYLqVT16w4AgPOdaOcen48DANh9uc1kbk5X/bN2dIxHVjxn7t7OuzeZROGfewC5y7JP8CLfs3/genkAAPD6LAvplv98OCmxnfFc3YJz9sth/SYTC/m8Stfp+vmvB+Pjz7ZKa87UlCokXyWmIoIg7wAUeI5gArnucj0b9Dq9wWS1HN6cmgF2wLDZvgcAuPvjJ4N4+Nf/Ph8AAO675xUeeBP16XLWKaXDPDk8fPvnj99+8obKY/0bWz6Q0JL9vOw0iJYFTt4UzGuEODqdkSe+0CzWpQ7Ok3wx478N22Eh4P3pt49/ffoy37q9gVA4HA6Hw+rJEI/BHSr058tBIx/3s3C4//zXh599vpQmJq8vlQkCwEFReIq+y2Qs1jFel+doAp5Iebxc9CrZqMDC7u7Tn//7rzeQOx2xSknT9PzAzXQ5amTDHNl9++f3X/7tCaTKXftVAMaXac+Xk1YxGeTI4f7r37//+h9vrG4cTp44q3PdzTxppssC5eFB283B+2Uz9qjVITlp6+MZjZw4cXA7LvhsnrAe1nMhr/fnD399eTiw/mSpN1u2E/aZdSfaS/lwlcP95z//91+vHODM2rGetaM7d/t22r5J+Lz/+fWPT3c7+QzM5fTGptwAF/ueXbacFYN5lTfLM7KfNxM+388f/vj789f13qN0nX7O7I0OW6WKo5pSpoS+N7shCPJoUOA5x+2LxBKxSMByvv4S9sNm1zhvZ+K+2xw6ede5fYmb5nC5ncknqe2+fkzdjvcA6h6Uw/rpk51Wz5VTX68tByP75cnJ5mdF2X1jsVkM4Dgl7PF5H5G4O9XdmwZ481PjHPq7FzX+27Dt5lJ/ftsBG8z3FtvtfDoeDofD4bBdeKrSYjyRTLU73a5GtbRA4HD/TybTVA3nTWXCBOAwbHbXAFN58dufSZythOdlv17KK3bK+s/zNQHGGyvU+/P1YlCJ8wQO3/5KFbonhsaMW9lFZr7JE8rUh8ulfET97ts/H3/9j9eX0C/u638QSJXb4/V60soGWYCHzx9S1bmxhGeL8Hy4aeG2y+d+6rFRnpIdbrnC9qfvMrJfDuuZkPdfP3/46+vDgRXixc5sOW3fxHznXheML3HTnS/l8AiH+y9/ffiv1xvK1E0blp+1o1uvlzsAtbS6hKbtm4TP89Nvf3y62xEumK2NlsthPRM668gX+54ZZYOkjc/R5VVyehH2pXj8ZOG8msp9uj8AH69NNtv1nHadw6qd+D/RKo84r6mtzaZuBEGuFxR4r89+2Ow/gP0BFHJoVnhwqPBkGF+i3G9nOQC478vffHgC8u6f6XB80UjF2W3Khpzx0OJrwf24Pz4AABcKvcIo3BfwAQA8jIcWOye3w778TUfoUZ+EOMRktEca/10z7vYfAEDI1auxE18KPQFPKNccVsME4DDujlWjelKZCFV4y3Gzew8AwUzqJT1ruzSLtml/vAMA4lN8+tmbAOONFLrdggAAO+q2NjfS8e3aTgMxnkiuPl7O5XhZu7tPf/z2k8cbKzTth9ruQKrer8dZAPjWH8rp+uQS7ixL+HSsfYihBl4Oz+9VvQy3z8cDAMz7pxql1+djAeAwHU6dbSldDquZkPffP3/4++sDPTlyOe+WE862kap5S5S786UcVe/w8PXvDz//2xvK6LY6Praj285N+yW34+4UAIANaLdCbqftmxgVDAf5GND5clzPnZd2Gh7hexrcPnnP77xvVfvL8fAOACAQsfjs9QWhUwPmOYe9sy/1lv3utwMAiZabuYveQ1atEuDymqI9Bfs2whhBkLcABd6rs+/L63d8wuYTIk8iFXGi8EzX1O/FaR8eSCU4ADj0y2UnQxVluv7UV/eauyNyLu+bt03DD/bz+k37AQB4p19JPQ1vLOEHAPhWvTUue+zHt7efDgDgf6ENfbZGu9D43wF7+v2G8USXrflUh0sSNf7FdOgBALgTuRgLcPhSL5S79wAknEl5H/1MB9z/lUo19Z+jtcvNewAgkVREWcF7hiZgLr/HyZeZXnmov11aL+ZQGG+k0BwvF71KUt7++uf/fvL4csq3jBa29+iPovBEUvKhT83b9rMv4tHdYmuTlvbFYgIAHL6Wb4fPOzsSSMQ4ADgMTY1yO64X6rKKZSKpCAsAD21TtZqZVyPef//8+99fH2gksvW8f+J4ke20Wy2X67bfVLkDqXJ/vp608vJ3qX///su/PZE61XOP7ei+/ZHIaPY8A8C8We7vAICNpZRzirb9nM/z029/fL470CB8y3HzxJkv+3m/Xi5X7VbnzviePYFEggeAw5dyeWyw0rZ/W/4KACScS7z8zhAtXnlV9K4/XGr/vGxnMn+f3YwD6qdvjKF9wXJu2sN6vlVeWlNw3H1w6iNKBEGuDbvPDJAXQgllZBv6SzqG4tEHqtYzyvOcP13pTGikJXE1KIVpyurK4IKGxQUunG8pd0riajZoldJhf1wX6kE5hJuNVkarjS7QtiVqVCLCK0GDxc1i1MrToLtcsqP/iOYxYRIsTpqm52JrTpaWNj0avlgJjSuK4mo2qGXpCeRCVneQvUUKFPNB9ufyaW+0S4x/5rm2GR7ZR2kwnd59KkyCI1MoB5gLefUMblGN/qw7jt5pmIRNI8ry0XxDPRt+M2nJIdaNYUhETcxmQ/zGc09cWYQEkdNsKdHCj86hDXTO+tO13my1Wi1GjTQtJa/zpAubgMmki0qQFeKllhpNezWqxWlYCPumL0lqeI6zgeSPWVVjrSk+0UuyXDhbU0NCi4tOPmiMvqAETAMiJCuDhRrqfDHp1fLxoD8/OD7isjYrifSIeBIsDhabzWo26CnhsFdKOHLWn26MFOcQN4tRp5KP+sMlTd9p72lW+aFx22lk+tlqtVpMBg25vo5HyE9KSnVHS53ZRm26k16jmA7702rdyM2f8GHrUN5GqCsCmzT6otXNSkg5bUSYR3V08jOD2cZgtlqtJr0KPTGM+DWGlOMmsP5kySYInx4ljIqTg/fNvidJkn2g8xWNIQmsP9sYLDaiJG5Wk14lKai51mTQvgeTH/Is3YIanI8Nl2is9EWvFD0ern0mTIISUUUbq281qKgJHOMvOGiVF9aUJKkxIewCOCIIco2gwHtlFO124twC6agCzUF6VGiXDQBAWJZVPtU2Rrxe9fL+40seCCHHj7qNUW439C2kcjaK2awR58ESLlozxfF5OYEnSeKIylsTRNBHuLVLQZKkRwi8k0ZzbvzvQuBJ4iAvj7GA5YPhaNjPswBA/PEoD48SeBrZRgjLqubhojWjIY5B3W3CmD2nwOOzjUbyeGyuAhs2RaG/qAmYTEp3YwPoGzHwxrkRE0o/4jxiI81up1KjHYRGy2ofzgb1hRRntbjGw3VOrK/zy9sslcdq2kfds9G3Z/1T9TLhIoEnSQubCuN0cbIXdKLB6vFEM+82aZQcSTuaqixpdLHqzrAaNUotTWN4TEcXzBajnOl+LtrQNrJVr1LpzByP/2kEy1PHSBl/ofE9SZLsBZ4kbQa6jlMD68/29OZ+HYEniZNSUO2rWFZVoJ1anBhd0srxFg1aBYTzh6PRoMARAOCi8SABbTN20CovrCnpWFkX9hYIgnzXoMB7ZeRhKhusnFYQYi/NEzAMoAysRo1iMizwLAEAwvL+cLpk2e+vBrV8PChw8tuCsJwQjKaLx0lCzWNnrXxUfvUQToiWbGOoH9nMOqV01M8rifP+qE02pFFRIACsvWjV5qSTZAEIb1H+UZ4nlkscm0mrmAyr5eT4YDxbsZrktE1BmpWCBIC1WiGyz+pJozkz/qzkP/Vc2wxP7H4nr1QQrZ9ZmvRSU2wmrXw8yLMEgLCcP5qtDFbiqhElQHRjHHkWnpxVyuKiV8nGgzzHEgBCOCEYt1sMmdFlFZt1bdsnbuRyC6YhHp1W18VAnlWCBNhwbSFJm0kjH/VzSknTlYGNUzhuAha1vJnIv+WI/BwhnDwfIVqS1JDPpwNVn0bU+SZheX80W7EMtG0oIeF4fziZ1aw8yuld3mYXvWLcL9c9J4TzHaOvFZPho105IRhN5isdvXnsPU3sJTnL/Gg7CqXjNNucuqbAEbVew/FsqXEqFPkZlIUUR12gPY47Oo342Ywa2bCglDierzmXpdZ5oLHrHU3X2STRirNg6DeOGJzTtmew78HkZJ6lW5AvzFr5qJ9jaUeflTuEQZYHILopNpuGsBhU0orXcUIwWWxNNuIoz+sdwnmrdA6dHPNbBLxHEORqcUmSZDlThiAI8o6Y3vh++uMO2GRv3Y7hYd/Lesj34euBTffWTTTH98B+XPD99897EIqTeflVQnz0U+5f/tlBuLEZZp73cI15OfCfj9+Azw7m9Qh63/tmWvD+9Oc9+Euzk3EuEAS5LvCQFQRB3j/7Yb19BwBcIoMDSgAAbyIXIgC7fvuCw3aRt2PdvW3eAwj55u2bB3B8Ivt+ufoNgEvXy9gY3z3Tdv8eAPwve/AwgiDvDRR4CIK8e/b9evseUN9p8CQKCfbScCrIWzGt3n7egZBvll/3hP8XYNkstx+ASzarj4o3j7wq42b7DoBECy978DCCIO8NFHgIgrx3tt16dwcAfAr1nYo7VsjwALtu9fljGCDPy35Yb96x/uIVyDuY1qtfQMg26yjv3j90ZoxLFVKvG1kCQZC3BgUegiDvnP24Oz4A4cKF3GsEVvxeYEI35TgLh2H7mePFIc8NE6mvpe30leWd2+MmAKwx+toTCZTn0n6O8u57YD9sdx+Ajd7e4ne6CPKjgYesIAiCIAiCIAiCXAm4gocgCIIgCIIgCHIloMBDEARBEARBEAS5ElDgIQiCIAiCIAiCXAko8BAEQRAEQRAEQa4EFHgIgiAIgiAIgiBXAgo8BEEQBEEQBEGQKwEFHoIgCIIgCIIgyJWAAg9BEARBEARBEORKQIGHIAiCIAiCIAhyJaDAQxAEQRAEQRAEuRJQ4CEIgiAIgiAIglwJKPAQBEEQBEEQBEGuBBR4CIIgCIIgCIIgVwIKPOSHZ99NeVwuxpMbvkDi44KXcbncqe7WWV6GBR/jYkL15QvkBUEQA9t2wu1iPE4bKIIgCIJ8B6DAe3P244LP7XK5XIyvMNy/dW5+RPbb7QPAYbt+iSHedr09AOzWa0dVu27f1u8OJJCKeS0Tm3fLuUTI63EzLoZxe32RVKE+dJY04phpOeRx2RKqLt86g6dZNhMeRpdlhvF4Q7Fctb9EVzHijqVC5PDwz015/tZZQRAEQZBnAgXeW7MfVpt3OwCAw12z2n9mjbEeN6vlcn24ft5k9Wyn7Wq5XMfR45OZVstfDkAihYzXdG07Lkd8//n141+fvt4/7A5wOOzu77788+eHnwOF8SvkbT/vVsvland+9bU8bTe/Pthe5Xw+zytm5nKW3fqnh4PuT4fDw/3Xz3/9/osvdDO++vq7EHeikGIB7pplnF9DEARBrgQUeG/Mtt/s7wAIIQCw6zefWeGNq7nfP378UB6+5P6jeb3w+8ePH267Lyojr5/9sN68A2BjuZjbeG1ZT8Q+fnkA4ML5Wm+yWK0Ws1Gvlo8LLLjdzCtkrn+T+v3jx5v69NpHwdvpdAkAEK4tNiZEcdmMvYK5H89+Op4CAAjFkZLp1WLSK0U5ADh8+yNzO33jHL43mEgmxQE8dJ99fg1BEARB3gYUeG/Ltt/s7gC4VLXgB4BDv4mfgvyo7IfN7gMAiaQiRn2379/eftkBkGBlOKzmYgGvx+P1hWK5ane+XAxvAy+fu+lwegAAbyRgEp9Xxnw8PQAAHwh53SYY5l2rO1CzzwYiASXTHm8gdtNtpzkAgLtuGxWeHiaUinEvMb+GIAiCIG8DCrw3Zdtt9g8AXCKTyaT8AHAYNnEd7MdkP+72HwBIKGHSdyBfAhK7yfmM19xezytojvV0eg8AbCDgffmHvSnL6fQBAEggYjL194Cy/ugL+fRuwYRiIQIAsF5jD2OACSUiLMCh30aFhyAIglwDKPAcsuzfJEJet9vtDcQK7Wf6DmndbQ4PAHwiE2F8qUwQAA7jSxTedtwsJEJeN0PPUUjk6mP519Mbn8vlcv36zwEA4PNv/085biFSV5PfL/v1m1Qk4PW4GZfLxbi9gVjGfBDDvptyu1zuRHsL+2kzF/G6XS7G7ct018t6iHG5XP/96wEA4Ovv/1YOdfDdnFsksMv5tptwu1wud8TyGMlpOcC4XExAOQ9hXg4w9Gn7Zbecogl6fJFcfawM1dbDaibiO16YnhrD7Zd9NRm3N5S4sfvmbDtu3qQiPmo6xuMLJZ52iMVcFnG+WMj0ideenv/i9jjbjLmdd8uZWMDrZhiXi3F7ArFM1fQZ5vTGx7iYUHUJsJ/3q5mYzyMXOpJrarZhzqshxuVy/evDFwCA3T+//F9axwHdoRT79bBZONrD7Q0lbtoGS++HOY/LxcTaW4DttH2TisiP9Phiha615fbrYT2XCHk9DEONXMOJ4vcAACAASURBVGiOjfW3X/aruURIfjbDeHyRVNkmvfPs58M5gIVA0jPMeVwuF+O7MXz+uO5mfIzL5fIWlG/dpjcBhrrsft4tZyKKnUOZurko/Yxiou20mYv5PAzDeELGp5yALuBxPpMS3+/3BwAAt1uZQJDr1nczPbo94/am2lpX2U7bN5lIwEvr1eMLpUwVeyz9uF5IBGjr8UXkAo7N58KOVd/bz7s3iYDHzTBuX66vqbPtuOkoKZNTKX1AIHHTV+7bTps3cm/DuL2hlLkxMKFIAAAOwy5+ooggCIJcAxJynlUrzumsxoZrs2dIthYmAMDnR5IkSdKiEgQAgGBlcWGuCMvzPEfkrKV7kiRJk6KfWNU3CddWFmUimpvZaEOXgU0jCgAQLHWKQc1tQnG2kAtgfoi/dNI8p3JOjQJWSYzyPAAAlx2I2j9w6VojLRA5PY5VMiFkB5tVL+tnlQtEyV1+JFoUkMQrLZqMvjD5wUafj82gGGSN99GHpjsr3b29JAsAoJjdFlr7bLonmi/SggOf7m3MV415CysVS1hOLbWxWle1IACwydaoFucJAIDmZi7Zoc8RO0nrkvJZNaPirJFU7EZYjtNUgc7Sk6IAAHy2MyjJWdTmj1cr9WiSjkV1AACfHR2LO6lEec2zj8UNViZnTGXJrCTQejh5mziQNzyyqqUkSZJmlTBr8DDZziTeGFSiciWyHMeprljSZ1KuaD7b0nmiUHRclEVN7kTM/iYOsrLRoy2a400jSgBIuNIrhY+VTOLKdWnVy9v4OW90c0najLSpqDfGi2kBANikxq9lX2eTjV5e00tx2cHlSdk4lWLeykxaKY2VaOwerC0M2Z/ITYzPP8prEARBEORdgQLPAcrwWgub7FgMxC+CDukVfXda25hQRphCtrOgOdnMepV0Ujeu7SQJAIA6pjsySHPA+uPF1mghXxM3E2VUyemGUIr+IQSACOnGaLVZzUadwUy5ZySPHJ0K0zM5XzWixHpUO1LGYCPDXwAAiJBsTDaSpB0echwHAFy0MlpJkiSJs4YsLIk+q7SAdJgZzrdGi9VmNRvUFNmiFx+zmpw84eOlzmQlSpIkriadYpSjg0dd9TkUeCK9z8aIk5Kf+p3/aDWLVEbyiJn1pxsj1bgjKsy1g1f6PM7vZwG4cLEzk23XSRpUgHx3K07Mf5VZyEYlfLREE5EkcdZK8sZ0ZD0BvF8gAHy01JMzuGhEWQCTpNr00rymQjaiJG5mvVraT44OIM4qQVau+0pvociWSUVN8PImupFLel6QS7OiAABAwg1652aQlbWhVkkrdhYEnZ3FSUmuE71aWTXCAAC8wBMgfLwyWGw2i9Fgck7VGx+nbSNKwahSJ1Elv7TdsrzAArDBbGuy2qwmA8Vv1Apg/enaYLYRJUlczTpFpW2ldYJcqUXCxyu92WqzWUw6pTivyregxp6i3CtxAq/YZLVZjAajlSmpknVSR/PqnIrw8cpAbo+Totxe/PGkX75Au4CRXEfmdrZpyd1OuOHY2AiCIAjyXkGBd55VLQxmBCcq7BQzecyuHXUrCs9J2vTnZ1SVvcCTVrOF6Y/iKCtrKM0aiUb/8EnTvL0kXSzwzuV804qzRstIkkbfTYx/AiJkdUtbM0UPAZdsaR+jWFg73jwWkAjZnq6AyhKlZlVj05Fzx8ZbRlvMKsqgXSP+HQq8RcUPAEDs5g1Eujgkj3yjRSuVJw6yPACQYGmivzhRVz6PeVUtxEZrs+PtdPANfl3tUDsLRZNfUgtxRs9Qx8vHctMVJJMfUVUDUc3QetOjC2SG1WRJEhcTKiNFefGGCFnDCiudOSHxR8zBWE3mKLk2+OOqoZ2PWcir0sbcUBkIAJy+KGInbp7HoFMf9k3tHLRaTUp8oayZC8a1RbD0GGnTkX/AhrXeIRdbrllO00esqCYzusGml6VLz1rBOVFtwkZNOyHUpAzta9VRBL+2b7J1Kk098mlto6Y/MK/UjZQLRmmMIAiCIN8dKPDOo4x59Zyf4j8NHYrp16mUMaODPVlUdlroDC0nBJ4lojwu142NFf3Dp41bFSkXCryzObdehqDaU2ea45qeYXxKL5gXcajZtVpHLaBFAZQdimya3q8IF8saUu/WLMs4FHjUhvrRq4FF77j7Ul6V0NUHLZp+/VdcjBp0l6p2HVJZqNJsxlSKYLGCpdRY0mhNuiyk36cobWa9krwdkYSPqy3KDmTTZkyautbnFrJU1v7cBBUa+tTE1aSVD7NWJXOE9WSOLEZM6Yk9ebmTz/ZG8oKcaeu24i7AmTbXKvuNFc+SVJVvuV/VEUq18vnRRhRFUdysFpNeLUs3WhJ/8dhQlFYGrIWVR3llMdLstoqIjLeUtCb0bnOLpg/RCU666GZdQ3QuwuLBVklpnUrfBagCTyjqLwzSrLmVaIv19K0ZCIIgCPLWoMBzAF0Z0Y32Tuuq89BZbKNOUAY/DuaRlalu4ML5xmhlPSq5VODRH2gGb5pP1Do2v7lQ4J3PubKJk9OMc+nMu35gRodxtqM1s15S1ERSsx/wVAGVEaQieFQhNrAq2YYuRmky5FDg9ZLOlL04a+WP39gFK8eCU1sQ3h8Oh8PhYNAvKF83yhtYtSsxys2mOlMMp5EdktSTB8VBYxmUxRxWCKvPPH4Fx4WLA82+PGoINm70RXV5UC06bRwnt0ErS5Ccnz7b7xc4zRqnQf06pGc3/LeGKhs5iqXVF5Ij5bs3s1BSlpKOLqrMJJlN5JQT64/AhUv6tUVqQAuXE+n6qVE16X547CMGWVNrVaA1qbOnYhOr/kJJymJ37cyix7R1KkVYm1Q5XS62kHHKgmYU92giCIIg3z14iqYDmEi1W9N8BMKFS/1mynTW4SWMm+07ABASKX0IM3ciEyEAcN9tnjs4z5Npd4thDuDhy5//+++/PL5EoTm+7AD07bxfLaRiIZ/HzTDy2Yj02M0X5WzOmUguxQPAQ7dJD7XbD9vdBwAIZlKve3i9x+MhAADb7RYAYL+Wz7P0eC2r3+3xsgAA9NRL5+z3cjmZc8dkMr5UdTgfyedGHL7e3rTpk6bd/j0AwOH+25cvX758+TpdbsEdCMezxUZvtp63M5pTIWnQAxIpZLz6fMzH8hmS2hgB8+l0BwBcIKAv9HbYHR4AAHZ3X758+fLly3S63DLeQDSdr7RGq+WwHDn+YDmUE0nkEvooEEpeAiHlkfN+/w4ASCRlH1J82e9+AwCAh2/02cvl1u0Nx9PFWmeyXPYLoUfE66MlZc1HUFoTKOSCAHA4HIAES926MUD9Wg65wCZypu5iu1zKnuRTrygHYJpM5BRqSi2E5YRgPF/rLZbDG238jf1UrulgLmeKojjtDh8AgIulQhYVsF6uAQDcHhqeYyof/2p193o6vgNDcA0lDIXJ945JsZFUxJjUdjxdAgB7dBM44VTz8fwAAFwqZ6gSekZqIBQwlYxGONwDnqOJIAiCfO/8n7fOwPcBE8h1l6n5eLzcMt5AyPfUyGPjZvceAODuj59cf1jecd9tDqsh0zBHhztSHi5z/Wa5Wm1/vrv79Of/PtXL2e6wHnMgPvfTaiz2+5cHAACW9wdCsrTYzr98e7iwNJdzNuehTEr484+7h35zuI/EmP243X0AIMFMwvvimdNjqIFzgz/l+oUOwtAf7LdORpfuULl90//3x2+wG/bHkIoBbOWhNEl2tu3E2YdPx1MAAHPIvfmQBvnWaDkqBcyB4ejN/tJsenNOdtPwbCSUMPo0zctxyH0UmeZBuCZPUwCAcGMzzDxb5HX1yadDJBzvH9ebx3ggZnG+nw7nAEBCMVND3tPA8Vwg5KV/oiZizSZyCjUKlx2s65Hz9x4AwJ+IeY2X1tP5PQBAIGSSfqCJE0ivKqoyYK6u7bA9pgmpl5QwFFbhHk8ktR/2xwcA8GmVma1TKVEbIwmD5qSZ56zCOSpzLJe2XQRBEAR5d+AKnnPcvlAsFos8Wd3Bfkj13Skeus2hg8E+443l6v35ejGoxHkCh7u/Urmug+Wj8U3i9y8PQIR0a7bZLqfjocxtxDLwwQtwOueBTMYPAA/dZn8P+3Gz+wBAQrlX13fr5VoOHubxAAAwbnkUv15a2ni9Xu8AdMsyDqHByehC4Xm8Ph8BANhv5XHpcr4GAPB4nHgnXajijUtysFVW07RajkoBbyCgH5Hvl2tlKcfBI4fzA1gN3Y/Lg176F2py4j2R7na9PAAA8bifTd2Bqlgth/9m1u1U4o9vB+D9Agtw+FqtGmOo0QUmk+UA9uMmXfZKqCKK2vmUrj2TfdmUxFqYGTKvBq43S3O6RMe6PRbGXfbbsiCPUYG2lj2P9XiNdy+b1aFpumA5ncu+Zw73qCblNa2Pr9v1rsFNwN6pFPlvcUFW3FYW2spzK+TsIjqCIAiCvHtQ4L0++2Gz+wD239nRkxJkbeMQxhspdPu3fgDYDbvm3Z3GhOiGPi5Vrad8Tx4jy5ubHrezyS7nNPD7rt/sr4fN/gMAiWQST9oXe4bDdm3a4bod96cAAHyAWsknD4gfxsO58V6A7bgr3x2yGL2ehu753K4dLeGpagC8Pi9d+9sDOFwBVJfkTMPcqcXa2XqubKH0GpKhNa5sLz0F1RPm8Nt00UybFyW9U6kqj3zW/XTb6XQNDgXSfnwTy3x6ABKs9If1FA8A981yXyfPlSU53a5CAABYt8tyF5DKqWtPpxaXHKGsP1roSTNzdd3UPj0wV+x+XC1/PQCw0VyKZpO6HGPantnM3X49gG7zLcDWbjlYl5QhrW3/5vYzTUqTX1unWtpNYNCdm5YWorLW433yBB6CIAiCvDUo8F4dVd8lUiHLG9yxTIwFWducWM8xj77c5uUMN+MGAFjOl8Yfy0Mpt366ej+fzy//Bo8OyNbGh9jhKOfgTWXCBGDXrxaq3QcANpZ55KdJTvlSiBWGOotP6+XhAbQLLd5Ywg8A8K162zXIwf24fNvfAYCQMn/WdA6vz0sA4EBX4ijrYb3eX5qH2fNqoX4HAMSfyciPcssC8WHctxCeBpSlItN3SJYaYzldAgC43caBr/IR1rw/PrfsuJ9afNoHAOqimXbITT97PEyHhhWx/bzbpo9ye9wEAA7jvnHVzILttF0tl6vd+ZlbpyeG/3qUxTsu3uwWfO5IIecHgF2/3Fyay7Ybt/tr/a9zN593ACR8U1C3EB63hxp8Z7/s18vl8vnva+njWEvtZECRQD6jBAJQ158P4+FUf2HbL2T+vAcg/lw5o/zQLa/cbedLTQa345tY7vMOaImO9pwrvme1CdYtT1Zsl7pPWJfNTOZveceDrmpsnUqZwPAZhfV2Ol6CQXGq1+g3kV6f15wxBEEQBPnOeOVDXRAljpo5ENMR5bh9Yn+c3qISZIV4saWEJRZXo1pcPmE8rjk4bkGPhuPijclqs1mMOr2ZKGnOUz8GjxIXvSI9Tv3CUzSVxNhwZbTabFaTXu9EaGaHOZc0Z8wD2Byp+KynaIJskWixNVqsVquJcta/4bw/JUSbHF57thJFUVzNBg3lLHpeHwjN4SmaSo51oQjkIzwJF0yXWr3RbDabTUa9RjFO468TvyZ82awk0D9m1Xjj0mY1GbRK2Xhee7wjPUjQHPRAOcVRH+tZOXDTXzRWruLKwMUr6mGo4mY26tSKyWRN499qzEdTdSh50VauGqOPj9cGs9VqtZqNOrVsmCfHINdKQMNjfHtJksTVbNCp5JNZXexD5WjJcyeUKuHzoo3VxogoakIFjop+AgBEF1MubDr99hhnTo4CP1lsNqtZr0KPazKEVKD1Z+oWlHN1z0b12zSUEI+Lk/dJkhoMwzJwvaRGqQAipOkpt+Jq0ilFlYxXtAeyivTkUeCVPqZVjPIEgBcEAoZQJUrADesY9EpSxF+Uz0DdzDrFMAfACgJnsoGtU9n2CoMTx/0eI67Ymw1BEARBvhNQ4L0yihg6PdpUjv8mtmd2q8GkAICwRP03rw/sfQxJoECHPeKkogTH4v3haDgosABA+HjUD5cKvKPmUTgVzs1pziU1zJr9kPBZBV600lEVrgZzvsRJJcyZ7pNtqY9GIDkXeEqQa61jbDrp49mtxicZAwFsBlnheDNhNaY1xIa2CXpgE7pDjZemoLH2oqbxLqKtTaItMHV6nVfpCm0Ycm96acvj/rXBr8WJHHrO4tn6s/EVnXUy6IJ0nFWxgU3LHrNqHSOAa7OshkBUnq3YzR+Nmp2FDRYHhskMGxMpsc/PRm4YOIikqGATpOVoC51xNRA+XjPGRJcmJb/xZuLPtlpy49R5vq3vUWbqcwnL0SAfXLQyaCQJGNzE1mK2ExhUwVuGOLEIxoggCIIg3y0o8F4ZeRjGagOYWSEOsjwBYzwyHZtJp5SO+nmOJfJp6OFksWWxcraZ1NJhgZNv8scr6vhMnHVKSXqFcEI4XerMRHkSXSenxE6SsxsXqffMWvmowBEAIJwQLdqERL8s55IkKqsvXNoy8rM8HrSI1CzrWmIeFcsDcaKbqBd7aY4QOfbWqldKhnmWACEsH4znrfMlSZtJq5gMK1HfCMv7o9lKb2G5yEisomSby0olgn7wKy4GtWIy7OdZIo96eX80XWwMLJ5kyBRhWU4IRpP5Sk+nOeXgdcRfMg7uZUVCzEG2N6NK0s+xct2Gs52F9uJqUMlG/bysrwjL8f5wPFtqjLSFmJX8ttVEAIjfLDRWo1o26lc9JBjPVo4Lk6ptOqW0ahrCcoI/nMyW9FWmzHAIRZMwMZSyFT8h8GjkbXoT68/2DBJFHOUFucXSpqPGbZuJm1EtGxbksvD+aLY2MOkbGxOJI9sY4qbsR1kAYhGLz4zYsalp7T2Lnsa4NNiCtdtJ0mZUSQd5lsgekq4MFqIip3Qtzdb3dEklNUmVOjORLikSoajVrrZONSkKRD8ZQBlkOQBiFV5dXdIMWwR2RxAEQZDvDpckSfajGgR5U/bDnPfnvx6Az46WdesvFq+HbTvh/e3TjkQb6/7zHf3/Y7NuJwK/fXog/uJwXLYK6vZibNsxz2+fD2yyt27bh/M7zX56Ewr98e3AxVvT7tMCb746+27C/eunA4l3tt3zcTvemH0/4/nl7x0J15bD3PdlZwRBEASxAA9ZQd4v+369LZ9Hk7l2dQcA7kQmxgIchm0ncS6Q86zbucKnB+Dize7rqjtQjzxxGlLPgv30NlP9diD+Yrf9nak7gHW7PjwAEIuQ5e+P/bjd3738Mb0IgiAI8lqgwEPeLVsa/EpI/Qj6DoCJ5VI8wGHYNB7QiTyCdTuX+/RAgqV+WznS//V4etADWd5xyXb/1cXpJezHhYAvVqj3p2t6SOl2PqynIrnPOwAhd/vCJ98+B/thvfsAwCZyqO8QBEGQ6wAFHvJeWcqLAKCGArh6mMhNIUjg8KXaPB/sADnJvn9T6IM/2+3ePDZw+FOePrePqO2IZT1XnbujlX7znYuO7XT87e7znx9++elf/9flYhiX6//95+cP/9wdgI/XXn/h9BFsu9XuDkDI3HwHYhRBEARBnIACD3mnbIfd6QEIFy+kzsf1uha8udsMDzBvOwhnh5yCiTXX++20HnsTfbRervcAJBALPVIzeAvj/X7dL7yBOL0MT6bdq2TjQflon8NBORKnN5t3c4/envqKbLvN4QG45O3NDzKNhCAIgvwA4CErCIIgCIIgCIIgVwKu4CEIgiAIgiAIglwJKPAQBEEQBEEQBEGuBBR4CIIgCIIgCIIgVwIKPARBEARBEARBkCsBBR6CIAiCIAiCIMiVgAIPQRAEQRAEQRDkSkCBhyAIgiAIgiAIciWgwEMQBEEQBEEQBLkSUOAhCIIgCIIgCIJcCSjwEARBEARBEARBrgQUeAiCIAiCIAiCIFcCCjwEQRAEQRAEQZArAQUegiAIgiAIgiDIlYACD3lVtuN6JuLzMIyLcXsCiep4/9Y5+oHZd1Nul4vxFoZvnZOz7Ofdm0TI62ZcLsbjDeXay8eksm7G3C4XEyjPnzl7J3ienCMIgiAIgjgFBd6bsx8WfIzL5XK5fYXhdcud/bQciXz4+8vdw+EAh93Dt0/17vKtM/UUpuWQ2+VifLnvs+L22+0O4LBeb986J2dYdzORX//49PV+dwA4PNx/bbanj7H4frveARy2r1fg58r5m7BuJ9wuF+PJ9E9leXzjY1wud6S6tL6+72c8jMvlTrSNVt8v+9VcIuT1MIzLxbi9gUiqUB8u3519puWA26WHcXsDsUy5O7fwJPsCUxS75obGK9t5t5yJBeTpAPkZN83x+pnLgyAIglw9KPDemn2/3rw7AADs7pr1kyOpF2Y7bVfL5Xr/xQZY+2G5/O0AwMUbs40kiZvZoJ7xvtDDXoPttP91B3C4G4+X+r+/sCV/MJbt238eAIg/P1iJkiQuRt3bEGN393rYLJfL9eF7GBZflvP3xn4t6+HtST28Xa8PADv7aYLtensA2G23uuawbKd8vl9+/+vT1/uHwwHgsLv/9uWfPz/87IvVl89VgmdhPx/Od4a/HXb33z7//fHX//hidZNipwVe29lNsetaZ5H9vB7z/efXj39//iZPB8jP+ON///Wluu99CgZBEAR5X6DAe2O23WZ/B0AIAYBdv9l/uzf5tF74/ePHD7fdlxoZz4fTHQDwqZuMzw3AuH2RiO+7Ge1a4A5lkn5B8EczMa/27y9uyR+L/Xg4BwASKdxGPAwA4w3FAh7b28fV3MePHz+Uh28/KL4w5z8Qy3om88/9AYiQrHQmi9Vms5qNOpVsmCeHpdWy2DsgWJmJoiiK4mazmg0a+TAHAA+fPyRunmOj+fQ29eHzAwDrT9d6s8Vms1nMBq1SOsjBbrl8nxZBEARB3iv/560z8IOz7Tf7OwAuVU6Nf//zbtev97eJlPuts/Uy0JUAj/dqhri+THuaeetMXD3b7fYAAIzH8701jO835y/MtF79cgAg4Wq/nfPKf3OHEr5QInc7nu59b5o5WxiGYRgAYBiPO5Kp9gNM4Kc/7uC+We2X24mnTVUN681vAMDG68MmfQG43RHvTSRVuB1OGe+TM48gCIL8SOAK3puy7jaHBwAukcnlMgIAHIbNK1722csT3d/zoh3y+uyBLpB8d47z/eb8Zdkv50sAAG8o4jVcYjyhkPf7MBcTyGT8AAC76fipp/as5/MHAIBALGKcC2C8kdDVTIkhCIIgrwMKPIcs++VUyOtxe7yBxE33mT6uovqOT2QijC+R8cPFCm89rOeUb/LdHl8kddOemnbzbOdt9ct9+XSAnO4LpWU1xLhcrp//egAA+Pr7v5WTBBydNqg9F0Bz+IDWQvNywOVyuX7+ewcA8PUDfQATa9ruPJIPeHQn2lvYTpuZkNftcjFuX0b7Mcq5csG87HO5XIyvMDaarZ1wu1wuj/nblmU94na5XL6bKb2zGWNcLk9uCLAdV1MBD+NyMZ4APQ7HeCqjQ0vul/2qXG2MajGHH+ydzg+MC16b4x3m1RDjcjG2R2EYOGtb5b5ps6CcEen2+EKJQt3hmRD79bBeSIR8HvoIjy+SKugPlNj3U26Xy/XvD18BAHZ//0yt6TVVKAAATG98LpfL9eunAwDA59/+n3IgRqRumfN2ISEX0O0JxAoWDecyU+gK5yTnDiwg33e6LWhcAtbDaibi8zAuF+P2RTJVNZ/bcT0Xk73F7Q1lqm97cAddCYP1cv6onnQ/vgm4XS7GeCyV3d9fCmUzwn7/1MdRgwBVvgiCIAjyNCTkPKtOktNZjY02Fk9PdlEJAgDw+RH9rx8AgARrDtOe1aKsnB/C8TzHEgAAEIoTzT3ipBZV8k44TrkJgA0WRxuaj1pY/bMGQoKl2ekciJNKlDP/EgCAjzfUH88qQWJ+AGHjrY1dyptGFAAgXGrl/Zqf+pUcOSmXJPaSrNbCarY7cfl2NtkRdVdWtTDR/V2uFBKvtdK8Ju/hxup49Zi+E0suWkmeKBbgOI5VbhKyvdVpc5/Nj9RLswAA4ZoppVGeBzB4BzUySXb05nFiW0mSpFUrySsl4Xme3selB2eLsepk/RaGkp8xONZfmjM7DiF6F1eZlPwWbgaEjVLrKPXFpWuVuMlvib84Eg1JOjaF8Xdnc+7MApIknW0LiktUlBQJe8wnn+6tVoNikDVeELKDE/lXzBUEACDxltEuWqjP2VSKJImtKAHQO+WqEZYzwic7i3PZsM2Y6aFWf1+1lF7SFjbeOWULpQDmjnlW8gMAQLCycHS/Ppskrul9lKSIPz843w0gCIIgyElQ4DmAjo31Y4J079SgxwlGdaAOT/TDBTs2rTgLACRYVAcEq0mrmExrtOemJ8sALloaLGh+xUWPjve4ZE87rhlkOedPlyRJWrXoKJkL51ujxUaUJHE165XivCI19QPmgTwSdCRgFe1BCAAR0o3RYrOajTq0FE7LJXZkhSfolKo4SCuDdi490GZxIw/NyFF5KqqbEAA2mG9NVpvVbNAZrbRXjQLS3pLiqCgQAGCD+c5MyeRqQGXyUYnYcjo/zyHwHPuMYkYh21Hu28x6lXSyYjPSV40wKVIlIiQrvdlKlCRxsxg1svIjgI23dNlf1IJykxucMY4MVe9Ri9kDaj15JM3HS53JYrWaDWpJQc6PocYuaj5W2OX8Mgucbgu6QnHRitwbHJUpy3EEgAsXewtRkiRxoahyW0WmMddLCTxJHOUFpSv1Jyu9xUW96aYhJ0kMjm71d1VL2nNqpkmyF2ybQfb/s3e/8Ikr+//4X/we38cjuSq5inwUuQqugqvIVeQochU5qqwqR5WjyqpyXF1ZVY4qq8qqsgqqmlVNVVPVVJWqpoqgCIpE8RMJlD+BAm13u933U+1CMpmZTOi8M8mMX5PJ6RthGwV4w97Z469Seuf4svPcvy+EEEJ+YRTgPa1zlAnpFCSfGt16SnDLNrb72C8K+oOrpX25EwXAhPVjZw4RhbCe/gAAIABJREFU37ue6SyMgsOpgGLNAG8QbM+kD2dze3/s3zSfydwGAR6A2FZzNlpZvVy9E7+3P1Wo64mAfSo2C+JBJns8zva498zEd+eHPNYN8ILOZmx7NjQYBUtPnvnl+XmBAG/1ug22XP2GwKgI/ihpWC2Mev2TF8WrBHhMcnqU7HrPP3B6suLWu3zCLMj5mjWw9FqYKFR06+R+4vNgNBoAlz26nQwlgotihca2RoD3pNlGeX+yHX8Mvbjk1kHzduWgpnd73myeXc/VRvjng+WeONZ8wDbo3J4fbSf9H7nk7szA72j7p0wHeMPh4Poo9/jLxETT24fn6wW+hBBCiI/ewXsaL/Ahzxfyz5wYr12v3wCI5wup8WeiWsgwAG7q9adffmN5HoDX1he9OwTTP0S6WEzNzFrAK2oKgGfo5ma5B1y93uoCiOYrxdlJ78R8OR8F4OmN5y77ENup19WZKQbWKBevqDIDwGxp45eOLF1/AKK5rTQDPGitcRW4RkvvA4ykKrPnlkmWGpW56Q/WZbfqFx4QU0uzB2AlP59LzuYr5CfEOnXLswDQ1td7n8vyKwHp8v58LZRLGQbAg9bYuGGugMvVtenaS+XVOABY5uOF92qXz6Y1EHYtPIpu1+t5ceIDQVYSAMDkao3i5HIkvCSnAKBtWptk/6WI+brZPjvIxTkA6N98/ev3fwtSsbHSa3l8QlbVkCUnwj9nl1sxw+OXhyP/+L9///bnl5s+E8se6Hr1hVY2ZFPFlnl7speNMQC87tWXj78lRLmsWS+SPCGEkF8ILZPwNFYp5qOnX7qTn3FKUXnWzGZmvXUHIK7mUxOfCmpBKl1ceHetulmppBbtDABIFQrJ6l83D58Vyd6v7BfV1Exn0TH9Dly7lpcas3s7bQBwbccBNooTLNPsAmAkNaR7w0qKxHw+9TzTtJBfXo6lGEmRZ5Nfq1y8okrMtwvPaOlOMc8DcHStDXByoSzZX6+u7nTdQkoEALOldwGk8vOnVpDV2V7++lzTDwicVlGamyXEsTz4ix+vckJeJD8h1qlbQSlkmKuL/mlBUszKfkmVhBWy5JqGCQBxeW4CRQCCLIm4uINltl28SgkBgBfnVuoQEwJwB/dx6elXu3w2rYGwa2ECGwTcj3ieD76YyaJ/y8rzS/tSlRzbbmrlsPUNXK34n48XofuwolJutYvtVm2/Uv161UX/6vMHqW3rWunVTv7L4dKleqMsLTz/yb3zRiHsr4Rdz//26SZ0Hz6Rr2j5stmo7O/XTu/6Xvfi0/+k9rHRKogvlG1CCCG/AArwVsAqNe3IUUunDx4AIJo5aNXzz4rvjHojJL4DBKUgMxffvLtG3ahUpaVpJMqthqUWPt/cnf71++l+NKkWyuVyfhzn2bbtAUD/7uoqPAVGTImbjgLZbRsABDG0V++v/NWFY7/8Cr3rlUtQ1BQurjyjpbt5lYWra4YHRlblVMKI4+rObGl2qSgA7Zb2ACCZn161/OW4tt0HgP7D1dVDeMZjicQPXTFtrboViw3NUvOfrh6+ffrw7RMXzxXK5XJh+Zzujm15QBBRzeP9QMtzbBsQNy7HBlhgYl2DV7x8vl8NLIqRRp+/6EyTrCAmEqEBnskygLd4Tz6hlhtqab9RzBe+3Hj9i3KhppilF1wM74lZLlccxEsf3RtFEa5jGY39UunLzdUnRYZhVBYEo6woJhJi2BdP3QnhU/lKK182awW1dPrgdU9LxbqihQaLhBBCSAh6RHMlbKrYsuzb87Pm2fl1x9KX3LZdiV5vPADA3af/RKb93x/fPAB4aNVDp4KfIqo107ptHmxnYozXvfn66cN/RKliTMdUS96gcduV5THkUqt0D1d+/Gl9q5ZLVNQkgL7eMlwAhqb3gZQi8UipSgzwjJbuALA0/Q6vGd+NKyw9/4bcKONWfe7p0B9h1boV5Iph3Z8d7mTjHPp3p3//8V8xVXx8GjbEihPKr/7g3Ct7+cvnZ6uB74RN5OtaPccB8G7qrecuLDdm1xX2H8uxIcuKLMkoL8rFut7ajgHeTbVQfbGszuBTxZZezTAA+t/qS68qQgghZAoFeKvjE7KiKnJqlQfRlhq9vrbUQ6u+0lpOfEIt13XLuW3uZaJA/+qv/L7hAuMntDzbfo2uQZC6bdthuXQtf+hOmHsW7sWOvHK5EooSB9DVWyZganp3/HRcSpWjfoTnwtZbJoC4orzgyMFcxhkAcKzX7qttPDSzQZthRaVU09r2/flhLsbAu/mcL80tLzhxhOCN1gVHCAaGGeGZr7g+36tdPj9NDXx/glqQ/bp50UvkqR/sTWJpXqnsZxnAu6nsL2nuzyWqef8mQtAsCCGEkFVQgPf9uXpd62J+7sWRjj/Xd3fFCM/HJtSK1tiJAnjQWhYACKlEFABM3VinA7LiMUUpwWDRRBOuoRkegKgkvXy4tHa5/JE6PGgt09L1OyAqqynAn9qEA/q6Zth6y/CAmD99xsuYrUk24deGtea0JGsIopL5ENKdeLtsiQ3bDABWlEutVikOoK9riycf4RP+DBhtLawSLEO/A4CU/PyJK575AOLmVfGE71cDPx/HcTxg3I5fglDQnAVDsCNOQ93gcEIwlVS/VW28XvDlOH7r4zd+mJ4QQsgviAK8787V/PG7mFoIf8BLUPPyKhHe3Hfj2RSCrkAqr0YBeFqlYq7Q2x2NybWtp7cFeNnP5UN9vz6zg9uulRtdALH8giI+z5rlAqS8EgVwp9VrmglwshJEcaysSgzQ1RrVlu4BMSX/EhleVJPBWKJ3VdnXX+emv+i/83On6VOHthqFwpcnB42B9ep2/llDYYVeaEpVYwC8i0rFmEnA0fYrVwCYTHHxbJFPYv3JRqznDnms3cxWTvi1a+Ctc41qqabPnx7XrFYNAIjKT42jO21d0/T23FW06PPXwMqlQhyAd1FdYdbjpWytUq6H3Ehw9GrtBgDisiQ+7xCEEEJ+JRTgfW+OVtf6AGJqYdFYEa8WFAZAX6stXmXAKCWEVKHaMoNHJF1br5RqdwBiiuz3jli5vJ/hAO/mk6KUGqMt4dptvVEpyCm1PtnJElMiA6DbqFQN23EsU9OWzdkv5PeLcQD9b0VZqbRM23Vd17GMRkmRP155QHSrWn6VUYg1ywUg5Ud4N7Wq7k3NRsjLqgTgoV5t9YGo/JwZPx8trMlUqbIVBfDwWZULdcMaZdyxjFa1pKTkyjNXBxCUvL/Qxn6h4vegXUurKNKHr+GzusxZvW6tqiwk1ErDGG1iG7Vi5QqTAXQoqbyf5QDc/a1IxbpuOS5cxza1al5SvzwATHK/+pwpjBKpBADcNfbrpu04lqHpK828P2v9Zraq166BF+Y5dnuWZT0jhrKNxt9//iYKUqFcbxlm27IsU29U8pL86cYDuMx+edl8oYDTyKd++9//fkupNXuVz19LqlhMMwDuqtU1nrYIYWm1T3/8VxDlYqWuGW3LstqmXi+rkvL5AUB0q1J6uScLCCGE/AKeeHiFvLDRIsNTC07Pb9XM+Yvo5hYuYx6swgwADMdxo5X6mPjO1ArOnbPd5MQ6xAzDPK7px8wsPdw781fbHlv0EOnI4PZ4YmXeKdHs0ezy0JssdD61Bvekdco1HA4HZ1vjradX5h4vEw1w22dz82ksWMr8iW+X1GTv8iCzKONPtIqn8zMcDgfXB+lR+gzH+f/kkjvNoxwze4QFlbxa3QZPEo+OM94kdDHuGb3zqSNM4JI7Z7O7r7nQ+bBznJ1OPDk644tr71lVsdDinK9TA09cCwsL1TnO+Ec/m/kiWImbyS5dwHy80Hm4caUGC50vbLujdb8nquv6MB1eeCCamV6CfnnGZg666PPnmV/o/FEv+I7LNXurbD+ZzYmFzgfnuxOLvk9hYtnDuZ9SQgghZCkawfvOTN3wAC5dXDh+BwC8UlRjzNKllBNl7fJ4bysTj3Ho9/vgYsnM9kHTNGtTKzgLStVsnx/t5tLxKMfA8zxw0Xg6u713dGa2ilPDBLxS0092s/EoA4CJxrNFdfmDUmyi0DJvmwfb2WTM7+EzXCyZ3T5o3lra3PLQYAWBAThhlfdrWJ7nAGbhtuuUCwArF/IxvyeWmZ4mU1QKGY4BwMTyhflxA5YXuMXL2i/6dklN8lJZt65P9rYyydhkxrd2D5vXxhNrHz6VHwBsqqwbJ7vZZJSD13fZeHbn8Lxt1tSEIMzuuKCSV6tbodAw/FMfhdvvg4vGM1t7J9dm4+mHC3l56ggAw0Xj6dzu8WXbrM2tQsj7ZV551hGh0NCPtjNxjgEYLprMFWXhqdp7VlUsLufCnK9TA09cCwsLFXwRsp+/7eJGFBBSqdiCsAMMP5qZhBcEZunp8Y/DTazTlyoZ1m3zcHcrMyo9E42ls9sHzeu2Pr0EfXjGJDnJAUx85lHORZ8/U1CAsBPAq+VCnAH6xsR7p0u2BwCwwuiMjWqElatt6/rkYGemPewcnpntn2JRQEIIIW9KZDgc/ug8EEIIIYQQQgh5ATSCRwghhBBCCCHvBAV4hBBCCCGEEPJOUIBHCCGEEEIIIe8EBXiEEEIIIYQQ8k5QgEcIIYQQQggh7wQFeIQQQgghhBDyTlCARwghhBBCCCHvBAV4hBBCCCGEEPJOUIBHCCGEEEIIIe8EBXiEEEIIIYQQ8k5QgEcIIYQQQggh7wQFeIQQQgghhBDyTlCARwghhBBCCCHvBAV4hBBCCCGEEPJOUIBHCCGEEEIIIe8EBXiEEEIIIYQQ8k5QgEcIIYQQQggh7wQFeIQQQgghhBDyTlCARwghhBBCCCHvBAV4hBBCCCGEEPJOUIBHCCGEEEIIIe8EBXiEEEIIIYQQ8k5QgEcIIYQQQggh7wQFeIQQQgghhBDyTlCARwghhBBCCCHvBAV4hBBCCCGEEPJOUIBHfkHtqsxHIhE2UTZ+dFYIIYQQQgh5Qe83wLMbqsBGZrAsL6ZktVhttZ0fncG3wdGKCZ6NsLxUNtzvuO+P5VhWH4BnWas2A6Oc8kPC0psJCV2jLAlsJMInitqLt+Z2VRHYSIQV1br10mlPseqqMHuZ+hdqQlp+obZrcrAnn8jX2otboKsXRTYSiQj51mxi4UefJBT1n6ttE0IIIeRX934DPLOld73ZDz2v/3Bzcfr54+//FlPFlvUD8vXGGI3GXd+D179qtdoz39lGvVqpVGq6tf6+7804JLTtH52VkXarddX1gP5do2G+cNqW1vjW9QDvQWu8bvDe1vTu/Kee13+4uzr9/PH3fyfkihEW5Dlm6yLYs3/39c/8vrkwn7ZlewC6lj27SfjRpw4zvxMhhBBCyFv2/350Bl5fPLenJgAAruPYlqHrN10P6N98/l12m0ZdFX5wBn8ogeeBPgDwAj/9laPvFz9+84AkFLMsrrUveX2PlS68ePXzAs8AHgBWENgXTjwUk9yuFFL+v13XsgyjpV11PaB78ZeSF9paYfY6nY67bqqlekkvbnoxx7I7ijj/McuKikxtmxBCCCE/k/cf4DGpQqWiTn5iayU1//dVH3j4UiznlbryXXqwb1Oqop2ltLbLp5S8uHCr8DGM1fYlr0QsNs75lunwCSWfeuG0+XxdR8uwIcp5+YXTDsem8qWSMvlJ1WoU5A9fH4D+t/2KUahK4XtGo9FutwvvYr+sF+ryRhczIxVrNfXp7QghhBBC3rz3H+DNE5Rqq9pO/PGtD3QbtVZVyf/C9+jZhFJIKE9v99L7kmdjRblQkl8pcUHKFxdEVN8JK+ZrlXrrwzcPeND1NqRE6HapUsnd/+vCQ7dRqpbNcvhWhBBCCCG/iPf7Dt5SQr6kRgEAnqG99PtLhJAXwUtKEK5Z7YXvPrpCfr8QAwDvplJu0OxJhBBCCPm1va0AzzFb1VIhr+YLpVee55JNSGJwTHtiEgVXKwhsJMLKNQuAY9QKssizkQjLJ9TazDwijtmoFBQpIfBsJBKJsLyYkNVSVVswnZ/dUPlIhBUKmgsArqVVi0pKFNhIhOXFlFKs6ktnc3Bto14uKClRYNnxfKD5Uk23Fu3lWnqtqEqiwEYiEZYXREkpVuaq1Sgn2EgkwkvVUflcLc9HIpHIPz9882epufnr34+zCooT00jO7/usPPtVFOFVv5PutluVguzXLysk5HyltXiqRNfS6+WCKqVE/3ywvJCQ1GJVW1g9r2/NFhLs06oUlJTIs3NTwPrTS0o1a7TtU4s9BMcXBZ6dqPvV5gwJzsW4vY75B2VHk0s6ZqOclxJ+MxZScuGlazx44pJlFz966bLy/n6GAYD+6f7+TzajKyGEEELICxu+FYPrw0x0KmvR7NH1YOP0zrY4AACz1Qz7unOU9o/C5JqPB+mdZAEA8b3L+5OtGDORm8ntBrcn20luUZVGM3vnvbkD3h/6B8ye9HrXR7mptANcOmzH4XA4WLCDn7FY7nC+njpnO/HQPZjM0f1UPW37BYntXo52Pc4sKhoAZutsyb7PyvOoitJH973Lw2zI3kx852y+hpaeDSa+c9aZ3eNyNzZXmOWeaE5zpd+ghQwHl7OXQIj43vUqpeic7abDj8/Et5tzFTJndC6QPZ7OaXBQJncy6JzvheWXSx9crn7djiqW2w45FYNRC2NmszEc9o79axWZo85wOLjcjQflm2ngw+HgJOs3pfTRbMHXPK2EEEIIIW/fW3kHz9GKyseL6RnLu9/+VEuJdm2zaROeYJmW/w9BDJkl0DHKSvXiwQOXzOXlBGxDb4+3sxp5+cOpn1cumcsrckKEa7UNrXF60we6F58UGYZRSYVl3G6VZO3LTR/g4llVSQmwTa317a4P9K8+qYVUu5WfmgrQbVcV+eNFHwCYaFrNq5LIw22bur+b93D6UVZYQy8+vnxkNwr5z3cewMSyxXJBSQhwrLbeqtdPb+yn1n4T1GoTpu06RvXjlzsA0dzBvuK/psiyoiQ/Xbub5Hmi9rWyXP560we4ZFaVE7zTDmrIu/tcKCrthjr50qRRK3+56QNMNCkriiIlBB6OZWqN+ulNH97d53xRtlrf8z3LjVqI0yqo/iXApbf3S3lJZB3LbFUrn6+6AJjkTq2s8LwoPT2himuUZPXvOw/wW5kqpwRYQeV7d1/262X1ma+qeVarILe+3nlgomlFlUTYpta6ePCA/tVf+ZLcrknPvm6teqXRBwBOKagLz58LAKy0X8nVfz/tw7vY39cKv/TMSYQQQgj5tf3oCNPXG91jnzU1vraWpffmB+c7/uAHuK3JA4xG8Pw9Q4c67o8zwchINHt4PT2s0Ls+HH3JJA9up/cbDYkAAGK5o8l970+2YqNvdqaHP24PkkHVxLaOb6cro3e+NxqmYTLHj3ntHGWCD2eHLAa35+f3U4ksHoUbn5TZojy57yZ5nq0iZnrX+5OtKMILdX+cS2d3T67nxsTuj7ILxn9edQRvsxZye5AcfTw9tnl/mFlwGhaV4npvNJiVnBm9HNw2d9Mckof3TxbiiRG88QGa9xMD26MKB5c7CR2Lnhc+gjfoXDf3ssEZj+ZOQoYcxyN443G528Og2c1ULY3gEUIIIeRX8kYCvHGXdM7C4OIpS7puvfPd0eOLsZ3zyd70RIDHZA7Djjzu30a3Qx4WHA57J7lR73466cfoJfShwd7ZKICJbk/sNxgVA/Hd0Ofe7o+C7j/ie+P8jjI58dFCLx/gbZbn4VSAF9ueq6LOcbDX6kH/+Am/6M751BevGeBt1kJ6QemY7FxkNGjm/ILPRrbhpRicbUeXXju9+87T9bdCgMck9y5n8zoKU+dqfKFxYwnHJHcWPFA6H+BN3reZDDBXCPAQz+2FOTh5xlPihBBCCCE/whuZZGXxQtk8/4KP1rmOZTTKSkoJHl+LblX3wx8AZTLVeinkITaj0XoAACRLZSUsZ3y+nPc7mV2tFTr1SHK/VVPm1mPmlWIwr2fX0Mb7uXpd859zzJTLoY+8iYWS6vdR73TNCj4URD9rlr5kWpLXsmGeJyUPtPpcFQmy6j+c6FnWwhkVp7GJlAgAcGzne9XDhi3Eth0PAISEOLsTK4h+XTjOKvMOGS2tCwBMplgIfQyTD3soeW1MpqpVpNm8JhQ5KJv11JPAq/FuPudltaKvdMZZeX8/G0y2Ul5vspW7009h/ipVwyewIYQQQgh5q95IgCeq+XTYM5pMJj8fC63H+/r7eArCf/zzX//98Onbgx/dZQ61urog9YSqiCEfW6bh995jsrzoHaaUIvlFeWibYX1cQQg/ZkpO+ftZ7fE8hG3d7Af5kRfklJWU4KWstjGK5kSlkGYAeFd/SXKpEZqNV7NhnieFV5EgCn4FufbqBQpCGfd7xXebtpDRjYypSV19zmiJgMW3QaYyYPov/4mS9MxLZ7lR2DnzaUL0/+GsWeVMeudowuHB7nbWn6bGuzv96zcp31olxhMKlZL/MMBDrVy31spBaK6ExKtWIiGEEELIi3sjAR7EYq0yN+sfl6nWiuLLH4yJprePLk29FDoLyjK2GfQyxWBoKAQrisF3tr3iSBMAgB+Nu3nOKIBxLcsCADCJ0N40AEAQRb/i+o+xQaJYr/pvMPWv/v7wH0GQ8uWGsU5uNrZxnp80nik/NHRwLb1RKapyKiE8LjHwr49Xq+f8RWzaQgRZSQJAv1Wdjktcs1bRPQBIKqtEbHY72F0chVrf1eNyBmsGeGxCLU4olat1zbRvj4OXUx++FkqtVeL6VLniP+zsXezva6veCVj05K1L66YTQggh5GfzVgI8sKmSbjT3cskoA4CJJnN7TVMLnWRxTfGtg8Dh4dFx8/y649hGvbjR8Ibj+j1GhmUXD6aw/CgQWW/k7DGAGX80SoFdtgzYY14e+9RsoqiZ54dbSb+v2736+unDf0VBKjZe/ZnNjfO8OVsry+K/fvvw1+fTi5u7bt/znp/mhjZuIYliZTsKwLv4U5KK1YZmGIbWqBZk+a8bD0A0tx/+xOVcBtwgA/zPP48kmyjUG8F7df1WtbHKLQperZT9xwG6X8qzi1cSQgghhLx7b2WZBABgE2qlpVZeOFUmlS+X1RdKjGVZoA94rusAC0JEd/S+F7/eu06P+40jo8cxK9cdP244t984pJru0gtyqWEWq0arWq3WW1ddz+teff4gmbZhhL1e+FKelecNuEZZUT/deAC45FaxVFClhBikateV//x188wDrGXjFuJa+uh5ze7V548fPk/uEM0ctBY+TrwoA87i6v+JsFJBjX3++wHwTN10iyssfyAWK4Xqb58fgJtKuVVsKd8hm4QQQgghb8WbGcH7OYyeooRlLhxMcK3gITkm/C2lRWzLClZOE0bvWrGjt66WzStity3/nbeoODc/B8AKUr7SMGzr/CATPLNZLtVf8WHNF8jzWuzGfvXGA8BkDg2jUSkoUkIUAvySQcTXsWkLadcK1RsPTObg5Hg3l45xDACGiyYzW3sn1229PDefyQLjWYlGb+799MavwbkrTTKDYLIVDgD6p+WK6b6DOJcQQgghZFUU4K1FTKT8d8ceDN0K38Q1Wob/hGBKCZ1DcsFciK7RMv1/JR6Xsk5ICX86DlMzFnRuHV3z5/ljpIWzegAQ5LJW9+fP9wzNXLzhow17xS+X55WYul/djFIqJn58R37DFmLpjRsPgFwo5gvVlmE57nA4dB3b1BuVfGqNIDiRCqrfMlabevLNc0bzcbLCysO9QqFS9BdsuKvtr/TuHiGEEELIO0EB3lpYWQ0mQLyqVkOnYbcblVYwS30hfALQq7Ja0ue6nFa96i8ugOTE5JOPSwPolfDXidq1iuYBAKfkQ2fln8i8GAyFuFjtvbfR8Je91oz3L5rnp7nBO2c8P9/7d9fL+UvYtIUEWxr1mm49661EVg7m6PQuavWwQN5tt1rmd188Y3Nmo3UHAGBScuqJbSeMJ1vpn+5XzR/3UiYhhBBCyHdGAd56eLWc95ere/g7X5idscTWy2rpWx8AovlyQQxPw7v5W5EKjYl+vGtWCuULfyBqevUyMV/yl8X2bvbVojYzJGO1iur+jQcA8eK+OoqVrHoxX5lbAc816w0/3kqkVho2G6+/1tUb60QEG+V5Y6MZKbuz45Juu55X/757bvrr2qyFiGoxwwHoX/z127/+EZnG8mJKKVa11SI/IV9U/EHEm/18cXpxAduo5VOp30uhkd8b5FqNQr7qn0NOLa32FmKAVyr7/mQrD3cPr5E5QgghhJA36S1NsvJTYOVKbVv//csD8PD1Q0qvKqosJQTYbdPQWhf+EntMfKdRXTQbBMdx/f7dlw//0qo5VUqwbttoaVddf8fkfrUw1YsV8tVqXf/jWx/e3ef/iVpGVRVJZF27beiPu6UPGvuPaz5YRuvr589fK/FsvqBKCYF3Hcto1eqndx4ALltaaTpGIKXI0b+/dIG7vxXZKagJtPWWkai1q/LS/TbJ88ZShWK6+vHKw90nVRVqlbwkwGkbjWp5/+vdyw/ceEa1UGiFfMFKxWpRYjdtIWJB08zUf0MDUq//cPPt88dv9fquplflp2JiPl+t1PQ/L/rw7j7/LmppRZESPJy2oWlXDx6A+Hd/NfFprlmvVB7jTsexbVPXvt3476UimqtV170bIBaqxcp//6bojhBCCCG/ltDVn96Dsy1/GGPRCleheidZv1qSh/dLNrs/2Y6HrcsOAIhm9s47Ifscpv3vs0fXzdDdmeTOWciOw+Hg+igXW3Q8JpY7vOxNbd85yUUXbM0ld2eOcbbt11Ns93L+yLdHmbnFCbfOVtl33TxPV9Hx/JfD4fBsiwkOdz11qNujbGh5o5m9k4MMADDZk8HkLpe7/tT7zERhlhs1p8WmKmHtFjK43POHm5jY1uFJ89HJ8dHeVnJ08Oj22WNBlpSid743t6xkgEvPNoEwC8/FE1XXOw6uoPTSK+jR0xULLrnTvB/M7vh4pKPFxek1tyaaRmZuy41+JQj+LL0GAAAgAElEQVQhhBBC3rL3+4gm76+lzYjCGs91sbwQZQBw4tIVDsR8vW1dnuxtZ5OxKOf3y7loPJPbPTq7t/SKvPSQrKjWzfbZwXYmHsyVGEtmdw7P20Yt/K09NlVstdvnR7tbmaQ/vaK/U2Zr7/i83W6VZmZYFPKt9nXzcCeXjkc5hgGY0daXbbM6cwxeEBgAnBA2nWWiqBknu7ngqEw0lt7aL0mr7LtungGAFQQOABMVwmufF0X/5CSm9mUTRa19ebybS8ejDBPU5/ZB87atV5SEwAEYzew5kZLfOFaewzOhSIuCZh8znuwRWLuFuEY5/+nKA7hsTW+U8uqjfKFYaZjmYcZf2q1V18cPai4pBS9XDOv6ZG8rE4+OGlk8nds5bN5axmwTCLPwXDxRdazgX0FRQVitahdVLMNEY8nM1u7R2a1l1lRxrkWwghhjACa67Frl1VrrIOPfaeAy6tzilxv9ShBCCCGEvGWR4XD4o/Pwa7Cq0r8+XgHIHve0wrNfPSPviV7gf/vSB+J71+1K6Ewi7Urq33/dAMie9LQ8NR9CCCGEEBLu/Y7gEfKzGC8LKCTE8C3c0ap2K4+MEUIIIYSQXxIFeIT8aMGjroBZb1gh37vGfrnRBYCokpdCNiCEEEIIIcRHs2gS8qOxciEf/fqli/7Fn6mEViiqckIUeBauY7f1Vr3e8KcejeaqlUWTsxJCCCGEEAIK8Ah5A3ilph3aysdvXfTvTv/+ePr33CZMfLvWquVpLhBCCCGEELIMPaL5vTw1RST5pbGpkmbdnx/vbWdHc59iNJVkbueweW2364UEtRxCCCGEELIczaJJCCGEEEIIIe8EjeARQgghhBBCyDtBAR4hhBBCCCGEvBMU4BFCCCGEEELIO0EBHiGEEEIIIYS8ExTgEUIIIYQQQsg7QQEeIYQQQgghhLwTFOARQgghhBBCyDtBAR4hhBBCCCGEvBMU4BFCCCGEEELIO0EBHiGEEEIIIYS8ExTgEUIIIYQQQsg7QQEeIYQQQgghhLwTFOARQgghhBBCyDtBAR4hhBBCCCGEvBMU4BHyDrUblXK5XNXs739o16yXy+VyzXC+/7FX57byfCTCiiX9R+eEEEIIIeRFUYBHyPvjthv7nz59qmrWCts6a3GfSs8x6p8+ffpU01cILl2tKLKRBcSSsUJRN+Q6Th/wbPtNh6E/ilmR+OmTwfJCQlKLVc16sgH8tFy9lGAjET5VMVfcw6opAhthxXzjB9xJIYQQQhahAI8sYev1SqWyUled/KT0UuKfaxDyrRfs4dtt88Fb9KXrvt9Y4m1z27rZn/7I63fvrk4/f/xfIpFvWD8kV6/OMvQ7D+jfaOZk2O+YjWqlUgsLbU1d73rwHgzd+m65JIQQQp70/350BshbZlSLf516yIp5Oc//6MyQV8GLiXh89uQ69l23DyYaE3l2+htWnPngRWSP7uvqdMIsy/PU5l6OY7bq9YZmmG3LdpzZ2JmVqqZeFGf2SR/e6kURcF3HsUytWi5/uek/fC2oYsKopF6jIfxQolLINmoWUgV5suWZtdLHz12kWUUpidN7SPlC2tQdQc0nvmdGCSGEkOUowHuDHMtmReHddZ9+FMd2WGE2TiEjqbLeLs9+qOXZ/331pIqhF4TvkAeG5QWBWvyrsVpFtfD5pr94Cy98tJRlWZYFWFbgU0qxLqf41H//vvNuahWt3FDfW/zNpkqaWVpnD0GtGeprZYcQQgjZFD2i+aY4ZqOkiEKiqNHDaS/F3JcFUS7WDHrOlPyKHK0g//75ps/EsnvHZ5e3951ebzBHnx2cCsNK5VKGAdDXtVVfUyOEEELI90YB3oosrZKXRIEXxJRabr38RAOO2SgrCeE/H/7+9uCxPDs5mmHrtaKSEnnWn+pAzpcb5vzUEI5RL+flhMCzkQjLCglJLdXnJjJsV1JshE2UTcC1tEpBTghsJMLyojRdKrOciEQikd9PPQD49uGfo6kW5Jq99kGhF8VIhJVrFuC2G+W8FJRFlPLVRe/3Oe1GJUiZZQUxpYTN7+BaWtWvGj+9lFKozG7FCqzXvfj8539FUS7VNwzzHK0gspEIL01Pv+Aa5RQfibCJkv7CLcJp5IVIhC9oLmAbtZIanH/hdZrfT8auyWwkEhEKszdCXK0gsJEIr9SsmV2cVl6IRCJ8QZ9Pzm23KqNGKSTk4sIJQFdpb4BdV9hIRCjqgGNU8ynBP3FTbcS19VpJlYIrZ/FVHcqqyXwwB02QI4FnIxFelPKV2evJ0YqFLw9gkru6qVUKipQQBZ5n5612aCGV4AHAse1Rafz5SHm14cAx6wVJ5CMRlk8UWo+lmSptUNywazFIqqC5/i9iXhInfp/a4c1+1cQR/PrICYFlIyzLiymlWJ16ea5dkdhIhFfq/s5WVWIjkchvn7sAcPXxX6MZZ1KV9mSGWbGozx/L0qpF1S+A31jCT/FEawl+6f2TKaSUUmiLWO3PASGEkF/bkDyt09yKTtUalz2+f6nEe7fNvVycG6Wc3Dpo3g4ev749ygbfMdFYLMoxAID43vVUGpcH6dFWXDQ62gqIZg6vJxIbXu7GAES3j4+34kyw+XhjLnN0G2x3fZBkRh9PYLjscWftgw7PtjgA8d2Tw2x0tP3j1rmTznDa4PY4FwtprEzyYKLY9ydbMWby+KOt4jtnkykO7s8Pt9OjE8jEsrvH1701T9L1bpCfzNFk0veHacyej87J6IQtxOWaT2XgfDsKIL531txJcqMijuostn32xP6DZo4BENu9XLOggbMtBkDmePbMrKJzlAGA5MHt09sGFcjkTgZPbzzBb8fgts6m9zvfCRrYbNaDCmHG5693nPWPfHi8HZ9r6rGd+Rpetb0N7w+TAJjc0cn2ZCt+zFLnbCc5ldLo+LHcyf3ThR+c5BgAmcPz8VX8mB0mvns5USf3R2kGQGzncp0KHpxkGQBIH81l53zbb45bzVGCQU1mDk52kxMVOT7/neZOMuS3BACX3jufqmY/KSZ7eHaQCU5kNBod7cwk9y5nz8o6iZ/vBCea4aKxWJDsVNMLmtUo6/dHGS7sV5BJj8o2akVbzen6uz0et5UZcz+Oo9Zy2Nx9vNInizy19Up/DgghhPzyKMBbweXufLTBbZ+t1yUNMbhtHkyFdodn9zOJ9k5yHAAmvXc+7h1en+xtbU8GmJ1go9jW0WUnSKB3exL0fKY6fBNFYWK5wyDRzvlumgEALncy1Sfye8XInszHE2scNAjw/KPGt4PwanDfDHrW0em6HIwyyaV3T67ve4NBr3N9drid5CY6yYPLvTjjb9O8DXI36JwHEeRkHDocf3m0kxn30GPZ3ZM1wrxRJMfkmpNZ7R37HWFmIu7rHGfCu3YTjScXUqEzx0sCYGLxGAMmPq7i8Z2G9OH90v3fe4A3iuSiO+eTn17vxUftbLqKB2d+XPIYsQRdc180s3tyed/p3F8ej+KFmT7zOu3NP3lgGCZow51e5/a8eRlscnuYZgAwyZ3HFti7DiICJn34ZLX51wcXj0cBLj1KZTDq+zMTl2vQQNdtB4sDvNsDv4Ynzu4oyGEY//K+vO91bi+b5/eD4XA4uN7zK5SJbx2e3XYGw+Ggd395vBPcG+Kmbu9MnhTusX56l6M7Q9OB6lqJB20jljse3T8b3J8f7eT2zhcGeIGgrYVdc6EBXu9se/QDtnN8ftsbDIeD3u350ehGwvT9maC1BO1wL/gT0Ls8zPhnc/KwK/05IIQQQijAW0HQYZ2xUv91kcH92cFWchT1RNPb86Gd73InOtNlm0/rcic22xHw3fs9yclhjlHsNDfqEHR/ZnraCwO8tQ46DvBmb8EPRt307fPHDztHfoAU2zmfqZLOZfM8OFwQRc0PZQ38oa+Fp6dzebybHYd58dzeye1KYd6gc33WbJ7Pbdy7PW82z65nAqH5V5ymPH20oOIBJrk7VWXj89RcmspPFuAhe9zpzVpewOA8x3Ynx3RHA6qzDXDoN1ckH5vrOJZg4ttTl8J90P6mIry12tu4y87Ed8/nGkxzi5sLbIbD4WME8tQ5e/w94mZGg4K8TES9/vXOZNeMnxcFeJ2TXHTu1+8xKottNWcKNarMkIq73PVDxckzOE6KyxzdTmW518xxwPTg91qJ944zc+1lzosEeLfBXYbpm1x+IULuz4xbS3Rm+HZUvPTjzaMV/hwQQgghw+GQ3sF7Gi/w80MyDC9sOIdcu15ICf/6319fb/pMNL1zdH5vGfWSEj77PMvzALy2vvgtC6PeegAYuVQQZ74RFTUBoG/o7ZlvYsV6TZmaHjGlyjEAXtuyVinEJgdFutKqSJO1xkqKzADoWu3xGzO21jA8AOlSWZ6pEkFSZf9wdqt+4QExtaTMnAVWUmUGwKIaE6RCVbPs65O9XJzz7k4/ffi3mFCri166ekxXSCmqKidmTzqfkFVVSc1MNRnyitNarzu1ddMDACZdaVSnqkxMCADgrbDg+M/k2x//N7fiXmLZOueslJc5AA+6Nm5njq6ZAJfdynJAX2897m629AcAybwizqTDpCtafepSENV8CgCs9uPLdRu1NyZZalTkme0dvd7qA5xaVGenJ02pSgzAg2FYi8sNwDT890C5XK1RmlqrQPAbh+OMs+LYDgDP3Jel5eRiK/SlNbg+xzIaZUUqnHYBxHaqxfllAWI79fpMoSy/3pAu789XXDBfy4PWmJ2vhcnWWsXE1GXCK0WVA9A3xrO7rJc4y/IMANt8onafzay37gAwuf19aeZK59X9UhIArhrabC6i2/VGXpz8RJSVBABY5riFr/DngBBCCAEtk7AKVinmo6dfupOfcUpR2Wz++Har+uWmD3CZg1ajJD8xN3yqUEhW/7p5+KxI9n5lv6imZiMMyzS6ADxzX5Gqs7vbFgA49mzfLSQ65UUeeIBrr9J12OigQfdk6hNBEIAHTCzL1TbaHoCYJIkLD++augkATqsozQUBjuUB8BzbARbF4HwqX2nly+16Ufnj68Pd6X7VKDWUhcf73hzTfACAWHGuIx0s/s2sOinGT2x5JMxKeZn7etq/aWlWOSECcA3N8MDI+f08Wt++dbWWAVkCAEvX7gDEFWU+LBFFceYTQRAZXHme67gAC2za3gRZnV8qLgjdXa0sS/sz37mWDQC2tfQSbJv+GuTJciU/8xPk+lH/RMUFzaV7d9XFE8Jm7rn6+K9/fJz+iIlv1bXabNwKgJGU2TsybhCLxuXgxswUQZZEXNzBMtsupmuKZ+fSZxNSAl+u0G23bcjC2omzSkGNnn7tXvwpSWalUs7Lr7KgI2zDuAMASQmpIyQkKYqbLtpGG9OrDrL83Eougv8r7T7ey3n6zwEhhBACUIC3ElapaUeOWjp98AAA0cxBqz7buVqVkEhEcdNF/2K/ULD398sFaVlKiXKrYamFzzd3p3/9frofTaqFcrmcf/zDbgeDX4v7cFwiJT6dr7Uihpc66Ng4wHNtP8IUxCW14tp2HwD6D1dXD6FbMLHE3GDbFKfdqpTLtdMHAGDEtTL7NDd8VbGRpwbxTH/0M1kszo4BwDItAODFTQeQ3yQmd+K08ut1uHk5LzGn3zyzpdulggCYLb0PpBU5obgSvl086HobUgKwtdYNgJiiplZKmQULeHg8hS/Q3kZs/76H171ZdOVEU7PjwVNc02gDYDKlwmy06lr+8LuYEEcfsSwLeEzmQNuXluaL5RNLf9AYLiqmJCVfKhVWj4wc2/L8DIWmzScE4A6eY9uAGLbFJIEXGMDzxyeF9RPn1Vrr0MmXvz1cff7jt8/FWLZQLpfXKM1qbD9KZxb8gAmiAHThOuO7B8v4txcmWuKTfw4IIYQQgJZJWBGbKrYs+/b8rHl2ft2x9LK08V9UXm1Y/uQq3sO3v//4r+iv0bY4IBDVmmndNg+2MzHG6958/fThP6JUmX2mkJt8jW2aY5TmBy5exKscdIVHD0ebpI8WvSPmWvXZx7ZGHLNRVhPiv3//dHrXZ2KZneNLyyy/XA3ZdYX9x3Ks2lg2SGOZZhdATJbncmUZRhcAk5JWi1XeM17OSwzgGS3dAdBu6d1gPEeQlSSAm5ZmAXD8hzVjSn55jLPYs9pbqCXTHtqtpWvLm4bpAUio8txWpm54ALjU4+0KfxDIg5CSl5NSYc8SPL6D5zp2W29Vi2vFQ8tvc4ytukaDO9p8w8R5qaS1rfPj3VySg/fw7fOfvyUS+Ya1UjovbdOwcrU/B4QQQn5xFOCtjk/IiqrIoT2htbAJtdxqW/7yCN6Dv0abVKjpC9c34xNqua5bzm1zLxMF+ld/5fcNf2Pev1M8Gvn6Pl7voCzvV29wI3zB4Xn/rUhn2Ubz/NBO+M+HT6d3/vuPl5al15YPoW7iqQayvEfr+gN4TEqeC+KsVuMGACOpa4UT75Sg5FMAPL2lu7B1/Q6IykoKQEJR4gDMlm7D1VuGB0Tl/MYx8YbtbUFSwHggb322//RuVJofczYarQcAnKw8jvuKUoIBYOrGj3hlc/T28oLSBs8BMMJKo9GWZXsAGCF40HuzxFlBLlRbptO5PNqOM/AevhYK9Wef1QnB0+/e8mzxwnP+iiz5c0AIIYQAFOD9QHxCrbTa1vXJXjbOeN2rL3/+9i9RKoQs5z3GJtSK1tiJAnjQWhYAQEwkOACeqZuv9yd+NuVXPGjwaOfSqSbYhORPP6CvuG75eBn5T6d3HqLp7aPztmXUii8e2gEQCpqzaHRmNLzZUJd0aYPXtBLy7BtcrlGtXgFg5MLcDB2/JEHJp+HPp2LrLdMPbgAAKVWO+oN7ttHS+wCn5Oced13Z2u1tsYQfcfUNfXZmkZUEL56FjOA6rWrjAUBULU40Ll5WJQbot+raDxjj4RP+06ZtLazeLEO/A4CUPHdmbP893qmPgtl0xFTwPOLGiQMABKlY16sZfwR4teBotV86wf9phKmFpWpq/gi8ND84v76wPweEEEIIQAHeD8en8hWtbV+f7GZjDLpXXz7+71+CXBvPmzbXSWD50R3s4P+yP51gt7Fft146d6z/4v/EJJevflBRVuIAcFWt6NN9UrfdKFf9z4IRGu+qsq8/1XF1tGJC+M+HT9/uvGCtQcuor/eoGQA4pq5pxlzw7bR1TdPbL9h7DsZo0G40pqJn19gv1h4AxIr7m74A+t6IipoE0NUb1ZbhgUmNB69SqsIBnt6q1vUuwCnq7Awg61invS0n+M+V4q6+39ggWLT8GVY8ozHdoXe0UulrF2CSpbIyNbFmvqRyQP9rqfQDQryUqsYAeBeVymy442j7lSsATGZ+PlHvoqQUtcnqcY1K9cLD1IuUayY+/0gnPzfpU7jRqGvbWmFjVs4rHIB+q1JtzxzSrpdrdwA4tbDhCPyTfw4AwG1rtUql2qCpNgkh5Bf2xFgD+Y46l8e7mRgzscrZ5W4smtw+bF4HS4kPOucH/vq3k6tlXR8EizPHsgfN29H6YYPO9dnx3nYmuf24ctSChZ6Gw/FyTNOrcI0WFottHV93er37y7Pz0fJUaxx0tA5e5nhu+aaw/HSOs8E6xcmdo/Pb+06nc3t+speNMRMLmY2X/OaS28eXo0UEB737y+bhbjaZORi/43TtLwud3DpYsNbgKkYVwc0sdH4yv9D5cwWLmQUVcHx+2+lNLt4c25lbWi3ET7YO3voLnY+M1gVkGEwtczeqAf8LZn5l+dAlqn1hzXX19rbgUnrM2PnOaC3KrcPz+/FS5/fXZ0e7uXRy93xxaQcno/URx4uz9zqPS2gzyYPr+XocLV7HRDO7R2fX98sXGAyOs2ih8xBLanL6Yj4+v+8NhoNe5/rscCs0x9Orz2f3/NXnr/0nEf3r7H6zxHvHWS6W3T0+H5263vWJX2vMRCsP/3kcXeVc9vCy0+vdX5+djVaoDy377UGamThFvcFg0Lu/bh4E629y04VY3FrmEl/tz8GgueUfPjv/e0sIIeQXQQHem9O5PD44CToYtwfJUXeH4Thu1Llj4jO9/PugsxJ87fdqR//LbR7gPXahRib60CsfdM0AbzjsnE2m/IhLTyzs3LsMOjdhx5+YxKJzdnjYvN04tPNdBwvEYzqSG6+svWTSjDWNzkMmm5yrAia2Nb0W8kK/TIA3akEAEJs6Cb3j7Ph6CVkZes0Ab/X29lSANxwObo9y0UUpTaxSvrCw8Wx2/vpgkjtnC07X4PowG53dfsbUMt4vF+ANh73z3SQXekhuLsejpLK7e5m5fZj5ddRXT3wQnFQADMNx4xqPZo8mmumCn8fe2fZ09Y1P7YKy3zfDf8AALnNwOd0W1wjwVvtzMLoL8IyLihBCyM+OArw3rnN5vLeVicc4BgDDxZKZ7YPQcGVwf3a4k0vHo37fheFiyUxu5+DxlvVwOBwObw+SDMBl53vufijHzHXLe9dH25k4xwAMF03mjqaGCFY76PByN8YA3FZzrpvt3+wOyc/gtnmwnU1GgwPHM1t7x5dzme5dn+xtZZJ+7YDhovF0dmv3sHn90reue2fbMQbg0gdTgdzgci/J+T2sF+pLjQaecs3B4La5l0tGGYBhovHMVvh5X5rMmw/wOic5DkB0+2zj+rve87v4THxvurCdk1yUAcBEt+bju+GgucUBTCwknlrcXFdrb4supamU/PY9SomJxpKZrZ2Dk8vOkooIaja6cz7sXR/vZv3GwUXjme3Dp4anB7dnh7u5TDLGMaGhx3SA50c03PzAZ1jKi2tynPHzo91cOh4NfsWi8XRuN+RyngppOueH2+kYB4CJxtJbeyeLLuoVEw9+q2L+TwoTutnCn8fB7cluNh40p3j2YBRQLS774P7scCebjkXHTSUTXobFrWVwthWdSXyVPwe94wwAMCtF54QQQt6nyHA4DL3TSAj5/syS+J+/H5A8vDdL4ubJuC2V//3Ui+1eWtVNFgdwLNOywSZSq63uNsWuyf/35wWSB7cvufoEgasVhP996TPZY1srvMtZVJ268s8/voHZaroN9Udn5ifVrqT+/dcNYjvn7dpz3jslhBDyM6OFzgl5O4IZViaXMvshePFH54DMCWZYGc8jScgsV6tUb4Dodq1C0R0hhPzCKMAj5O1o620ASEnPHvpiWYbZeDXl5x6aY5iVl68mK3JNow2ASTy/cZB3yqpXGl1Et+pVWiiTEEJ+aRTgEfJmWIbZBRBLpZ65DgKrNpwftfKxUNCcwg869ntmGgvWRyTEZ9aqF4jv1GsU3hFCyC+OAjxC3gzLsgEmKiuzy1iTX55jWw7AxBVJ/NFZeTUsz3OAKwgUn2wkVWkPKz86E4QQQt4AmmSFEEIIIYQQQt6J/+9HZ4AQQgghhBBCyMugAI8QQgghhBBC3gkK8AghhBBCCCHknaAAjxBCCCGEEELeCQrwCCGEEEIIIeSdoACPEELW5moFgY2wQkH7UQsOvpZ2VeYjEV6qtl/xIEZJZCMRPt9yXvEgb9x6Tci1WmVVEnk2EmF5USo0rNfOH1mNUU6wkQivNuzve9x2RWIjEV6uWd/3uISQnwIFeIQQsj7Hdjx4jr04QtELQmQVrFS1vl++n+Tadh/o2/ZTYYdVU/iFZZLrS7u7ju14Kx3kPXu6CY3ZrYL0+6fTq4e+B3j9h6tGw3jVqjPLiZUab0Qsma+Zj5+Aa9srteXnXC9hHP+4jvMrX0OEkEUowCOEkFfguu5qPS9v1Q3fmLZh9Bd957nU7XxBVmP/axdgkrtnncFwOOhca/sy+5pHXLlN/qSN9weg64UQ8h39vx+dAUIIeY9YpW51qhPdNlcrJv449RDfPdfLiYkteUH47rl7ObGdM30/NRNtsLzA/5jsvEeuobcBQCrtKwILQEjJr9xkpIrZKU82XqMs/f6li+h206hIE2eb5X/mxvsD0PVCCPkeKMAjhJBXwc5Ebrzfq2MFQfipQ7ppLC+I76g4b5HjOB4ATviOUcBs4xXGrZfO9rPQ9UII+R7oEU1CCCHk7XLhj6W96kOZhBBC3g8K8Agh74FtNipFVUqIPMtGIiwvJKR8uWHOTmDRrqTYSCRRNgHX0qoFOSEE8xKq5VY7/D0Y26iVVEnkWZZlhYRcqOnfc74819Jq5bycEgWejUQiLC+mlEJVs2bzatdlNhIRCpqf46KSEng2EuGFlFKqz9WDn3S7VSnICYFnn6iBV2Xr/mlgI+yyzAK2US+pUkLggxMsh53gMMGcnWpjbuN2VWIjEXZ2ylCn3SjngzwtrHC4ll4t+g0jEmF5ISUXKgtqcMMm5Gp5PhKJ/OvPKwDof/nfeGYTY2IjW6+N68Vv+WqpbswdwG3l+aAWXLNelEU+EmH5RKH1zNY80fAco5qX/AsqVdL9mli78gHAMf0TwLORCMsKYniJwjntVrU0ccEIoqSWanN7b3C9+NmSEgLPsiwvSvlKSKt4vhV/yhZwjHppNN0qK4iSWpwve3DpKynx8TelWNVfozCEkB9lSAghP7fB5V6SGf+oMczEv+O7573JTS93YwCi20cn23EGABguyo225zKHt7Np3x5no3O/m1xmbycNAEz2ZLByNptbDAAkD+YOslDnJDdx9ImCgcse309ten+YBMBkD5u7SS4oWZQb7Zncu5zJaO98d6LSxvW1tZuLAUBs7/qJvJ1tcwAQf3LDsH23OADI7B0HmZ3KRGy72ZnZoXe+mw42ZLho9PGcRXPHT1ZnkNP00Wyqw+u9+Fxhe2c7ftMAw0VjsaAOmezJVEO6bwYNaCZDTHwu85s3oUGQ81mx3ctgi85jNmYPkJxp+r3jLACkD5p76Yld4nsrNUf/wkF053L2m6Dh5Y6aO5NZyQS1vV7lD4fD3vVhJhp2qrnM4fVTV9vtUeaxxiZ/CRDbmj4v614vw05zOzZ/wSR3drN+AQ/vl2dtpetl7Z+y6Z+Tx98LhovFYlF/d277bOoYt8f+NQ6AmaxgZrbJEEJ+XhTgEcg00scAACAASURBVEJ+dp2jNJhoZufo7Lrjd8sG92cHQS8xOdXxCnpFAMDEcoeXfp+vc77nhw9M9niqF3h74He3mFju8Oy20+vcX57sZh67668d4J1vR8Elc3snl/d+z2vQux6FptGts8lj+x1WXzSzd3Y/GA6Hw971kR9dMMmp4LXX3PJLwaV3Ty7ve73O9dnh1kQH/bsEeEEOdo7Pbzu93v3lyU4Q7nG55mRP8/YwwwBgktvH16PPe9fHfn6ZJyt0rRhj9FHu+Dao3sH9+dFObu/8sbYH1343nEvvNm+DDA0654d+75rJTMbeL9CE7o/SIf30x2yAiW8dnd/2BsPhcHB/eTKKhbmp1hwEeAzDAEx8+/iy0+vcXjbPb1dqwU8FeH66XHq3ed3pdW7Pm+dBHawZ4HVOcpxfW0eXwcU87N02g4YR25mLu6Zr5CTHIJrePmhe3ge/BJ3LoyCceQyLJ7K94vUy7Bz7cRyi2b3mdafXub9uHuQmIr6XCfDW/ymbaP2D8+0oAMR3mvfjqjs73N46nLp/se2fyezB2f24hZ/t+YFxdKtJIR4h7wIFeISQn17v/rYz1/HrHGcYAMgcT3RZRgEeE98+mw3lgu7249aDM7/DxMx03jqPYzyvHOANO7f3cx2uweVOLOjtTnw67rBGcyfTuT3y62GyEPeHab/Pu302mfzg+jDoxq4e4MV2z3vTBoMn62Qc4MW2Tu4nt+41c9xsf7nX3OIAcNmT2Rjhei+5IOoIy+lKMUbvOOOXaknxg5YVna684XA4ON+Z6XS/SBNaEODdByc2Np+Py904ZptIEOBhfjBrFU8GeCFjTMPhcM0AL2jaTHpuKD0oLLfVXB7h3d/ez20QNKDpK2+t62V4HfxuxPemBhF7l+PR0FUDvCeul7V/yiYKFfyGLc1JsE18d25E37/ymMz8iSKE/IToHTxCyE+PFxPC3AwUQkoSAcC2519BiRXrNWVqKruELMcAeJZpjT8zWloXAKfuF8WplJWaVkm/QL6fJiTEuZkT2ZScYADYYWsrc1v1Rl6cSkJREwDQNsfvOtla6woAksWyMpk8myo1GtvzzxMu8/D3b/+c9o9/8Ep9pTeG4nutel6cPHO8Ws5HAcDUjCAJV6+3+gCnlNTZyQdTeTkGoGsY1lp5XoLleQaAHaxMEMZu1Q0PiOWLysy5YWVV5gC09VHmX7EJWa36hQcw6fL+XD6kcjnDAHjQGsbsfrHtem2uJl9AvNSoyM+c5tOotx4ARi4WEjPfiIqaAtA39KULq7NiQpz7JeBTUgIAbGv+l2Cl6wXthvYAgMmWS1MrHPBSpVXLhj8ju8AT18vaP2WTueF5AGjri19XbNfrNwDSxZI0cxRezksM4JnLK5gQ8pOgZRIIIe8UG8zsHrKGMD+a9f2RIPLAAxxnHJrYbbMLAClltjMECALPAN6L5ndlLBv0o0MmRWB5djazPC8AN3Ad1w1mYmwbbQCIyfJsPxq8IPBA99k5XGkzQZzvzKbkFPP5m+dZpoV8CkBbNz0Arl6Wpf2ZjV2/x+tYNiA+L8sBVi6o0dOv3auPkmRWKvsFeS5gMA3TA2C3StJc9ORaLgDPdhyAf9Um5JqGCQCiLIvz3wqSksDFDR7MtgNpMuxiUupzw7BQUVmZXd1tbZZpdgF4ZkWRarNf2m0AsO0VJxuZFPwShK3JvtL14pptCwASsjQXGftt+Jm/BE9dL0t+yiazohay5Ytv/dMPKdmoVMp5afbyckz//lW7lpcas7s7bQ9A37H9tksI+alRgEcIeRdso16vtVqmaVl2t79Jh2u2k2VbDgBw4o9dhNhpa/VaXTNMs205fW/9krEspiMJ1/ajWEF8gYGc+N51u5J6fjojbBBhOqPObDBs4XVvrhbEndFE6uVGpHi1ph06avnbw9WXP3/7UoplCuX98kSc59h2HwC8h6urh9AkmFgqGHd9xSbk2JYHAGIitOyCKAA3wE/VXR8NsXXvFp1qLjUfYs1yzEat1tAMs23Zm1wwc9cLHMf2ADCCKK6b2JwVrpeNf8qEQqPVVvOfLroXf//x379L8VyhXC4XHqvMsW0PAPp3V1fhSTDxkCFQQsjPhwI8QshPz24V5PyXOw8AE40nUgmeBeBaxtXDDxpkeyGuWVWUjxddAOBiyZTk38l32hc3zx1ke7vC+5ex3Wur+oKB5GJ8qqS180ajUqnWT28eLj7/+Vu9slXXZx7lSx/eGyUxPInvIGw4KsSKY6lvCrd95tSVjXZ19LKifrrqA2C4WGJ0wdjmxV1/8wx9x+UDnvlTxssV3Spq9Uq12vh2d3f69x+ntcpOSw8eSA8aDZM9cbT8T9gyCCEro3fwCCE/ObteKHy58xDNHJx3XLttGrqu67peL849gLgW3h92ce3lD0a9IqOsfrzogolvn9z2HGtUMH1fXuu1n1ksH8SJmzzu9tqcYNRLGL18GLxZ5DjPXn1wxZgIAFhBKlRbptO5PN5OMvAevhYKNcv/yn9LL/SNrlmv2IR4IchG+HtZQe4YQXiF1+02sUrlP1bXZg3T1Ur/f3t3D2bItvYN/J73eq5reaLyRuWNyonKicqJOBE74kTsiB1xInbEjpisMyZiR0zERExER0zERHRER3RER3RER4jqDaoKRfnq1qPH/H/RXKO6Vn0sy7prrVp38NPdM3GOWG0wXX1hysnXPRkwK7d8Md3/DtzrnaUpM1m90Xy9Px40Mj6B0eLhczBaVS6oRbnAb38iAHBpCPAA4Oc2b1abz0TkSBaT7nP2Zi02K0dEi357e9mB6XT+9mOD3Wr9kYj4YDYftJ1zmp3NbiUiGna3syfPpy/sXL/EdLhdfrveXRARpx4jkc1pY3R4eY091BBx+/WtwydrcYaL9ayLES3aVWXlFJPNbiMiemyvrcez68/frgqZ1QvUrxstqTFu1vtERHb39st/P9YpF99qs3FEtOjWuy8KiNvl6hMRidF81nvOiYZmdR5sv72dx/6c35ezNmUmqzterd9IRPTcrCpvi5ptdoGIqLtcBQgArhQCPAD4uc3nSkdZ7Ukujfvd1z2mNjn9TkZEj9ViU9evm3fT/uT3V+37KHNl1EMbcFv+d7/ff110aXV7RSJaNIvloe6DcTUc/vzjJn/ef/KGq7ojGBbT5Sci4txBLTIxe4NORkQPxZvyy26o1W5VlpRs6soyPtntkSbz8gU65Yhsfq9IRHSXTjcPdJPfsgrZ/V6BiBbf0zebhzGtJ9PfF0TMFfZbX1XI651y8U3uoJsjoqfyTXFIp1O/MOaNNx6n/d3LSh7H7nXzRPRcz1d1l3reLwajt6+Y/Kn32qbMoO5u7Mnu9/JEtKin0y+LoQHgJ4EADwB+bma7XSQiaubzyz7LtJsPuoNfXxmqmP3JsEBEj5/DwaI62DXtFqNO58e7s3Xq9rA57Up0kK1q/bv5sJ50Oz/ev3LP9mjcxYgW35PBeF1JtjAf1tNe++9fjdcNeRuMHr/87nRGi83+eDzuN/NBb/z7gojE6NrS/5bwTVggoqfbsNufrfe1LvZ02K3nk0GnPdrcX4xFDRHvb8Lp5piIaD5sGp/stOi3WL3xYlMrZdotR5P1BRFz+rWQ05ZMB3gievzsd4fz7aFa6+bTYbuajfvt7vRyvO4tq5AzeePhiOjhs98dLTaH0znNp+N+PRt0+r88EjEpng1bX1nIq51w8YnM/pukxIgW3/90epPVvjazdT7uNovpsNseLO8LqdUvzF0+uwx55/1y1O39/PC6kzB542GRiJ5v4/6sOvg171fjbud/v53xecjrmrJh1m2x+ZNlrULOx+18NP2diDi336meiDt54+KIFvef3O54uTteXuB+s5yNeu1edSIyAPzsLp2IDwDglUaVkJKGmDjR4fG4JJ4REefwuXgiEtdTdm9nB9aoub/5SGP9fyeNmKS978Z4nlP+zbtSlZSL3jzR+ayTcSh5v5kguTwuh8gRERN8HomImG+9cDVx88bxy7Isz0oeRkTMp8sR3St4tIR3jNPOjImhUiHE0wmJzsWDGxr9bYAjIilRyni2s+7xnlxv46rOejmfsNqCMbb2EuJmAnADs07KsbyNHKdeUylSyQU43cnO1LNSSuGWpXCunO6uTVopF7c6BP0B6S/J66vQjkTn6r7XDmMNkyIb2czVROfMVzl0tYwcTHRuUPFUR198dX+VkLi6mPory3yl7VTq60W1YurfcoLD5XFJAkdETPJ5RCLiQmuHeOr3ZdZJObjlWfC8WowjVsn5GB2f6Hz/9+U1TdmksMrIx7jVZRMCG5nca7pKo7vC7OBpAMDPASN4APCzs/iL3VYu4pEEGt59a3anFm+s0Oo3s34rI2ZeTwZltlgYEWfeSoNHJrOZI2Ibc5rM7my7W4r5JIFji6cpWRy+RKnTbybdVjNHZDpl+fvdZe9isseb7Uoq4BLN4/vvzfaQ7KFUpdsvx+0ckUl3qCazhSNilu3E6OqUtY3cf7ZwvdvIhFwizxbP07nJ6gllav1uMWi3WBgxy3aGOsPTYZvz4Y5itloYcVa7O17vt3IRl8gzRowTJE8k1+rWo7aNwk22aLXfq6RCHkngGC0WC2K8ILl8kVSp1c8fXHHRZE82u6WYT+I5tniem0RPKNMYdvN+u8VM6ydr8ua7tUzE5xB5jhbPxHjB4YvlWv2mfpkLszPZHHZKiYBreUAcL0qeQCxT6TR1y+C/vgqZlVu7Od1O2Xe338rFfA5RiRwZ40WHL5ZrDLub2cxNZjNP2/MXj6Ss6cIs26+27al46gbHXnyF1V/s9rV7wBaLxYJxgujyhRKFRr8c3Hv0Jme23S7FfA6Bxnffm92x2RnJNPrtYtjKEdN98079vpjsyWa3lgo4BI4tnqdzi+SJ5Vr9dtZvs5iP+Vof9X15TVNmDpfbyleE5+h5QRwvugKJUqe7lck92+23CjGfS+RXddfhCSVytW79ggvDAsAZfZBl+dLHAAAAAAAAAGeAETwAAAAAAIArgQAPAAAAAADgSiDAAwAAAAAAuBII8AAAAAAAAK4EAjwAAAAAAIArgQAPAAAAAADgSiDAAwAAAAAAuBII8AAAAAAAAK4EAjwAAAAAAIArgQAPAAAAAADgSiDAAwAAAAAAuBII8AAAAAAAAK4EAjwAAAAAAIArgQAPAAAAAADgSiDAAwAAAAAAuBII8AAAAAAAAK4EAjwAAAAAAIArgQAPAAAAAADgSiDAAwAAAAAAuBII8AAAAAAAAK7E/1z6AOA9GzeLxfbY7AxH3ZZLHwv8ElDlAAAAAF7lgyzLlz4GeLeqftPvtwvylCb1oPnSBwO/AlQ5AAAAgFfBFM13aDoczy99DNduOp7iGq+gyr09VDkAAAD4IRDgvSvTbjnutVps0Tq6gm+qe+O2WN3RfHt86SO5NFS5HwRVDgAAAH4MBHhHGtbTQafVYrZY7f5kdXj2zvC0W056bZZ//fH3t8eFyWwyrX02buajXrvVbPrwwWS22NzBZLk73d5Du5gMum0Ws+nDB5PJYnP648X25mb9tN30wWRLdonmw3o67LZZTB8+mMxWp/6suknbhw8fPvx+uyAi+vbH//2gMLnz45MLpWbU+uGDyZ0fEs375WTQqZ6L1RnMNnf0d6f9clrds8lksdq90Wx967LPh/WscmmU/dm94fT2VgZMFtPi6fvnP/9ttbrjxZf1uftZt9n0wWQNVnV/Pi76LaYPJos3P3zJXn+cPVVu2i3G/c5ljXP640ZxybRfTofViqlc/Wh++3ZepModW+i6+bCeVU7HZDKZrXZ3OF3ub9Xli1Y5AAAAgCPIcNioEuB1V43zFAbn2vmkV0n4RE7bsxRIVXqz1ce9nEf9jPGCwHOMiIjEREe3j1bKoW3F8by2FRHvynTWdia3YgIR8aFCISAydfPlxpwr11O366Qkpv33GsZ5CqOTC5VrAY6IxFgp4+G17Vdb+0ojWW/WK/gEg8rKpNTaaQ9KAYGtl69tJUZqm3vcMhs0MiGHdleZ4IkVOpNDf6QzKXnUE4g0dCcbUg6E+SrLi6Bc9r027uib2l/lRqWAoF1WQRDUG8WHdGc56+Q8y6u3fvM5R6Klu5AXqXLHFro0qIREo9KFSGNtvxeucgAAAABHQIB3BKPuOReqzQ7/5X6zXiWl62dnaoONnU5KPo6ImCPR0DqQo04pEQitB5gjdSMhkGuN1B1MeqWIxIiIxFhrtdO1U2GCL6PudNSIORgREecr6bqcFR8jIvKUtjuiJxSqBnhqVzikdmtnyz41r7+WM+0gOUes1BlMZrPJqFPLhCSOyKV19methMiUbSo99ehmo4YaQa4HBfvMRo1cxLXsswueWOnoPvdMi+TEhC5c0I5+Pe57NwHe4So3a4R4IiIxUhksb2stEwpk1o5vUgsJRES8J9XQtpoNagkl+uIDtbWLeJEqd2KhvZSyD04KFVqDyWw2G/UahYiLJ5JS2t29fJUDAAAAOAICvMNGOZdBh3zV8XuB2aCWCkhaP5t3hLZDO0UrwhMRM+ruLvfVighExByZwcYng4yDEREXqG0NJW0NOXQSIhER85XWj2Nnb/ukQpcBHpP0ozuzRoRXIrzG6j9HORcjItKPnciyLI9alYZa3KjgYkQkhGobR6bFJyfdnlGrEPMs+9yiL1HqHdPnnvQalUptGWssD2HQqlVqrc3A6YDjj/Zljq1yvZRERLR9Y7e3EROdHc8j1oOdi1S5kwqdVAJqYFrZKHTSqdS0sc13UeUAAAAADkKAd9hM7XPqMNdxD+y39QohaTnp0hHJNYxDO4XaHxUijZ3dv8buGFDtiAurwSG14yvEWpvbKt1nEnW91J297ZMK1QK87a75rBJgRESu3PJiqv3o/RGGGnMLse1RL3WXe2NiY5NOaTVxkRN9mdb76XK/Ljw8pcqNcg4iIm574uySWimN7tCk4CIi4kK15X9dpMqdUuhMje+EvWOov1yVAwAAgJ8VEp0fZvJGg/ztl6f1/+O8Ue/L8jD3q9kv989EnCtVLcfdFtPere3hsJT9eP/42esc36Rvon77Zm6wYbf9RESL7o3Xmd388/GQiGg63lzRwWzZSjFmtpqJHmk+3l6+ZduLCiWTebNUk8ViIXqk6Xy5SkW/3V8QkeB0WncWP+82u0RE02rU2d78cDpcENFiOp4SnZRIzWwPpqvBZL8Y9f736+PD7U22HS97T9nD25iWvZY/vi32bsMcmX47bjX+8KQqZ/GGXezu+/Nt2Ontpm/ifufm9tNud0hE1M8HneWtg+0TEc3H082rf5Eqd1Sh/Xb3mYg4p9u2u/hfq8oBAADAzwwB3hFM3nw9N/XHbx+VXjbvSlWLwZfFd2Sx2Xi6f6Ln7zfh8PjmJhl27tuTLVktD/3hz/cPtx9/v73hJX84mUwGV3HeuK/0ap8e7p6Md8HZ7NbDx2XaH2nqnavQpWWANx8rPW+Ldc9VmY/Hz0REz493d4+GWzDBZjs9Tfa0X00nk/nbRyIiZj3pDA6Zz/evtGjacwMO35rFsD8mshp/eFqVs0bL9aE/+Onu8dunP7594kRfOJlc/5PxeLwgInp+uLsz3gWz2q1HXP2LVLntQqdKjTNb9kW+P2OVAwAAgF8T0iQcxWSPVofjXqNWqTU6o2Ez6Ty9K6cy+8tDZaWLxeO3v//7b6uSG2t379/qz3eHvUoq5BLY4un+66c//mV1pjcXhuf0ixyum7bje4YmXuNNCj1ixXltE0du1zTC+bDoPeUWTbvlpN9m/efvn24fnpngihRaw27ybJetHbf+7wG2ZHfHH5uD1fmeQfjDC7icWuUs7nR7OKhlIh6Ro+eH27//+2+rPVrfGB7beHdOd/X7aedpF+hoqHIAAAAA+yHAO57Z5vb6vW77gVmVh5ls/mS1P1TWql88KrmxnOF8c2c6LbPNnyw2h9NeJeHiiZ7vPgZv2srGZmWoSxv5+jHerlCTWbm84+GeRGFms5kREU33bXQkpZ9t+dcfn24fnhnviORaw2Ezv39c9fyY6cWPDI5xcpUzWb3xfL0/HjQyPoHR4v5zMF5VbrZZmWm7GG9Pwn1Db1nlzERE0/GepyzXWOUAAADgSiHAuxizzZ+u9oedUsIjssXT3Zc/f/uH1Rk2SOe9ZLL50/VyhCeix3p1SEREVpuNI6JFt9k9e/b1pc09v2Gh6jy7x3Z7uHMbk81pIyIaNl+TL3qZ6PvT7cOCeEco1+gP2/noG/SzndnhnjE4WZbleTdpf9m+zVYLI2axHvHY4fQqZ7K649VqXCSi52ZdGWO02G08EVG3uZ3S/nx+XJWz2W2MiJ67zf7ujX66KgcAAAC/LAR4F2a2B9P1/rhTinkERk93X/76zz8s7vyyq7nVmTWpAyjaag4md9DNEdFT+aY4PPfRmcwmIqJhf6NT+4aFWt1ekYjoLptu6uOHeb+czCr/Z/N6RSJa3KVvmi8KMqb1qM3yrz8+fXtYqNnghu1i1H1MlLR2QMN2vd7sbnb45+NuvV7fN+v2rGzx9vyk+PBAldt+V9Cy8UKdPejniWhRT6fP/1Dhx1c5s9vvZET0ULwp6wudD6vJZFX5v/dR5QAAAAAOOzCwAD/QqFWIuQRGxHwV5fWmVkzgpVCm0lFzrc1GjZRLWdN9bQH4jpqmmQRPqtKbaImnR51aIRFySaG17F7qC1sGKbsGGWlzv7I8yDiUHQcKndFkMmjVGlpasBMK1dIkuApbi8AbHc+o4FEWjuekSK7RG4xGo16jlPAIjEjSluYfVQK8ulGosMw5N5sMWpVMzCO5UvvThndiAhFxUiC1IwHhYctE5xsXs2OQ6Pzd2qpyg4yDE32p0jK736iV8wlERNxalrhBTqmFxLtiJa1yyrNRr1FKhVySbz2FyEWq3GmFTmpKJjtiYiBT6wxGo1GvVUkFRLa+4eWrHAAAAMAREOC9O6NWIVVS+6Vqgi8iIsZxnJaOj4kbefEGpZC4ytXHGFtL3Md8Lw/wVsGWRlolPzu60BMDPFke1db3vMI5MqvU2pOWGusalS/uzWkmy6NaJlPpvaqfPSl5yCiS0+K+ZZT+/q1VuVHBs6xlazWOhEBFt7rIqBaTdl195sq9PMA7T5U7tdBJKyHpS1V3KsbWvmmXrnIAAAAAR0CA986NWoVEwCUKHCMixgmSK5Qy7CbOBrVMxOcQeaXTyThBcvkiqYI+qXUvJTEizrOdpV3pV7OtLvGkkwu5RI4RMY6XfLnO+u6OK1RuxQSmHwJaHY/D+HhmvUoq5JF4tWDRFUgUWlsHPemUEgGXpFwdYhwvOjyBWKbS+RH5onsZB0fENkOfQcHHM2K8Jzf4AQdxfpNOJRXySALPVpe+ZHhBR41czOcQ+fWrH0rkaj3dxhepcqcXquzYo9QlxvGiwxfLNUZb37SLVjkAAACAwz7Ismzw4BoAAAAAAAB+NlhkBQAAAAAA4EogwAMAAAAAALgSCPAAAAAAAACuBAI8AAAAAACAK4EADwAAAAAA4EogwAMAAAAAALgSCPAAAAAAAACuBAI8AAAAAACAK4EADwAAAAAA4EogwAMAAAAAALgSCPAAAAAAAACuBAI8AAAAAACAK4EADwAAAAAA4EogwAMAAAAAALgSCPAAAAAAAACuBAI8AAAAAACAK4EADwAAAAAA4EogwAMAAAAAALgSCPAA3ql5M2o1fTA5s8NLHwkA/OS6SZvpg9mZ7l76QAAA4O0hwAN4n4bFm+LjgtmDfuulDwUAfnL2oNdKz3fpm+r00ocCAABvDQEe7DFuFtPpdL45vvSB/IK6+ez3BTF3PGy99KGcybRbzqbT+fpwfukjgV/JvF/NptPZavcXr3f2eNRB9FxPl4eXPhQAAHhjH2RZvvQxwLtV9Zt+v12QpzSpB82XPphfyrwZtf72+YkLVMZlv+nSR3Mezajlt89P5MgM2nHrpQ8Gfhn9tO2fHx9IiLWGWeelD+aixnmn9c+7hZjo9dO2Sx8MAAC8IYzgvUPT4fgXf9Z8VtPx9Ke7nPNmsfpExLmD7tdGd9PhGFOyzmc6fuMv54+6X299IvPxEPXufObnuF0Wb9BORA/VIl7EAwC4bgjw3pVptxz3Wi22aP2nC0nere6N22J1R/Ptn2meabtafyJiTr/7FQOn83417bdZbcHyz3Tq79uw6Lda7OHsW8wz/aH36w1PZD6sZ8N2i9Wb7p9717+seTVstdj86Wr/VbfL6vVLRPRQLePWAABcNxmOMqilAg6B53hB8iUqg9m59z/plBIekSk3hQvV1j8bNXIRjyRwjIhxvOgKJEqdyfYeWoVEwCXyHCNijBcdvlihtblZLyUxYmKiI8uzQS0Vcok8I2Kc4NCfVSchGlYX5sqNTi5UbkQEIubKDWR51islAg71XARHINMYbW6t7rlXSql7ZowXJE8kU9u67LNBLaNcGmV/kieU2tyql5LUYxdcsUJrR3EHTGohgRFxjlRHV34rIXFETIw1zlojOjGBiEhK9V7297NeLRWQOPW8PaX1OzLpFGI+x7I2OXyxnMFFmfRKqZBa6ZQrG8lt3apRwcOI+EhD1iopzzEijpc8sfUqOsg4mGF12jjBowo9ug7rLsigllH2zBjjBMkVSpV6W/X0iOo0KrjUU+EdoVzjTA3Bvvsly0rroH3N1O9ZxKjwRkQg4jyFkSzPepXl94fjJU+soG8z3uREZoNGLuTg1bvryAzWP1JulfrNl1yhVKW3Vehs1MjFfA5tsx2N3awS4Ig4X2miVme1ceRFVyS31vxMSj7jeqdU2fVjO9iMHF/bdX/TKsQCDu0uKLfN4Mt2uBWdVQLaj4MUMDi4ozUi/Na9AQCAq4MA7xijSoDXdRA4T2Fwrp1PepWET+Ro9fOt6/j0ch6t48cLgtLFIxITukBj0ko5tK04nte2IuJdmc56X6AVE4iIDxUKASWaZNxqtOjgMwAAIABJREFUY86V0/rbnZTEDPpGTOk8nlioXAtwRCTGShkPr22/2tpX2uzyzHoFn2DQL2PSenw1KAUEtl6+tpUYqa3vcTZoZFa9TiZs9XWPoEZcRPoAd5Bx0Ob9GJW0G7YT56vsPQB1txtx/lFmg1pmGSoQE336/vGoFBC0SyYIgnoT+FBDt49OzrO8XOs3lnMkdP3OQUYiIubLVGJKkYzjeW1jJiVaai0Y5FycUW1ijlWAd3ShR9fh1WFWQqJR8UJkPSw/tjqNWoWIa7kl74jkGqOXR0cH7pcsy5NGwmFcoZgYqui/OsoXzZGo5HyCdmmW14YJobc7kdmokYs4+GVRrsj6s5RZJ6WF+BwvCNq1deifFo1qEUl3B7SbJvhKA90lKXiIiFypUsLFaTVmtXWkpl7BSSXAGzRjjAmx1nJnx973o2v78ihbKRe/VTgR58oNdFsd14rqHgESJwUMHngdYVLwMCJivq2nCAAAcEUQ4B2hFduONrhQ7dXPvGe9SkoX2m3/ZE9KPo6ImCOxfPA76pQSgdB6gDlSNxICuZbWRZv0SmpvSYyt9TzWToUJPm34bNSIKf0vbuNnv6I8Ad8eUjipULXfqXabQmp4NVv2u3n9tZxpB8k5YqXOYDKbTUadWiYkcUQuLb6ctRIiU7apaEMxs1FDjSDX41B5+WFurT8r7H7qbkSL5Jivout0Kb0l3cDmamhkp83LvHmo6vU67Sm7Po7lRF+isjlGNWuEeCIiMbIc6Zr0aplQILMWN09qIYGIiPekluM6s0FNjTL4QG19ZE5anhPvSqi1d9LKKN1utnECewYPTij01DrcSylVkpNChdZgMpvNRr1GIeLi1wcQT65Ok04h5llFR/p45ihH3C9Zlns59VoKvlSlM5rMZHk26lQSaujAHJn1eFb3RQtoI7OTXkEN6/nA1pOF15/IqJWLuPi1L9bWHgY5ByMizpPpLK9tqxALxNaPpqcM8zIpsvpiTjoFJfrSn6ca4C0bCeWB2Oqx0Mbjr15KJCJaj+o0p9z302r7RHsoyHtSlc5oNptNBq1KKiAyYr7K8tqd0IqqH1ZSvuUDAd4Rypw6+Kp+fYyuBgAAXA0EeIeNcq7tPvrLp8/JsjJfKaD7md7xNLYV4clw0tbavloRwaA3LS9nxnGBVfykdY63Hk+rczKZr7R+HDsDvJMKXfY7maQfjJmpXX7dCNIopwRI+vEVWZblUavSUItToyghVNsRw+y6PaPWen9W9CUMZuoZmY06tUqlsbXxpNeoVGqdjR7tbL8DZak9SRaoHNd1m43WJ8YpY8CGJ6XOVt0bOKrbiInOjmcNa53eZZeX3xhiGaj3UD9EszvAO6XQ0+rwpBLgjEObSadS04bKX1qdJp3SavT96CnAR98veVLxcduRhizL8qynjonpno7s+qLJs0ZEINqeYv26Exm1CrHVMxPRYzh1fDm9cO+AtHqfuO3hfPWurgckywCPc2V00zzV6rIR4e0O8E667yfVdrVGMym1UaVng0ZFuzentaLrO+nVMgFJq0G8I3TC4Kv6c7b3NwUAAH52CPAOm1UM3uRgrq2H+kfqFULLt214h+GrNCta7ybS2Plr3NgdA6q9DGHV3dn9+Fbpa5Co68nuDPBOKlTeOSKlvVliMAC2NwpROylCrLP1kbrL/f0XXX+WE32Z7fcGL6ilhr2RI56xDyqx5cQ4TgqkatvvNa2McsrUz+1e9JJa4QxH2Qou0vfT1S4vvz2arVYC/btOOwO8kwo9qQ7P1PhOSGzXlJVXVqdZr7L2Bp3gSex6r1Q+8X5NSsoAsWh09DM1+Ft/OrJn6FedZLwxBP3iE5k0UsvnJJzBxFIdLVrait9Xu1NaGsN5Eer9XjspNcAzellRqS76s9wZ4J1230+p7Vp8tz+KOq0V3T5G5Y1Hpv6WuCKVwZ7CVmemNOqvekIJAADv3P9sBi6wxeSNBvnbL0/r/8d5o17Li/bWr2a/3D8Tca5UtRx3W/avgm8Ph6Xsx/vHz17n+CZ9E/XbN1dVHHbbT0S06N54ndnNPx8PiYim481V+cyWrcUZzVYz0SPNj1qj/UWFksm8WarJYrEQPdJ0vlwbrt/uL4hIcDqtO4ufd5tdIqJpNepsb344HS6IaDEdT4l2LUFptgfT1WCyX4x6//v18eH2JtuOl707y/vBptMpEZHZfDhDwrie/fvuiYhJsXI17bfu/wuLN+xid9+fb8NObzd9E/c7N6vftNsdEhH180Fneeu4+kRE8/F048qato/UolSw+VEJKl5U6HF1uN/uPhMR53TvSfv12upksvmTZX88XY37g5/vH799SteT7rDhxqfdr36zuyAi3u21G5Tq9Nrp9js99btDclt1H2190YhsTjv7+3GxGPaHRDsuxvEnMm9mb749LoiJoXw1G7btX+vVGfYLXz4/3n9yO8c36WTYu7W9eqbzetLtvNksazgmIjLIumA2be7HbLYwosViPp0THfr6vOy+H1Pb5/12n4jI5nXuuTIva0XXjsTqjhbb4XTzxu//dPf0/fNNNek/mGHSZDKbiBY0RS4eAIArhgDvCCZvvp6b+uO3jwsiIuJdqWox+LL4jiw2G0/3T/T8/SYcHt/cJMPOfXuyJavloT/8+f7h9uPvtze85A8nk8ngKs4b95UuwNPD3ZPxLjib3Xr4uEyn5Fs7V6FLywBvPlZ65xbrnqsyH4+fiYieH+/uHg23YIJtf6dz2q+mk8n87SMREbOedLCHzed7O0+mvRdb+2PTEQGe2WYX2PfHxeI+Hw3PxzfJsHtf0GCNlutDf/DT3eO3T398+8SJvnAyuV4Dx+Pxgojo+eHuzngXzGq3HpO6wURENKdjOpFnK3T7sk6V2mS27HuQ8vrqNB/W88nkzdf7hbLxzntw0v068F2wWCxM6akf80zGZNH69fu2PvZETFanjd3eLxYPX+LB+TSdjnr31DuTO1svTP3Rrw/3X/76z5ek4AjGk8mo37b8k7ESyCye7nc1KLzdfkyLayIT0eKoaneOZmRVLK3X9qlaoy3bDyHWvL4VnY+bxZubm+LdMxERbzvum2kyET0THXeRAADgp4Q8eEcx2aPV4bjXqFVqjc5o2EzuezC7n9lfHiqLqywev/39339blRxtu39srf58d9irpEIugS2e7r9++uNfVme6vdFN4/QLIa6btuN7hi9e400KPaLboW3iMH6hSJbl+bDo3XGLpt1y0m+z/vP3T7cPz8pyf8Nu8nxXaFz0mv53P5O/vKeXbVKHHo4Z/jK5s/1+IxNy8Iun75///O0fVuf+1GYWd7o9HNQyEY/I0fPD7d///bfVHq1vjBNsvIqpu7L9tPOYy3C6tyn0javTfFhPB+2Wf/znr6/3z8qiF/1+dmd2+tPu1/5jP7F/fmDzE0/EnuwOW4WIi2fP91//+s8/LPZgutrfWatNtnC5P+yUEgEHzxaPd1/++v2fVm9+M6mb4VxUxbgafuEjtZ1e1Yzs37Oy60OLLSle1IrOx8181Gm1/vbn5+9PC2Wy77DsP+Zgl0+fTnmkBwAAPxcEeMcz29xev9dtPzCr8jCTzZ+s9odKeoTF4/fPf/7banWG882dHXOzzZ8sNofTnrJ83vPdx+BNW9nYrDze1572/xhvV6jJrFze8XDP3CSz2cyIiKb7NtqmhHaWf/3x6fbhmfGOSK41HDbz+4dQX+JQBdk/gkdmZYbd9Kj5jWSyuuPF9lBdbv/p7ova3a7vTIlssnrj+Xp/PGhkfAKjxf3nYLw6XS96Md43Nezc3rBQdbLidLxvPtrLqtO8r0ZEH7/eP6tr4A7bxfjeIVQ65X5pkwENJicqJzVUhols1iMOdzwePhMtv7pnOBGLM5xvDodKeoTn+68ff/+n1eZPlru72gSLPZgut8fjTini4Iievv0ZzKr5ttUq8EOr3UubkeP2TES02N8+vqwVnQ+b+bDT+v9++/Pz3dNCWX112C0nvbbjfpfm6oMj86t/xwAA4P1CgHcxZps/Xe0PlexGi6e7L4fHX0w2f7pejvBE9FivDomIyGqzcUS06Da7bzflZnPPb1ioOinpsd0e7tzGZHPaiIiGzfZxXbNpt5z0qqHdQll1rj9s56NnD+2IyBKuT3c9kdcezO9/1K5OydsflWwwWb3xcnesJsx+vv/68T//tNj9e0dVrO54tRoXiei5We8qRdttPBFRt7k5RHw+Wyf1hoXa7DZGRM/dZn/3RqdWp3m/mg7aLf9cRkSpWm/cLcf3zVLcKvOY+2Wz24iIntpGRz9V75no3Hovd9rfakOm7WqXiIiz21Z1/gwnYrK4o/n2UBmVpOeH209//Mti9caLO8M8MtuD+XrexxHRfb2pXHGbU7lPbeWtuHMzPp2Tm5GjmW02gYioX99Xo09tRefDZjbstP7jtz+/3D2pq5YO+9W0/7hppKrpeKpOH32Dxg8AAN4JBHgXZrYH0/X+uFOKeQSmPc9355cduq1ffpP6dFh789/kDro5Inoq3xSH5z469TWwYX+jA/SGhVrdXpGI6C6bbuo7R/N+OZlV/s/m9YpEtLhL3zQPxQTTetRm+dcfn749LFbDE9FDwxPbu+k26/X2dse536zXm7ujqJew2qyMiBbDk0cWTDZvstxVpwDT8/3tx9//abUn28s3HLeDq43XduxBP09Ei3o6ffbYXRum6Q83Pni7Qs1uv5MR0UPxpqy/mPNhNZmsquHF8dVp3k7aLf/8XYmIRF/qtNGTTQful9Xrl4iI7rM31Y3jmrdvbm4XRCSFw1srsNx/8ofLw/X/6RfT9Wci4rxBddblWU9EPyq5ePz293//ZbFF6+pBb1c7s0X/gqnFHdxxn85AHTAfDzcfmJzSjJzG7vfyRLRobtXoaTsfzytR7EmtaD/rtv7jt7++3D2pSTzH/Xo6uBXbHzZUvn689aSwEAAAfjIHxhrgB1qmlVqu8t2KCbwUylQ6apaj2aiRUtLqrq/53VFTOZPgSVV6Ey1P9KhTKyRCLim0lgFMXXLcYIlsdRFw/VriWn5vIVDojCaTQavW0JZ1P6FQbfV2V2FrOXCj4xkVPMpK7ZwUyTV6g9Fo1GuUEh6BEUnaWukjLY+wkr9aK34yaFUyMY/kSi1f5lHWh+ekQGpHrsFjaBeC20h0XtpOdH4G6hrpu7JgHWfSKyV8IqNVEopBxsGJvlRpmVJ51MopqaG5tSxxAzW1NvGuWEmrePJs1GuUUiGX5FtLD2JYZ5TC1YXsA5X1/1SvFufJtEaTyaBTq2mL659Q6Il1eFILqTnBxUCm1hmMRqOemnB6bcOjq5NSEU5IoHi07fsly/KkFlg7+t5opuRpz0XUZAaiPlnkWqJz4hyRQqM3Go06tYxPyWjApNXX4s1OZJXjU3ujrhbgeFckV1tmEh9U1KT0a/dQy9RHTAxkGoNlqvNBp5aL+RxSrLF2qYxql+4K6JqaWS2kpiJPNAaTyajXqGlZ/o5vRk6t7WredqVGt3qj0WjQaRRiLp6IPMujO7oVVb47R2co3G2ipKFhBo0xAABcDwR4786oVUiV1H6P2tMnImIcx2kv7TNxIy/eoBQSV2/0M8bWXu9nvpcHeKtgSyOtslEdXeiJAZ4sj2rre17hHJlVJq1JS411jcpfW61hVMtkKvuyjR1DzSKm63zLq7hv3+oQL6EmDhMTr05VNemUUoWWcvajgmdZg9ZqEwmBiq7POKrFpF1XVhfKnhjgrYKtZcmrvzy60JPr8KSVkPSVWN2rGFv7Fh1ZnWatXGpvzrdXWr9faoG649Idf0CfcHuVBy+S8PBb2/OeQm99v296IrNeJZNTL6+WmZ709Y5z6JOAz3o539pR6++ALqPiiQGePGvFRP2lCyzTKh7bjJxe2wcFn0AGeE9hsLbVka1op5B6ZWinMMjgDgAA1wcB3js3ahUSAZcocIyIGCdIrlDKMFyZDWqZiM8h8koPgXGC5PJFUgV9HvVeSmJEnGc7S7sSyrGtH/5JJxdyiRwjYhwv+XL6PtlRhcqtmMD0w0Sr43EYH8+sV0mFPBKvFiy6AgmD/s2kU0oEXJJydYhxvOjwBGKZytk7rpNaSGBKn1R3lErswDYGUl5NS2J93oFBWZ50KqmQRxJ4trqsxr38USMX8zlEfv3KhhKrURhlox11RpZntQBPxARdonNZlme9Uswj8oyIGC96UvrnFEcV+oI6rNRTj1JPGMeLDl8s1xht3bIfVp1OpBzX8rrwgsMXyRiNR6+FN5NWIaJ9bwXJF8udIzp4oZnuxjJOkDyRTMNoPH2ifO21O8B4QXIFImuDzsr+KgHOqHbJu5uaQS3hU1sTXnTF9E80jrvvp9d23Y3TGu/tynRkK3oWvcSOpO8AAHBVPsiybPSUEQAuZ1r2W/64XTBPaVwP4l0ZOE49aP7P12dyFSZN40Tr8GsbZp3/+OuO+EhrnH+jbCcAAPAeYJEVgPfH7A/7OaJFs1h/s9UsAeCXMqyW74hICIYR3QEAXDcEeADvkMkbDQpEi2ax+iNTgwHAtRpWi3dEJEWjiO8AAK4cAjyA98jkjscdjBbf8voF7wEAXqCbzd8Tcb5k2HbpQwEAgDeGAA/gfbKFb4ICUbesprQHOMBsMTMibiPJHAARtYvVB2JS8iaIDOcAAFcPi6wAAAAAAABcCYzgAQAAAAAAXAkEeAAAAAAAAFcCAR4AAAAAAMCVQIAHAAAAAABwJRDgAQAAAAAAXAkEeAAAAAAAAFcCAR4AAAAAAMCVQIAHAAAAAABwJRDgAQAAAAAAXAkEeAAAAAAAAFcCAR4AAAAAAMCVQIAHAAAAAABwJRDgAQAAAAAAXAkEePAr6pfTyWQyWx9ffaHr5t1iMplM5tvTSx0BvMC8GjR/+GCyxpuXPpKrMi56zR8+mOzp/qWPBBTzcTMf97ttVrPJZDKZLVa7N5yu9uen7+giDd24mU8mk8ly9/QDPqthPZtMJtPV19Xrcb3eNf6kX68PX7VrAPgxZIBfzqziY0QkxFrXXqjOKOciIpJSvUsdAbzApOAhImKByqWP5AfppBwcERMjjdkbljLISHTZ7yOsmbQSEmfURWFSrDU5bV+Xaeh6CZGIyFU48WjPrRHhX9tcjCohkfPt2EEtxAuB0uDleweAHwIjeAAAP59hPZ9OZ4s/6XDstFvOptP5+nB7uGPard89Ey0e2u3hjz8wuIR5Mxn8dP9MJHgytd5kJsuzUasUkhjR4v7vaB6jrD/OuBp2B7887BmHnD9+/cMdLA9/2CEBwAsgwIOf1zDrNJtMJrO3+DazHod5r8Vitlij9b2Tbqb1sNVittgObAZwRuN6+s+PH/+K59uXPpIX6ebjf338+OdNdfura3aGA5IoSp6w1/rjDwwuoV2uPhIRH8pX416b2URksjiDxXxUICK6b3bf5DHGtBy0WswWi7+89wdk3o7bLWaLNbh/s6ugRHdDE9u/GeOmiPEA3jkEeO/QdDj+IZHCdDz9mSOSeTubvXteLBbP3/Jv80Nj9XqtT89Pj+XivtBtXE6XH5+eTd6w2/QWR3GUebdcPt9YzrxbPnlkaNosll/wugzAJlu43O33u/W4/XJfqDcwHY5/zGjrz9ewT4fDJyIii92mu+UWq5mIiBG9SU0we/226fPTUz2/78XoaT1dvH96njuDXstbHIW+sEveu3E17Ax+mXoL9Rvn/i3tyXIhQIjxAN4zBHjvyrRbjnutP2gsqHvjtljd0Xz753wsOa2ni4/qv++K5TeZw2MNhl2M6LlerO/smvWz2e8LIkc87rxgfNcu3oS97uQ5Yrx5N+t1/3Fz4goF02Y++YfTm730CgMA7868X037bVbbjxkC+gkbdpPFzBERDXVDdfNuvnhPRMzufaO21eyNejmiRbtoMJKsGpez9WciIRz3m9/kINZd8N4p0d3cW2hXwzYT0eI2aDLk//JMZLKFy81SgL7+4fYjxgN4ny79EuDPYlBLBRwCz/GC5EtUBmd/+X/SKSU8ojovggvVNj6ejRq5mM8h8hwjIsbxoisQK7RGm7uZVQIcEReqzZRdBhwCz4gYJzh8iUpPd9i9lKQUxwSX0b6O0cu4OEZMCFR0fz4q+HhGjPfkBi/Z6zEGOQcjYp5MxsOISEx0Tvjj49c7GRU8jIiYr2T85vxMeaOd2/X5iwp9kV7OwxGTEo3dB3LE2gOzTsbFEXOkOidX8Vkn5WDEuTKn/+kvajZo5BIBjySoX2tecHgiucbmN3FjkZVZLWS4GAVxgcr6lde1GUqTkSh1NmuH2mL4ShN50imEHAJHxDgxVFE2VOo/H2nIsjxq5CIeiecYEcdLntj2zmRZnnRKqYjPIQocWyt2reUZZBzG079W1XJU8HBETPuPScnHiIjzFAYGF7GTkhgRSZm1Dye9UirkkQS1tRQko8u6sciKciGIcxm2WUopzJEx+nCPWa+WCmiLhzDPVisx6ZQSAZfWrjNedPgiucb270sjIhBxnsJIlme9Skr9E8bxkidW2LgPZ2jYdzXgb9awz2oBnoiIOTJqLZj1Cj6BiIhOX2znhEVWZrUAR0Tk2HVGnYRIx935cyyyco4f5ZcssjKqBAQi3qd+xWadUia1R0b77g9KAYFI8GHNFYD3BwHeMUYV5ddn1ZUy7mu8yKRXSfhErcvGSYHURiAmjyoRybhPxDk2+vNKX5B5MrWUSzlkxvO89sdMSqyvRzYbNDIhh3ZmTNjuKhw89pJH+WOlB7ikdUGZb9XlbMUEw3NYc0KU1omJRMSHajO1+3dS3HRCrDUp+Tjjvtnap/wxXZAdhU5G59IrBXjaF+Md6vco0R1xnlznZUfQyng4Qox3lEHJt9aosLUv+LKbpdpcRbMREdh2e8AYH6gtL/uotmwzGMfzSgBBtN0XU3fuSpVi642MVkeUKIj5MpWYEqYwTt+e6ELKVmJtH2ztIJkU07Yc5FycQWvGmGNZLTfXtxxkHMpBGXSy1WZl9Q2cdXKeZZu2fuacQ9f6bZUyyrnYrq/HqpRdt3PLbFDLLEM7YqJvK7qeNBIO41CdiSH9EzNZCUMciUrOJzDtPminxoRQbaQr+rUNu1EDvuP/e7sC9pWjLpsW+HOuXG/UygWUp51MfMl6jaesojlrhHgiIuMITv2U81UOX8CzrKL5+nt3eoA3qLwmSlNivM1GCwAuDgHeEYxCE2WQ7HVmvUpKF9platuPbmcdtdPExECm1hvNZHk2GbQKEbVvwPlKa7/tandN3WFE61JMWhm10yNEWhtFzEaNXMQlLPsKO57MG5+B9oMvJnQ/pdoVW/9lP2eAN1GetivbTyrHB1nacZ8wmKY+2Wceg99ttVNy3HLcxoUqv8bntSvG29vvUaO780CMd1AjxBEnBRKlRk+5V7NRpxBSurW8rnUxTpOg3szt0X552elmqxZAliedQkBgRGuDJOs7Z4yIiaFCazAZ9VoVbRBJjYKIiIh3JdQGatJS64p+YGOUcxATXJFcrTNS/nw2qKWMtlzWe8Nu9VYCA2W43ijCU1uV5aaTWkgJxTyp5TjYbFBTIyk+UFt9L7ZKUUfrDZqhVkRfyn76Pjon+hKV3vbXsZdTL4zgS1U6I2XhyE4loT2Y090lNcBTPhEDOXVoZ9IrBNSWNrAVgbymYTdqwHf8fy+14+njCh/S72WHzVCRk0InBzeK09IkqHfX6PGB+gBPiG3+aho5Y5qE19y7EwM8dQzuVXkPBhXEeADvDwK8w9Rfiw2vyrEzG6xN3CHeETIK7WRZluWB+lhZCNU2GvhZKyaS0u1Y9UeWAR7nyunHAdUwaOezyFGrEPMsf1FEX6Jk0CnZNuk1KpVaa7QZNQ5atUqttXFSswOOKE851pyLETFtVo0agvHHx9wnzZac1UI8ETFXYXPCjDp7x7P1wQmFdlIu6bwEjoiYFNuO8Xb3e7TojvHi6w9A5BkhxjtkNuoNtu6QOuNXX0lODfDUxx/6Rz+yLGsVVrf31SOhzXnWsiyvBXj8xvN9rWFy5NafLw16my3BcmRs4wnJSQHeanRtY/PN+E6d4SYmNqveciB+9V3dLkXdSNeirh3r4edPs1EjtxbaSYGUUWgny2vN8VbjMeulHNtRvhbgbUzCkOVZQwlPmCtn3Aq9rGE3bsB3/P952vXZoBQStZ9X5khszE+ctXKRQCCU2jMFfenEPHgdpRZtb64+wDtyYu758+C97N6dFOApzxlEg1+LU8xaCYmIOVKnvCgBAG8LAd5hasdcz6C7f6ReIbR8J4N3GL5wsaJNTjJ8Q0Dr9ax1PLS+oMGEQm20be98mUmntJovyom+zKkpZn8EpZu69tqb9vqM/h2kPU57HU7tdW92odTAjw8dOXL4oxKdz1rKZLvtGG9Hv2c5drf9FOFltGEUxHgnm5SUdz7Xe2cnBngTpZ4ZzjFQA6K1HqsW4AnGA+BqFGTw8ESNpY6YfmfYfz4twJNHBaP5k+rpLBtANYA12umksHm5DEpRGxL9d1QLug+EC4NKzKFNXuWkQKrW21P11dtsHDPO1OBvfeBLe1PM4MzUy7s5m3KjwHfesC9fQ9Am9m5O/9Vu11FB26mJztXQbHN75coe8371+l7Onuj81Ht34hTNSSvl4LYmMJ9g1km5OONHigBwQVhF8zCTNxrcnEbHeaMvXDK5X81+uX8m4lypxnDYzkfd1t0LhM277S4Rkeh2W7c/tbidViKiYXdreXqzaWvBL5PNaSMieur3d6/QZbYH09X+UJn58/xwe5N9d1m25vVs8YGID64WNTN5w36O6LlerL7FOuQmdzgoEC3a5fWl1sblbPmJSAzHL5gdwYjJma1mXRwt7v/2h8uHL0gz6v3r+zMxR6qa955lnTizN19NSIyev//ljTbPscdfhsmkVKY5vXg10n6zuyCieT3pdm6KKss4joeb1YI5vfuqscls3vzUYjETEc3lLm+OAAAPbklEQVQPr+quntP8Nd9Niz/sZkR0X66u1stVk6eJ/rCdiIim3e6QiKifD26duTfdJSKaj6d7DsPkjfp5InosF5vaac3b5eoTEUnhoG3PAY7r2b/vnhbEpFhlMO6Wk17bnuup3iPe7bUbHIVT+d+nvnI66x+Zt7+gNqedEdFi2N/ces27btin9ajz98/3CxJ8he64m3FxRIv7T15/fu2HTa2zZoMr8Gq2aFQiovtisbv6z3k9XX7U/9BcxhvfO7MzWa+nbP1PXu8LVmGed9Nu98e2NVZvZt2XvU4AoIcA7wgmb76uvdtORMS7UvVi8IUpcSw2G09E9Pz9JhxOFvcvhzwdDxdERFabYWlm5b8X0/ExiypbzBZGRDTd18Whab+aDPvjXx+JiJjVbj1iz8eaH3DMPrS4Kr4eV5ncQT+vRHhvsry0MxwUiRbfi6sFofvF7LcFMVcybtBFu7Bxt9l/JiJmte15eqCxOG0cES36ze7ZLt6w3R4uiIizOd8+ddTPa9qvZ+NBt91mMZtMHz58+PDhf3+/Xbxyp2OlNVg83d9tuX9aEBFvt5/jrihh20YkOh+3i8mw32m3WszKKX3456eH1xdm9oe9GxGeGt9J4bAaeY3H4wUR0fPD9pnfPSjfCLt1Xy/U5I76BSJ6qhbbynnN28XqExE5wn7r3uOz2QVGRIv7fDQczzeH+1qz+VjJiGexGt4Hi0VtqY/Km2eyKMH3ga3fsGF/Xbs+byajnx+JmCNTr4ZtZlu8Wo1JjOj525+rNGvjbveRiATbWaruJqs/6mBED9XyMsIbl7PVJyIpfvYHeM2o5cMmy94HYW/5o0xEZHYmm7oYb1z0mo1zJCjM7vyQiObttNv9sYvoDuBd+p9LH8DPwWSPVofBfrPdn5usdqfd8vIm3+wvD3vBbDKZvn349vd/v+VvXOFk+ibsNNrncTHP8rH/IXNtc8NPp91y+uYmf6v0hARX+CZ9Ez5f/7wdt/7778e9m4iJTj+9P17S4qp4WPc43eQO+/kvn5+axeo4HD1/F8AeDkufPt7flavDeNxKNG/n8/dEvD/50kBfM58Ox+Mj7/NxxtVw8OsTMSlWb6aPyB9li9abU6/74/dvUX/cUo5aX30E/aw//v2ZOFemWY/uG/b4lc27Wa/3r+9PREScINmdaje9//3+6Rz7P+LLdHbjatgd/PKwICLGiza7zWwiovmwfff42rCVzN6wl7u9fb4vV/vJpG0Z3zm2RtaYrzStBl/YRDujQfHzp4enerE5d3tN83ax/kTEXOGgde/fmdzZft+fv0mmv9x9//znb59vHKHkzU3Ua/iIZf/3/cTW4NDmb9uw99N2+8f7vbeXCzWmRfeOD+fNYvmRiPjgjdZWmN3ZennqDH55fLr9w+2fN6thKhe/ExHn9r9Nlbb6o8743feHcrGbztpp+UPj2fih+dHe+Ed5xeRMNuvk9n70eqlej8/nzwtrIBU2utr98s2X+Zym7bTXi+gO4B279BzRX5cuPQLjHSGDt/G0VzV2vEygvnLCVu+eGb+uo1BfmjFYDlKZ5M+WhxLJtV74guEeh1fRZNKhd7S1rHPbS8Yt35Q56oX4F7wOp74NqdwJ3Sqex/pxq2juWGNl36spynsUZ4T37/aaqV8HJoZ0CyeolUT3QtWJ7+CpNcpwec1t+1oM2fBFtZ1/qK1CybtSuqRz6rtJ+pV2T3wHT5ZXb8gp9Xf7dcLlcljHLYqx69TUdpILVGbLBZaOXEdJljfTI+x4G2/5PrRhAzTKKW9er73Npb6DZ/R+10h5u9BoFcgf0bC/Nk2CdrJbrdKoElJnzfCugLK26PYa0Lv2edo7eLK8/K1VqsNMWVnzhHW75HO/g/fye/eSPHiqmfI+nhTyScR8O3ZQC3Ek+kKOQ2lXAeCyMIJ3MWabP131J7vldPIm++3h7sufv33ZfOprttkt9O2R+vX2OLk1TXPYbj4QEdndW+M04/GQyKr/r2a9T0RktdtXj9umWvELIiLeEbpJ34T3vRX4cs7sUM6+bhfTarr8RCSE49vvipnc4aDw+e/Hu2K5H0+e/6mrNRh2Je++35er/WS4ma0+E3PFo69/nGy2OV2O8ZlG8Kb9u4dnZezuxIeqJnuy3iSv++P3Z+IEh/GU4COM+3eP6thd3P6+3k18V/rK8BMfzOaD+17WOmh78NfmtLHPT4vndrNLRq94vZVps9xcEJEjWUy6j60/p1R8kzfs5b5+fb4vV/txd7n6uDmyZrHbePr+RN1mexrfOxVzH1sw7Pj4191zvVgfm6rVJyLmDfuP/kKYrN542Ru9qWdvkumv9/dfP/7na1ryJW/SUb9NOyab3UZf7uip3eyTc7OxmjbrypvXTvvmOUz7wznpv1fTdrVLRMTZ17+0P65ht8Xb8/gr/l6bfjLuj+e0/lWw+Ivtqsnr/3z/9P3rExFxvvTNETMSXsjsjXq5b7eP1WI7bRtny49EYjjuvUAb9gN/lDctx/Fun4lZ92z4cPuFSYl6M42xO4D369IRJsiyLE86pdVyyMS5cssnj9q4l7iViUdbqlC3nudy0XMmRvS5b1dJFVrLHUTEZZHGSfgOmw1atVqjs/lscTbq1Grb2RNeR320vvO57Oaaeru9aEFLdYBCTJSUVTwNhhHPX+gp+28lJLZ3MbODD7bV9TTFyMuey05qERFjd0dpGaRDkJWsl0RHjeDN1NH97eXxtQwG/HaehG3nG8HTRpI2V/AdqRnd9SN46uwDw8GdnYWqA2okJQoxYbPtk1fD+EzaypNwyqlpiR1cPo+Sb+LEb/rSZCPT6WphSLUtM8hft2ypdV/TZR68zYRl2gAat8pyf46GfVcD/gYNey8laj97g60PtV85IiLelTpyoceXjODJ8ky5yHykkHGxFyyUfY4RvHPcu1eM4CmUcby9I3gYuwN4/xDgvSOjViHmEpi+ezcqeNSM5lKk0BhMZvJsMurUMgHld4BJqfWuzHqic+I9iVJrMBoN1tLnrv2IqotAS4HUi0I7WV5LdL7xU9rZkSf3NdRZM/tmSxmk+dqxrxfFWlouLfayOO1tA7xRyccfWqr6mH6PEuOtP2M4Vi/n4hDdHUmbfC2ElsnnVvm4jwrwtNpOYqTSm0xGvUalMVD3pOZGIyYGMo1ltr3JoFPLxXwOKdaQD+1cc8oUTW3GuGPVJE06uYD24Eof4GkXgPNkWqPJZNCp1ZapnHcXuozgOIPUerIsywM1fTjxrlhJS7cuz0a9RikVckm+tcZjdynLyaa0ETq9zKSnTbZbC8YntQC/vEe13mg2m81GvUYuos7uFPVpK9YSnRPniBQavdFo1Kll1LW/dLPbz9Cw72rA36Jhl0dq+kEi3hXJ1TqD0Wg06LVqhcRyqivHMW2LRMUg1+LmHl8U4MmzhjIhlzEi4k++7ecI8M5w714f4MmyPGulXKFdAV7Eg+gO4CeAAO/dGbUKqZKuK9SISatf93WcpB+mW8uDF0tsv1LF9KmMR7VMprIvWdNhk5IaT2784Gtx3/7cTCcW5TuczXw1LLC/2BfGWtpLQETsyNy3Zyj0uH3XQjx38KHqkf2eWSfj4gzSZO/fd8HDIbo73qyTUaM5Jkguj8shckTERJ9H2vzi7IrBtt5+WsU7s17Ot/ZuJ9Oyi21/Wc8Y4MmjijbcwokOj8clKRnvHT4XT5sBnjxRR+OWVmXsCb3W31llhgnKRjVdc6k7dV0qy32lTJYxx4nvYe026ZRShfVpGLPWrtdembgxTLfKgxdJeLbf2eU9hfVLe4aGfVcD/gYNuyzL8qS1fLSxhRMDuc5kNqhEVrf1UOv7wgBPllsRbbzwtPerZVk+T4B3hnt3lgBPluWdGeqPTl0PABeFAO/nMGrkYj6HyCsPrjledPhiBYOXrtd7XaNGJuQQOCJivOAIJEqd8z9162Uc3FbkKMuDgo9nxHiPUX72FxkonVkhtv9nV53uY5jkec1LYy1titjRuW/PUeiRex8dnjZ1fL/nmL1tmrzgb35ps14lFXCJPFO+0q5QqjKYKfPEdCukKM8VmLA9ajJqZAIOgWNEjBMcIX1UMOlVUiGPJHBqAmlekFyBSKqkn1+3e+dKCQUPR8QMqsysFuC3/3DUykXUMhknKK3UrJdxMINnIrNeKeYReUZEjBc9qeXjid2FyrLcSTmUVlCI1HbORV5vLpX20hNK5Grry9nsL2WmdfUPPix6lUmnlAi4lgfKCw5fxHBa3toiK5NWIeIS1Sss+WJvsSLWrgb8/A370qRTWq+unCC5AjH9LRs1UgGJZ3Tw4dOLA7xl1nij6aKHvFWi81OdKcADgJ/cB1mWdzw5g5/QtOj9v//9RixQmZf9lz6Y92te9Zt/v10IsdYw6zzxT+dzOj4xxZkKPZNx3v3//vxOUqrXfYNlaACuxrwZtv725Yku+G3VqQfN//n6TK7CpBnGshaHvKahe3kD30/a/vnp4fL3qBm1/Pb5CX0AgF8dVtEEOMVLfvkB4GcyrWerT0QkBsPvILqDHwgNPABcBwR48EsymRijH/1LfpFC9QfAMYYuDMBe42q+/kxEot8w0zO8d5dp6MwmxtjlG1eTycQYM1/+QADgojBF87pgiiYAwGsMs85//HVH72kuM6ZoAgDAKf7PpQ8AzspkNnNEzGJBJwAA4HTjZr1LxARfPPw+ojsiMlvMjIizmDEsAwAAR8AIHgAAAAAAwJXACB4AAAAAAMCVQIAHAAAAAABwJRDgAQAAAAAAXAkEeAAAAAAAAFcCAR4AAAAAAMCVQIAHAAAAAABwJRDgAQAAAAAAXAkEeAAAAAAAAFcCAR4AAAAAAMCVQIAHAAAAAABwJRDgAQAAAAAAXAkEeAAAAAAAAFcCAR4AAAAAAMCVQIAHAAAAAABwJRDgAQAAAAAAXAkEeAAAAAAAAFcCAR4AAAAAAMCVQIAHAAAAAABwJRDgAQAAAAAAXAkEeAAAAAAAAFcCAR4AAAAAAMCVQIAHAAAAAABwJRDgAQAAAAAAXAkEeAAAAAAAAFcCAR4AAAAAAMCVQIAHAAAAAABwJRDgAQAAAAAAXAkEeAAAAAAAAFcCAR4AAAAAAMCVQIAHAAAAAABwJRDgAQAAAAAAXAkEeAAAAAAAAFcCAR4AAAAAAMCVQIAHAAAAAABwJRDgAQAAAAAAXAkEeAAAAAAAAFcCAR4AAAAAAMCVQIAHAAAAAABwJRDgAQAAAAAAXAkEeAAAAAAAAFcCAR4AAAAAAMCVQIAHAAAAAABwJf4/tyeFMdfy+AIAAAAASUVORK5CYII=;" vertex="1" parent="1">
          <mxGeometry x="-507.52" y="580" width="455.04" height="206" as="geometry" />
        </mxCell>
        <mxCell id="ksrkDHLtkuaByw2PT24d-21" value="Tautologies" style="ellipse;whiteSpace=wrap;html=1;aspect=fixed;fillColor=#f8cecc;strokeColor=#b85450;" vertex="1" parent="1">
          <mxGeometry x="110" y="850" width="90" height="90" as="geometry" />
        </mxCell>
        <mxCell id="ksrkDHLtkuaByw2PT24d-22" value="Inconsistencies" style="ellipse;whiteSpace=wrap;html=1;aspect=fixed;fillColor=#f8cecc;strokeColor=#b85450;" vertex="1" parent="1">
          <mxGeometry x="230" y="906" width="90" height="90" as="geometry" />
        </mxCell>
        <mxCell id="ksrkDHLtkuaByw2PT24d-23" value="&lt;div&gt;Always&lt;/div&gt;&lt;div&gt;True&lt;br&gt;&lt;/div&gt;" style="rounded=1;whiteSpace=wrap;html=1;" vertex="1" parent="1">
          <mxGeometry x="50" y="980" width="120" height="60" as="geometry" />
        </mxCell>
        <mxCell id="ksrkDHLtkuaByw2PT24d-24" value="Satisfiable" style="ellipse;whiteSpace=wrap;html=1;aspect=fixed;fillColor=#f8cecc;strokeColor=#b85450;" vertex="1" parent="1">
          <mxGeometry x="340" y="860" width="90" height="90" as="geometry" />
        </mxCell>
        <mxCell id="ksrkDHLtkuaByw2PT24d-26" value="&lt;div&gt;Always&lt;/div&gt;False" style="rounded=1;whiteSpace=wrap;html=1;" vertex="1" parent="1">
          <mxGeometry x="215" y="1030" width="120" height="60" as="geometry" />
        </mxCell>
        <mxCell id="ksrkDHLtkuaByw2PT24d-27" value="Both True and False, given inputs" style="rounded=1;whiteSpace=wrap;html=1;" vertex="1" parent="1">
          <mxGeometry x="365" y="990" width="120" height="60" as="geometry" />
        </mxCell>
        <mxCell id="ksrkDHLtkuaByw2PT24d-28" value="" style="endArrow=classic;html=1;rounded=0;exitX=0.056;exitY=0.733;exitDx=0;exitDy=0;entryX=1;entryY=0.5;entryDx=0;entryDy=0;exitPerimeter=0;" edge="1" parent="1" source="ksrkDHLtkuaByw2PT24d-6" target="ksrkDHLtkuaByw2PT24d-19">
          <mxGeometry width="50" height="50" relative="1" as="geometry">
            <mxPoint x="360" y="655" as="sourcePoint" />
            <mxPoint x="302.96000000000004" y="771.98" as="targetPoint" />
          </mxGeometry>
        </mxCell>
        <mxCell id="ksrkDHLtkuaByw2PT24d-29" value="" style="endArrow=classic;html=1;rounded=0;exitX=0.031;exitY=0.279;exitDx=0;exitDy=0;exitPerimeter=0;" edge="1" parent="1" source="ksrkDHLtkuaByw2PT24d-19" target="ksrkDHLtkuaByw2PT24d-20">
          <mxGeometry width="50" height="50" relative="1" as="geometry">
            <mxPoint x="-16.549999999999756" y="869" as="sourcePoint" />
            <mxPoint x="66.44999999999979" y="838" as="targetPoint" />
          </mxGeometry>
        </mxCell>
        <mxCell id="ksrkDHLtkuaByw2PT24d-31" value="" style="endArrow=classic;html=1;rounded=0;exitX=0;exitY=1;exitDx=0;exitDy=0;entryX=0.656;entryY=0.044;entryDx=0;entryDy=0;entryPerimeter=0;" edge="1" parent="1" source="ksrkDHLtkuaByw2PT24d-5" target="ksrkDHLtkuaByw2PT24d-21">
          <mxGeometry width="50" height="50" relative="1" as="geometry">
            <mxPoint x="250.03999999999996" y="835.97" as="sourcePoint" />
            <mxPoint x="193.9699999999998" y="918" as="targetPoint" />
          </mxGeometry>
        </mxCell>
        <mxCell id="ksrkDHLtkuaByw2PT24d-32" value="" style="endArrow=classic;html=1;rounded=0;exitX=0.5;exitY=1;exitDx=0;exitDy=0;" edge="1" parent="1" source="ksrkDHLtkuaByw2PT24d-5" target="ksrkDHLtkuaByw2PT24d-22">
          <mxGeometry width="50" height="50" relative="1" as="geometry">
            <mxPoint x="413.18019484660545" y="812.8198051533946" as="sourcePoint" />
            <mxPoint x="319.03999999999996" y="913.96" as="targetPoint" />
          </mxGeometry>
        </mxCell>
        <mxCell id="ksrkDHLtkuaByw2PT24d-33" value="" style="endArrow=classic;html=1;rounded=0;exitX=1;exitY=1;exitDx=0;exitDy=0;entryX=0;entryY=0;entryDx=0;entryDy=0;" edge="1" parent="1" source="ksrkDHLtkuaByw2PT24d-5" target="ksrkDHLtkuaByw2PT24d-24">
          <mxGeometry width="50" height="50" relative="1" as="geometry">
            <mxPoint x="445" y="826" as="sourcePoint" />
            <mxPoint x="438.22906449695074" y="920.1160034923887" as="targetPoint" />
          </mxGeometry>
        </mxCell>
        <mxCell id="ksrkDHLtkuaByw2PT24d-34" value="" style="endArrow=classic;html=1;rounded=0;exitX=0.233;exitY=0.956;exitDx=0;exitDy=0;entryX=0.442;entryY=-0.017;entryDx=0;entryDy=0;exitPerimeter=0;entryPerimeter=0;" edge="1" parent="1" source="ksrkDHLtkuaByw2PT24d-21" target="ksrkDHLtkuaByw2PT24d-23">
          <mxGeometry width="50" height="50" relative="1" as="geometry">
            <mxPoint x="476.81980515339455" y="812.8198051533946" as="sourcePoint" />
            <mxPoint x="543.1801948466054" y="933.1801948466054" as="targetPoint" />
          </mxGeometry>
        </mxCell>
        <mxCell id="ksrkDHLtkuaByw2PT24d-35" value="" style="endArrow=classic;html=1;rounded=0;exitX=0.5;exitY=1;exitDx=0;exitDy=0;entryX=0.5;entryY=0;entryDx=0;entryDy=0;" edge="1" parent="1" source="ksrkDHLtkuaByw2PT24d-22" target="ksrkDHLtkuaByw2PT24d-26">
          <mxGeometry width="50" height="50" relative="1" as="geometry">
            <mxPoint x="280.9699999999998" y="996.04" as="sourcePoint" />
            <mxPoint x="233.03999999999996" y="1088.98" as="targetPoint" />
          </mxGeometry>
        </mxCell>
        <mxCell id="ksrkDHLtkuaByw2PT24d-36" value="" style="endArrow=classic;html=1;rounded=0;exitX=0.633;exitY=1.033;exitDx=0;exitDy=0;entryX=0.5;entryY=0;entryDx=0;entryDy=0;exitPerimeter=0;" edge="1" parent="1" source="ksrkDHLtkuaByw2PT24d-24" target="ksrkDHLtkuaByw2PT24d-27">
          <mxGeometry width="50" height="50" relative="1" as="geometry">
            <mxPoint x="435" y="1010" as="sourcePoint" />
            <mxPoint x="430" y="1100" as="targetPoint" />
          </mxGeometry>
        </mxCell>
        <mxCell id="ksrkDHLtkuaByw2PT24d-38" value="&lt;div&gt;Truth Tables&lt;/div&gt;&lt;div&gt;O(2^n)&lt;br&gt;&lt;/div&gt;" style="ellipse;whiteSpace=wrap;html=1;aspect=fixed;fillColor=#f8cecc;strokeColor=#b85450;" vertex="1" parent="1">
          <mxGeometry x="450" y="840" width="90" height="90" as="geometry" />
        </mxCell>
        <mxCell id="ksrkDHLtkuaByw2PT24d-39" value="" style="endArrow=classic;html=1;rounded=0;exitX=0.5;exitY=1;exitDx=0;exitDy=0;" edge="1" parent="1" source="ksrkDHLtkuaByw2PT24d-4" target="ksrkDHLtkuaByw2PT24d-38">
          <mxGeometry width="50" height="50" relative="1" as="geometry">
            <mxPoint x="449.00999999999976" y="667.96" as="sourcePoint" />
            <mxPoint x="553.1801948466068" y="733.1801948466068" as="targetPoint" />
          </mxGeometry>
        </mxCell>
      </root>
    </mxGraphModel>
  </diagram>
</mxfile>
